<?xml version="1.0" encoding="UTF-8" standalone="no"?><!DOCTYPE svg PUBLIC "-//W3C//DTD SVG 1.1//EN" "http://www.w3.org/Graphics/SVG/1.1/DTD/svg11.dtd"><svg width="100%" height="100%" viewBox="0 0 10667 6000" version="1.1" xmlns="http://www.w3.org/2000/svg" xmlns:xlink="http://www.w3.org/1999/xlink" xml:space="preserve" xmlns:serif="http://www.serif.com/" style="fill-rule:evenodd;clip-rule:evenodd;stroke-linejoin:round;stroke-miterlimit:2;"><g transform="matrix(4.166667,0,0,4.166667,-1118.229728,636.868484)"><text x="395.3px" y="372.8px" style="font-family:'Railway', 'Railway C1';font-size:300px;">Me<tspan x="795.2px 924.2px 1025.6px 1188.8px 1355.3px 1518.5px 1616.6px 1679px " y="372.8px 372.8px 372.8px 372.8px 372.8px 372.8px 372.8px 372.8px ">tropolit</tspan>an Li<tspan x="2383.1px " y="372.8px ">n</tspan>e</text><g transform="matrix(300,0,0,300,1093.425135,691.495237)"><path d="M1.5,0c0.2,0 0.3,-0.1 0.4,-0.3l0.6,0l-0.1,0.1l0.6,-0.2l-0.6,-0.2l0.1,0.1l-0.6,0c-0,-0.2 -0.2,-0.3 -0.4,-0.3c-0.2,0 -0.3,0.1 -0.4,0.3l-0.5,0l-0.1,-0.1l-0.1,0l0.1,0.1l-0.1,0l-0.1,-0.1l-0.1,0l0.1,0.1l-0.1,0l-0.1,-0.1l-0.1,0l0.1,0.1l-0.1,0l-0,0.1l0.1,0l-0.1,0.1l0.1,0l0.1,-0.1l0.1,0l-0.1,0.1l0.1,0l0.1,-0.1l0.1,0l-0.1,0.1l0.1,0l0.1,-0.1l0.5,0c0,0.2 0.2,0.3 0.4,0.3Zm0,-0.1c-0.1,0 -0.2,-0.1 -0.3,-0.2l0.3,0l0,-0.1l-0.3,0c0,-0.1 0.1,-0.2 0.3,-0.2c0.1,0 0.3,0.1 0.3,0.3c0,0.1 -0.1,0.3 -0.3,0.3Z" style="fill-rule:nonzero;"/></g><g transform="matrix(300,0,0,300,1093.425135,691.495237)"></g></g><g transform="matrix(741.915734,0,0,741.915734,6551.558969,4810.058874)"></g><text x="4115.1px" y="4810.1px" style="font-family:'Railway', 'Railway C1';font-size:741.9px;">β</text><clipPath id="_clip1"><rect x="9450.1" y="4321.4" width="866.1" height="447.5"/></clipPath><g clip-path="url(#_clip1)"><g><g><g><g><path d="M9679.4,4459c3.2,105.8 4.2,163.6 -13.8,163.6c-27.6,0 -22.3,-137.5 -22.3,-151.9l-51.5,-11.8c-0.8,17.1 -5.1,66.9 0.7,111.4c-10.9,26.1 -26.2,52.3 -44.8,52.3c-24.4,0 -35.6,-47.6 -36.6,-102.3c-1.1,-59.8 10.6,-127.8 32.4,-148.8c10.1,16.4 17.5,79.3 17.5,91.5c58.4,-7.2 48.8,-118.1 -14.9,-118.1c-55.2,0 -97.6,89.5 -96,173.3c1.1,66.5 26.5,131.4 87.6,131.4c31.3,0 49.8,-22.5 61.5,-47.1c8.2,27.1 23,47.1 48.9,47.1c23.9,0 36.6,-14.3 43.5,-29.7c-3.7,36.3 -13.8,102.3 -37.1,129.9c-12.7,-21 -21.8,-51.1 -26.5,-83.3c-17,-1.5 -31.3,18.9 -31.3,44.5c0,26.6 17,52.7 47.8,57.3c2.7,0.5 5.3,0.5 8.5,0.5c89.7,0 86,-211.7 79.6,-298.1l-53.1,-11.8Z" style="fill:#9f9f9f;fill-rule:nonzero;"/></g><g><path d="M10083.7,4621c-8.5,0 -13.3,-22 -13.3,-48.1c0,-38.9 10.6,-87.4 35,-87.4c5.3,0 11.1,1.5 17,5.1l0.6,-1.5c-9.5,105.2 -32.7,131.9 -39.4,131.9m-145.9,-59.3c0.5,-30.7 13.8,-68 28.1,-84.9c10.1,11.2 15.4,88.3 -25.8,106.3c-1.9,-8.3 -2.5,-16.1 -2.3,-21.4m332.2,-197.9c15.9,49.7 1.6,128.5 -39.4,164.5c2.6,-56 17.3,-123.2 39.4,-164.5m-17,257.2c-14.5,0 -22.5,-33.2 -22.8,-72.9c55.5,-23 86,-96 86,-149.5c0,-44.5 -18,-60.8 -43,-60.8c-51.5,0 -88.1,108.4 -88.1,197.4c0,19.4 1.7,37.8 5.5,53.9c-5.9,20.5 -12.6,32 -19.3,32c-9,0 -13.8,-14.3 -13.8,-35.8c0,-33.2 8,-83.9 15.9,-119.1l-47.8,-13.8c-0.4,8.1 -0.9,15.8 -1.4,23.2c-8.7,-8.8 -23.5,-16 -36.2,-16c-39.8,0 -63.1,58.3 -63.1,110.4c0,0.6 0,1.2 0,1.8c-8.4,23.7 -29.2,50.3 -51,50.3c-14.6,0 -23.9,-11.3 -29.3,-24.7c46.9,-8.8 71.3,-48.4 71.3,-84.7c0,-29.1 -14.8,-51.7 -44.8,-54c-8.6,-0.7 -16.4,0.4 -23.4,2.7c-35.9,11.9 -55,58 -55.9,99.9c-1.1,46.5 21.8,87.9 63.7,87.9c39.1,0 62.2,-28.6 73,-46.1c5.9,25.7 19.6,45 42.7,45c27.6,0 40.3,-26.6 47.2,-45.5c4.2,29.1 21.8,45.5 40.9,45.5c19.1,0 32.1,-13.9 40.4,-32.9c9.7,20.2 24.6,32.9 45.6,32.9c47.8,0 60.5,-68.5 69,-120.7l-15.9,-3.1c-15.4,67 -31.3,96.6 -45.1,96.6" style="fill:#9f9f9f;fill-rule:nonzero;"/></g><g><path d="M9802.2,4530.3l-0.7,-59.6l-50.9,-11.8c6.9,44.5 11.1,121.7 8.5,184.1l43,10.7c1.4,-95.8 19.8,-125.4 39.8,-159.8c-3.7,30.3 -3.5,70.4 32.9,72.9c1.6,-46.5 10.6,-77.2 18,-101.2c-46.4,-17.1 -74.4,21.7 -90.5,64.7" style="fill:#9f9f9f;fill-rule:nonzero;"/></g></g></g></g></g><text x="8534.4px" y="4586.7px" style="font-family:'IBMPlexMono-Regular', 'IBM Plex Mono', monospace;font-size:125px;">project by</text><g transform="matrix(125,0,0,125,5259.477116,4154.718535)"></g><text x="4059.5px" y="4154.7px" style="font-family:'IBMPlexMono-Regular', 'IBM Plex Mono', monospace;font-size:125px;">Original Type by</text><g transform="matrix(125,0,0,125,4359.477116,4916.8513)"></g><text x="4059.5px" y="4916.9px" style="font-family:'IBMPlexMono-Regular', 'IBM Plex Mono', monospace;font-size:125px;">1916</text></svg>