<?xml version="1.0" encoding="UTF-8" standalone="no"?><!DOCTYPE svg PUBLIC "-//W3C//DTD SVG 1.1//EN" "http://www.w3.org/Graphics/SVG/1.1/DTD/svg11.dtd"><svg width="100%" height="100%" viewBox="0 0 10667 6000" version="1.1" xmlns="http://www.w3.org/2000/svg" xmlns:xlink="http://www.w3.org/1999/xlink" xml:space="preserve" xmlns:serif="http://www.serif.com/" style="fill-rule:evenodd;clip-rule:evenodd;stroke-linejoin:round;stroke-miterlimit:2;"><rect x="-446.8" y="-375.4" width="11560.2" height="6750.7" style="fill:#222;"/><g><path d="M591.5,2646l137.5,0l0,-675l308.8,375l308.8,-375l0,675l137.5,0l0,-875l-140,0l-306.2,375l-306.2,-375l-140,0l0,875Z" style="fill:#fff;"/><path d="M1914,2658.5c85,0 167.5,-27.5 233.8,-70l0,-130c-47.5,41.2 -131.2,81.2 -213.8,81.2c-112.5,0 -205,-56.2 -221.2,-158.8l472.5,0c25,-252.5 -143.8,-341.3 -291.2,-341.3c-180,0 -308.8,136.2 -308.8,306.3c0,176.2 137.5,312.5 328.7,312.5Zm-197.5,-380c23.8,-68.8 83.8,-120 172.5,-120c93.8,0 153.8,51.2 170,120l-342.5,0Z" style="fill:#fff;"/><path d="M2554,2658.5c50,0 102.5,-16.3 140,-42.5l0,-120c-38.8,28.8 -90,45 -131.2,45c-66.2,0 -92.5,-46.2 -92.5,-111.2l0,-265l223.7,0l0,-112.5l-223.7,0l0,-118.8l-125,0l0,118.8l-123.8,0l0,112.5l123.8,0l0,296.3c0,126.2 80,197.5 208.8,197.5Z" style="fill:#fff;"/><path d="M2796.5,2646l125,0l0,-401.2c28.8,-57.5 80,-82.5 142.5,-82.5c33.8,0 68.8,7.5 115,33.8l0,-127.5c-33.7,-17.5 -67.5,-28.8 -110,-28.8c-57.5,0 -110,20 -147.5,62.5l0,-50l-125,0l0,593.8Z" style="fill:#fff;"/><path d="M3499,2658.5c171.2,0 305,-136.2 305,-308.8c0,-173.8 -133.8,-310 -305,-310c-171.3,0 -305,136.2 -305,310c0,172.5 133.7,308.8 305,308.8Zm0,-118.8c-101.3,0 -180,-83.8 -180,-190c0,-107.5 78.7,-191.3 180,-191.3c101.2,0 180,83.8 180,191.3c0,106.2 -78.8,190 -180,190Z" style="fill:#fff;"/><path d="M3899,2927.2l125,0l0,-313.8c47.5,28.7 102.5,45 160,45c172.5,0 306.2,-136.2 306.2,-315c0,-167.5 -133.8,-303.8 -307.5,-303.8c-57.5,0 -110,15 -158.7,45l0,-32.5l-125,0l0,875Zm278.7,-387.5c-56.2,0 -117.5,-23.8 -153.7,-65l0,-258.8c37.5,-35 96.2,-57.5 153.7,-57.5c108.8,0 187.5,83.8 187.5,186.3c0,111.2 -78.8,195 -187.5,195Z" style="fill:#fff;"/><path d="M4872.7,2658.5c171.2,0 305,-136.2 305,-308.8c0,-173.8 -133.8,-310 -305,-310c-171.2,0 -305,136.2 -305,310c0,172.5 133.8,308.8 305,308.8Zm0,-118.8c-101.2,0 -180,-83.8 -180,-190c0,-107.5 78.8,-191.3 180,-191.3c101.2,0 180,83.8 180,191.3c0,106.2 -78.8,190 -180,190Z" style="fill:#fff;"/><path d="M5489,2658.5c43.7,0 80,-10 123.8,-30l0,-121.2c-37.5,21.2 -73.8,31.2 -108.8,31.2c-68.8,0 -106.2,-41.2 -106.2,-111.2l0,-656.3l-125,0l0,690c0,115 91.2,197.5 216.2,197.5Z" style="fill:#fff;"/><path d="M5692.7,2646l125,0l0,-593.8l-125,0l0,593.8Zm62.5,-672.5l87.5,-87.5l-87.5,-88.8l-87.5,88.8l87.5,87.5Z" style="fill:#fff;"/><path d="M6236.5,2658.5c50,0 102.5,-16.3 140,-42.5l0,-120c-38.8,28.8 -90,45 -131.2,45c-66.2,0 -92.5,-46.2 -92.5,-111.2l0,-265l223.8,0l0,-112.5l-223.8,0l0,-118.8l-125,0l0,118.8l-123.8,0l0,112.5l123.8,0l0,296.3c0,126.2 80,197.5 208.8,197.5Z" style="fill:#fff;"/><path d="M6662.7,2658.5c58.8,0 107.5,-16.3 148.8,-43.8l0,31.2l125,0l0,-375c0,-187.5 -122.5,-231.2 -232.5,-231.2c-70,0 -131.2,18.8 -182.5,51.3l-46.3,155l12.5,0c70,-63.8 130,-86.3 198.8,-86.3c100,0 125,51.2 125,123.8c-173.8,0 -348.8,46.2 -348.8,207.5c0,106.2 81.2,167.5 200,167.5Zm11.2,-101.3c-56.2,0 -92.5,-23.8 -92.5,-71.2c0,-57.5 56.3,-110 230,-106.3l0,128.8c-33.8,26.2 -85,48.7 -137.5,48.7Z" style="fill:#fff;"/><path d="M7051.5,2646l125,0l0,-432.5c26.2,-31.3 73.8,-55 142.5,-55c95,0 147.5,56.3 147.5,151.2l0,336.3l125,0l0,-342.5c0,-165 -93.8,-263.8 -245,-263.8c-70,0 -127.5,18.8 -170,50l0,-37.5l-125,0l0,593.8Z" style="fill:#fff;"/><path d="M8016.5,2646l522.5,0l0,-125l-385,0l0,-750l-137.5,0l0,875Z" style="fill:#fff;"/><path d="M8629,2646l125,0l0,-593.8l-125,0l0,593.8Zm62.5,-672.5l87.5,-87.5l-87.5,-88.8l-87.5,88.8l87.5,87.5Z" style="fill:#fff;"/><path d="M8875.2,2646l125,0l0,-432.5c26.2,-31.3 73.7,-55 142.5,-55c95,0 147.5,56.3 147.5,151.2l0,336.3l125,0l0,-342.5c0,-165 -93.8,-263.8 -245,-263.8c-70,0 -127.5,18.8 -170,50l0,-37.5l-125,0l0,593.8Z" style="fill:#fff;"/><path d="M9832.7,2658.5c85,0 167.5,-27.5 233.7,-70l0,-130c-47.5,41.2 -131.2,81.2 -213.8,81.2c-112.5,0 -205,-56.2 -221.2,-158.8l472.5,0c25,-252.5 -143.8,-341.3 -291.2,-341.3c-180,0 -308.8,136.2 -308.8,306.3c0,176.2 137.5,312.5 328.8,312.5Zm-197.5,-380c23.8,-68.8 83.8,-120 172.5,-120c93.8,0 153.8,51.2 170,120l-342.5,0Z" style="fill:#fff;"/><path d="M5335.2,3979c222.5,0 413.8,-150 450,-376.3l792.5,0l-157.5,170l793.8,-233.8l-791.2,-235l155,173.8l-792.5,0c-37.5,-212.5 -226.3,-386.2 -450,-386.2c-237.5,0 -426.2,176.2 -462.5,386.2l-583.8,0l-158.8,-170l-173.7,0l158.7,170l-83.7,0l-158.7,-170l-175,0l160,170l-85,0l-157.5,-170l-175,0l160,170l-160,0l0,125l160,0l-160,170l175,0l157.5,-170l85,0l-160,170l175,0l158.7,-170l83.7,0l-158.7,170l173.7,0l158.8,-170l583.8,0c36.2,225 223.8,376.3 462.5,376.3Zm0,-112.5c-162.5,0 -300,-111.2 -337.5,-263.8l338.8,0l0,-125l-338.8,0c36.2,-148.8 177.5,-261.2 337.5,-261.2c175,0 325,150 325,325c0,176.3 -151.2,325 -325,325Z" style="fill:#fff;"/></g><path d="M5248,5769.6l14.8,-0.7l14.8,-1.5l28.9,-6.7l27.5,-11.9l16.3,-8.2l57.1,-38.6l46.7,-40.8l34.9,-40.1l28.2,-44.5l14.1,-31.2l1.5,-3l5.2,-8.9l3.7,-7.4l0.7,-3.7l1.5,-3l5.2,-6.7l3.7,-3.7l2.2,-0.7l5.2,-0.7l54.9,20l32.6,28.9l1.5,8.9l0,5.2l-2.2,6.7l-14.8,8.2l-3.7,6.7l-0.7,2.2l0,2.2l3,0.7l3,0l2.2,-0.7l3,-0.7l3,-1.5l19.3,-15.6l3,-4.5l3,-5.2l1.5,-5.9l0.7,-5.9l0,-5.9l-0.7,-5.9l-1.5,-5.9l-6.7,-9.6l-11.1,-11.1l-5.9,-4.5l-9.6,-5.2l-10.4,-5.2l-14.8,-5.2l-47.5,-14.1l7.4,-40.1l20.8,-5.2l89.8,-14.8l197.3,-20l5.9,-0.7l9.6,-3l-3.7,-0.7l-0.7,-0.7l-169.9,9.6l-73.4,13.4l-69.7,7.4l0.7,-14.8l12.6,-100.9l1.5,-83.1l-5.2,-55.6l-6.7,-27.5l-9.6,-26l-13.4,-25.2l-5.2,-5.9l-8.9,-8.2l-16.3,-11.1l-21.5,-9.6l-31.2,-7.4l-32.6,-0.7l-46,18.5l-3,3l-8.2,10.4l0,10.4l0.7,5.2l3.7,13.4l11.9,22.3l23.7,34.9l10.4,18.5l5.2,14.8l3,10.4l0.7,11.9l-0.7,11.1l-24.5,-3.7l-12.6,0l-4.5,1.5l-8.2,3.7l-3.7,3.7l-31.9,40.8l-3,0l-4.5,-1.5l-5.2,-4.5l-4.5,-2.2l-7.4,3l-6.7,5.2l-5.2,5.2l-16.3,21.5l-5.2,5.9l-3,1.5l-3.7,0l0,-0.7l-0.7,-0.7l5.9,-49.7l-1.5,-0.7l-1.5,-1.5l-3.7,0l-5.2,5.2l-20.8,31.2l-15.6,22.3l-9.6,9.6l-5.2,4.5l-12.6,6.7l-3.7,1.5l-1.5,-0.7l-2.2,-0.7l-0.7,-0.7l0,-0.7l17.1,-40.8l34.1,-34.9l4.5,-9.6l0.7,-3.7l-0.7,-3l-2.2,-3l-2.2,-0.7l-3,0l-13.4,6.7l-8.9,3l-14.8,3l-2.2,0l-7.4,1.5l-1.5,0l-19.3,1.5l-1.5,0l-6.7,1.5l-6.7,0l-9.6,-2.2l-14.1,-3.7l-11.9,-1.5l-5.9,0l-8.2,2.2l-1.5,0.7l-1.5,1.5l-2.2,3.7l0.7,8.9l3,16.3l3,17.1l-0.7,8.9l-1.5,8.9l-3.7,8.9l-20,26l-5.2,0.7l-6.7,-0.7l-3.7,-1.5l-0.7,-1.5l-4.5,-11.9l-3,-12.6l-2.2,-24.5l1.5,-24.5l5.9,-24.5l-4.5,-4.5l0,-0.7l-7.4,5.2l-7.4,5.9l-11.9,11.9l-45.3,58.6l-8.9,9.6l-7.4,6.7l-7.4,5.2l-2.2,-0.7l-3,-2.2l-0.7,-0.7l0,-1.5l5.9,-84.6l-4.5,-1.5l-1.5,-0.7l-3,0l-3,0.7l-2.2,1.5l-0.7,0l-8.2,17.8l-1.5,1.5l-3,1.5l-3.7,0.7l-0.7,0l-2.2,2.2l-4.5,6.7l-4.5,7.4l-5.9,5.9l-20,29.7l-8.2,8.9l-7.4,4.5l-1.5,0l-0.7,-0.7l-1.5,0l-0.7,-0.7l0,-0.7l-6.7,-28.9l2.2,-10.4l-0.7,-28.2l0.7,-8.2l3.7,-7.4l5.2,-1.5l7.4,-2.2l6.7,-5.2l6.7,-6.7l2.2,-6.7l-3,-4.5l-2.2,-0.7l-8.2,0l-9.6,-2.2l-5.2,-3l-1.5,-2.2l-1.5,-4.5l0,-2.2l2.2,-8.9l0.7,-7.4l0,-16.3l1.5,-8.2l-0.7,-11.1l0,-20.8l-0.7,-19.3l-3,-10.4l-3,-7.4l-2.2,-2.2l-3.7,-0.7l-3,0.7l-6.7,5.2l-5.9,8.2l-5.2,46l-6.7,34.9l-10.4,28.9l-11.1,5.9l-2.2,0l-2.2,-1.5l-3.7,-0.7l0,-0.7l-336.8,31.2l-11.9,2.2l-22.3,3.7l-7.4,-0.7l-3,-0.7l-0.7,-0.7l8.9,-106.8l5.2,-4.5l138.7,-23l79.4,-1.5l34.1,4.5l25.2,6.7l2.2,3l0,3l-46,28.9l-31.2,11.9l0,5.9l3.7,-1.5l8.9,0l5.2,-0.7l10.4,-5.2l3.7,-1.5l2.2,-1.5l6.7,-2.2l20,-7.4l13.4,-7.4l6.7,-5.9l14.8,-13.4l3.7,-5.9l1.5,-7.4l-0.7,-7.4l-27.5,-9.6l-28.2,-6.7l-48.2,-2.2l-149.1,14.8l-55.6,1.5l-0.7,-11.9l2.2,-21.5l1.5,-21.5l-2.2,-11.1l-3.7,-8.2l-3.7,-0.7l-4.5,0l-0.7,-0.7l-5.2,3l-3.7,3.7l-2.2,3.7l0,1.5l-3,74.9l-24.5,8.2l-103.9,17.8l-43.8,11.1l-28.2,12.6l0.7,5.9l0.7,3l1.5,1.5l11.1,-2.2l66,-10.4l47.5,-9.6l4.5,0l11.1,-2.2l24.5,-6.7l11.9,-1.5l6.7,0l4.5,0.7l9.6,3.7l-11.9,109.8l-20,4.5l-1.5,0l-17.8,2.2l-1.5,0l-14.8,3l-4.5,1.5l-8.2,3l-11.9,1.5l-2.2,0l-4.5,0.7l-2.2,0l-12.6,2.2l-7.4,2.2l-8.2,5.9l-3,3l-0.7,3l-0.7,5.2l0.7,2.2l2.2,0.7l10.4,0.7l18.5,-1.5l46,-10.4l10.4,-1.5l7.4,-0.7l10.4,0l12.6,2.2l-8.9,48.2l-8.9,22.3l-3.7,6.7l-7.4,10.4l-13.4,2.2l-6.7,-0.7l-14.1,-0.7l-12.6,0l-7.4,2.2l-4.5,3l-3,3l-2.2,4.5l3.7,11.1l3,6.7l3,2.2l2.2,1.5l5.2,2.2l22.3,8.9l48.2,10.4l118,5.9l42.3,-3.7l65.3,-10.4l42.3,-12.6l21.5,-8.9l8.2,-10.4l-0.7,-3l0,-5.9l-23,8.9l-82.4,17.8l-99.4,5.2l-17.1,-3.7l-49.7,-2.2l-13.4,-1.5l-10.4,-2.2l-15.6,-5.9l-3,-1.5l-0.7,-3.7l0,-5.2l1.5,-1.5l0.7,-1.5l5.9,-3.7l5.2,-5.2l3.7,-5.2l8.2,-11.9l5.2,-14.1l12.6,-49l5.9,-17.8l104.6,-21.5l179.5,-17.8l8.9,-1.5l8.9,0l2.2,-0.7l40.8,0l14.1,-1.5l5.9,0.7l10.4,3l2.2,3l0.7,1.5l-28.9,31.9l-7.4,14.8l-11.1,37.1l-1.5,9.6l0,7.4l0.7,6.7l2.2,6.7l3.7,5.9l0.7,1.5l3,0.7l2.2,0l17.1,-14.1l6.7,-6.7l4.5,-5.2l5.9,-9.6l26,-57.9l11.9,-23.7l8.9,-11.1l5.9,93.5l2.2,8.2l4.5,11.9l5.9,11.1l4.5,5.9l4.5,-1.5l8.2,-4.5l3.7,-3l50.5,-72l1.5,1.5l0.7,0l0.7,-3l0.7,-0.7l0.7,2.2l-1.5,72l0.7,3l2.2,4.5l4.5,3l1.5,0.7l11.9,-4.5l8.2,-5.2l4.5,-5.2l2.2,-5.2l3,-2.2l25.2,-28.2l15.6,-21.5l3,-4.5l4.5,-3.7l2.2,-0.7l2.2,0.7l1.5,3l0,8.9l0.7,7.4l5.9,32.6l3,5.9l4.5,5.2l6.7,7.4l5.9,2.2l3,0.7l2.2,0l3.7,-0.7l5.2,-1.5l5.2,-3.7l7.4,-5.2l7.4,-3.7l5.2,-3.7l9.6,-9.6l10.4,-14.8l9.6,-19.3l11.1,-39.3l66.8,-8.2l-1.5,5.2l-5.2,11.9l-15.6,20.8l-5.9,8.2l-3,7.4l-1.5,6.7l-1.5,12.6l0,6.7l0.7,5.2l3.7,4.5l5.2,3.7l4.5,0l4.5,-1.5l3.7,-1.5l1.5,-1.5l4.5,-2.2l33.4,-25.2l7.4,-3.7l5.9,-0.7l1.5,31.9l3,2.2l0.7,0.7l5.9,-0.7l8.2,-3.7l4.5,-3l5.2,-5.2l4.5,-6.7l11.9,-20l4.5,-5.9l6.7,-6.7l7.4,-3l8.9,65.3l1.5,0.7l3,0l4.5,-1.5l5.2,-3l1.5,-1.5l16.3,-66l8.9,-25.2l10.4,-17.8l5.2,-6.7l9.6,-8.2l19.3,11.1l0.7,3.7l0,3.7l-2.2,6.7l-3.7,6.7l-11.1,36.4l-3.7,20.8l0.7,17.1l2.2,8.2l3,8.2l2.2,1.5l3.7,0l5.2,-1.5l5.2,-2.2l8.2,-5.9l3.7,-3.7l5.9,-8.2l8.9,-17.1l10.4,-31.2l5.2,-39.3l-1.5,-41.5l-10.4,-46.7l-20,-43l-23,-31.9l-5.2,-10.4l-1.5,-8.2l1.5,-3.7l1.5,-3l6.7,-3l8.2,-3l4.5,-1.5l15.6,-1.5l11.9,0l8.9,0.7l12.6,1.5l4.5,0l17.1,9.6l16.3,11.9l6.7,5.9l11.1,11.9l7.4,11.1l5.2,9.6l5.9,17.1l7.4,30.4l5.9,47.5l0.7,48.2l3,31.9l-20.8,126.9l-132.8,31.9l-3,1.5l-4.5,3l-2.2,3l-0.7,1.5l-0.7,3.7l0,4.5l1.5,1.5l1.5,0.7l123.9,15.6l0,5.9l-0.7,2.2l-0.7,0.7l-3.7,0l1.5,5.2l0,4.5l-1.5,4.5l-6.7,13.4l-3.7,9.6l-3,7.4l-17.8,33.4l-31.9,43.8l-55.6,53.4l-54.9,38.6l-31.9,17.8l-42.3,9.6l-14.1,1.5l-11.9,0l-8.9,-1.5l-12.6,-3.7l-3,-1.5l-5.9,-1.5l-25.2,-14.1l-17.8,-14.8l-23,-25.2l-15.6,-23.7l-20,-42.3l-5.2,-16.3l-0.7,4.5l2.2,8.2l1.5,8.2l2.2,9.6l13.4,37.1l12.6,24.5l7.4,11.1l18.5,20l14.1,11.9l12.6,7.4l13.4,6.7l13.4,4.5l9.6,2.2l18.5,2.2Zm-450.3,-425.1l9.6,-36.4l17.8,-14.1l-14.1,26l0,3.7l-3,7.4l-2.2,3l-8.2,10.4Zm864.3,-14.1l-3.7,-3.7l-2.2,-6.7l-0.7,-5.2l1.5,-30.4l3,-5.9l1.5,-6.7l1.5,-3.7l4.5,2.2l6.7,3.7l2.2,3l3.7,6.7l3.7,13.4l0.7,4.5l-0.7,10.4l-2.2,4.5l-1.5,3.7l-6.7,6.7l-11.1,3.7Zm686.3,54.2l3.7,0l5.2,-1.5l8.2,-4.5l6.7,-8.2l6.7,-10.4l2.2,-8.9l0.7,-6.7l0,-7.4l-0.7,-6.7l-4.5,-15.6l-3,-6.7l-8.9,-16.3l-34.1,6.7l-5.9,-13.4l-7.4,-11.1l-7.4,-8.2l-8.2,-5.9l-24.5,-3.7l-13.4,0l-6.7,1.5l-6.7,3l-1.5,0.7l-3,3.7l-1.5,2.2l-0.7,4.5l0,1.5l0.7,3l1.5,3l3.7,4.5l8.2,4.5l5.2,11.1l-10.4,19.3l-14.8,9.6l-4.5,0l-1.5,-0.7l-5.2,-8.9l-3,-6.7l-0.7,-6.7l0.7,-7.4l6.7,-31.9l0.7,-7.4l0,-7.4l-3,-0.7l-4.5,0l-3.7,2.2l-5.9,5.2l-18.5,26.7l-5.2,5.2l-6.7,3.7l-3.7,0.7l-2.2,-12.6l-0.7,-12.6l1.5,-21.5l19.3,-92.7l3.7,-14.8l3.7,-9.6l4.5,-7.4l4.5,-3.7l3.7,-1.5l89.8,-11.1l1.5,0.7l0,1.5l1.5,3l-1.5,3.7l-0.7,8.9l0.7,4.5l3,7.4l3,4.5l7.4,6.7l7.4,4.5l8.2,3.7l5.9,3l18.5,4.5l3,0.7l11.1,0l6.7,-1.5l10.4,-3l5.9,-2.2l5.9,-3l11.1,-9.6l7.4,-9.6l2.2,-28.2l2.2,-0.7l6.7,0l3.7,-1.5l0.7,-1.5l0.7,-3l0,-3l-3.7,-4.5l-1.5,-3.7l-20,-6.7l-13.4,-2.2l-34.1,-1.5l-110.5,17.8l-34.9,1.5l-5.9,-0.7l-1.5,-1.5l0,-4.5l-0.7,-1.5l-11.1,-1.5l-1.5,0.7l-3.7,3l-6.7,11.1l-40.1,14.8l-2.2,3l-0.7,2.2l0,0.7l0.7,1.5l26,-1.5l0.7,1.5l1.5,3.7l-15.6,26l-5.9,11.9l-5.2,6.7l-49.7,80.9l-12.6,17.1l-8.9,8.2l-2.2,0l-2.2,-1.5l-1.5,-1.5l-2.2,-1.5l-0.7,-1.5l-0.7,-2.2l-0.7,-3.7l-10.4,-4.5l-2.2,2.2l-6.7,4.5l-5.2,5.2l-0.7,1.5l-28.2,33.4l-3,0l-2.2,-0.7l-0.7,-0.7l-8.9,-42.3l-1.5,0l-1.5,-0.7l-2.2,0l-4.5,0.7l-5.9,2.2l-5.2,3.7l-7.4,6.7l-8.2,10.4l-1.5,2.2l-11.1,4.5l-11.9,-33.4l-2.2,-1.5l-3.7,-1.5l-2.2,0l-4.5,1.5l-9.6,3.7l-3,2.2l-12.6,10.4l-20.8,23l-1.5,1.5l-6.7,3l-2.2,0l-1.5,-0.7l-1.5,-1.5l-0.7,-3l-2.2,-28.2l-1.5,-1.5l-4.5,-6.7l-8.9,-5.9l-7.4,-2.2l-1.5,0l-6.7,0.7l-1.5,0.7l-43,34.9l-3,-0.7l-3,-3l0,-2.2l50.5,-248.5l-1.5,-4.5l-0.7,-1.5l-2.2,-2.2l-5.2,0l-0.7,-0.7l-2.2,0.7l-3,1.5l-3,2.2l-2.2,2.2l-3.7,16.3l-8.2,22.3l-11.9,21.5l-23.7,32.6l-58.6,58.6l-48.2,54.9l-18.5,9.6l-9.6,42.3l-4.5,28.2l0.7,19.3l0.7,4.5l2.2,6.7l3,6.7l2.2,2.2l5.9,3l4.5,-0.7l8.2,-1.5l12.6,-5.2l8.2,-5.2l8.2,-7.4l3.7,-4.5l4.5,-7.4l3.7,-3l5.9,-2.2l3,-3l3,-8.9l1.5,-5.2l0.7,-5.9l-0.7,-14.1l-1.5,-5.2l-4.5,-14.1l-5.9,-10.4l-14.1,-20l14.8,-23l2.2,-1.5l11.1,-8.9l8.9,-10.4l6.7,-8.9l7.4,-5.9l17.8,-18.5l18.5,-22.3l14.8,-16.3l12.6,-8.9l-3.7,28.9l-33.4,143.2l-0.7,20.8l0.7,14.1l2.2,14.1l1.5,6.7l0.7,0.7l4.5,0l3,-0.7l2.2,-1.5l7.4,-6.7l34.1,-48.2l11.1,-6.7l3,1.5l2.2,1.5l3.7,3.7l3.7,5.2l2.2,60.8l0.7,1.5l3,0.7l2.2,0l68.3,-63.1l7.4,57.9l4.5,0l7.4,-3.7l8.2,-5.9l16.3,-23.7l6.7,-7.4l5.2,-3.7l0.7,2.2l1.5,-0.7l1.5,-1.5l0.7,0.7l10.4,43.8l4.5,-0.7l8.2,-3.7l9.6,-5.2l17.8,-15.6l3,-3l11.1,-10.4l3.7,0l3,0.7l3,8.9l-2.2,8.9l-1.5,15.6l0.7,8.9l2.2,7.4l3.7,5.2l0.7,1.5l0.7,0.7l3,1.5l0.7,0l3,-1.5l5.9,-3.7l5.2,-5.2l1.5,-2.2l3,-6.7l2.2,-6.7l0,-29.7l37.8,-59.4l37.8,-57.1l12.6,-14.1l-20.8,120.2l0.7,39.3l2.2,2.2l1.5,0.7l7.4,-1.5l6.7,-3.7l5.9,-5.2l11.1,-14.1l4.5,-5.2l5.9,-3.7l3,-0.7l2.2,-0.7l2.2,7.4l0.7,5.9l0,7.4l0.7,7.4l3,6.7l0.7,3l4.5,3l3.7,2.2l5.2,1.5l5.2,0l8.9,-5.2l1.5,-0.7l11.1,-7.4l11.9,-8.2l9.6,-8.9l8.2,-8.2l3,-5.9l1.5,-5.9l0.7,-5.2l-0.7,-17.8l1.5,-1.5l1.5,-0.7l2.2,0l0.7,1.5l9.6,9.6l3.7,10.4l1.5,9.6l0,8.9l-0.7,11.1l-3.7,17.8l3,8.2l5.9,0l4.5,-0.7l3,-1.5l5.9,-5.2l3,-3.7l9.6,-17.1l5.9,-8.2l5.9,2.2l17.8,37.1l-3.7,8.2l-1.5,2.2l-1.5,0.7l-2.2,1.5l-3.7,0.7l-3.7,1.5l-1.5,1.5l0,1.5l0.7,3l2.2,3l1.5,0l1.5,0.7Zm21.5,-244.8l-10.4,-3l-14.8,-5.2l-2.2,-2.2l-2.2,-0.7l-3.7,-3.7l-1.5,-2.2l-3,-5.2l-0.7,-3l0,-1.5l1.5,-3l3.7,-1.5l51.9,10.4l3.7,4.5l0.7,2.2l0.7,1.5l2.2,1.5l-0.7,1.5l0,1.5l-0.7,3l-7.4,3.7l-8.2,1.5l-8.9,0Z" style="fill:#fff;fill-rule:nonzero;"/><clipPath id="_clip1"><rect x="9450.1" y="5100.6" width="866.1" height="447.5"/></clipPath><g clip-path="url(#_clip1)"><g><g><g><g><path d="M9679.4,5238.2c3.2,105.8 4.2,163.6 -13.8,163.6c-27.6,0 -22.3,-137.5 -22.3,-151.9l-51.5,-11.8c-0.8,17.1 -5.1,66.9 0.7,111.4c-10.9,26.1 -26.2,52.3 -44.8,52.3c-24.4,0 -35.6,-47.6 -36.6,-102.3c-1.1,-59.8 10.6,-127.8 32.4,-148.8c10.1,16.4 17.5,79.3 17.5,91.5c58.4,-7.2 48.8,-118.1 -14.9,-118.1c-55.2,0 -97.6,89.5 -96,173.3c1.1,66.5 26.5,131.4 87.6,131.4c31.3,0 49.8,-22.5 61.5,-47.1c8.2,27.1 23,47.1 48.9,47.1c23.9,0 36.6,-14.3 43.5,-29.7c-3.7,36.3 -13.8,102.3 -37.1,129.9c-12.7,-21 -21.8,-51.1 -26.5,-83.3c-17,-1.5 -31.3,18.9 -31.3,44.5c0,26.6 17,52.7 47.8,57.3c2.7,0.5 5.3,0.5 8.5,0.5c89.7,0 86,-211.7 79.6,-298.1l-53.1,-11.8Z" style="fill:#9f9f9f;fill-rule:nonzero;"/></g><g><path d="M10083.7,5400.3c-8.5,0 -13.3,-22 -13.3,-48.1c0,-38.9 10.6,-87.4 35,-87.4c5.3,0 11.1,1.5 17,5.1l0.6,-1.5c-9.5,105.2 -32.7,131.9 -39.4,131.9m-145.9,-59.3c0.5,-30.7 13.8,-68 28.1,-84.9c10.1,11.2 15.4,88.3 -25.8,106.3c-1.9,-8.3 -2.5,-16.1 -2.3,-21.4m332.2,-197.9c15.9,49.7 1.6,128.5 -39.4,164.5c2.6,-56 17.3,-123.2 39.4,-164.5m-17,257.2c-14.5,0 -22.5,-33.2 -22.8,-72.9c55.5,-23 86,-96 86,-149.5c0,-44.5 -18,-60.8 -43,-60.8c-51.5,0 -88.1,108.4 -88.1,197.4c0,19.4 1.7,37.8 5.5,53.9c-5.9,20.5 -12.6,32 -19.3,32c-9,0 -13.8,-14.3 -13.8,-35.8c0,-33.2 8,-83.9 15.9,-119.1l-47.8,-13.8c-0.4,8.1 -0.9,15.8 -1.4,23.2c-8.7,-8.8 -23.5,-16 -36.2,-16c-39.8,0 -63.1,58.3 -63.1,110.4c0,0.6 0,1.2 0,1.8c-8.4,23.7 -29.2,50.3 -51,50.3c-14.6,0 -23.9,-11.3 -29.3,-24.7c46.9,-8.8 71.3,-48.4 71.3,-84.7c0,-29.1 -14.8,-51.7 -44.8,-54c-8.6,-0.7 -16.4,0.4 -23.4,2.7c-35.9,11.9 -55,58 -55.9,99.9c-1.1,46.5 21.8,87.9 63.7,87.9c39.1,0 62.2,-28.6 73,-46.1c5.9,25.7 19.6,45 42.7,45c27.6,0 40.3,-26.6 47.2,-45.5c4.2,29.1 21.8,45.5 40.9,45.5c19.1,0 32.1,-13.9 40.4,-32.9c9.7,20.2 24.6,32.9 45.6,32.9c47.8,0 60.5,-68.5 69,-120.7l-15.9,-3.1c-15.4,67 -31.3,96.6 -45.1,96.6" style="fill:#9f9f9f;fill-rule:nonzero;"/></g><g><path d="M9802.2,5309.5l-0.7,-59.6l-50.9,-11.8c6.9,44.5 11.1,121.7 8.5,184.1l43,10.7c1.4,-95.8 19.8,-125.4 39.8,-159.8c-3.7,30.3 -3.5,70.4 32.9,72.9c1.6,-46.5 10.6,-77.2 18,-101.2c-46.4,-17.1 -74.4,21.7 -90.5,64.7" style="fill:#9f9f9f;fill-rule:nonzero;"/></g></g></g></g></g><g><path d="M8546.3,5301.4l10,0l0,10.5l0.5,0c4.2,-8 10.8,-12 19.9,-12c7.9,0 14.1,3 18.6,8.9c4.5,5.9 6.7,14.2 6.7,24.9c0,10.7 -2.2,19 -6.7,24.9c-4.5,5.9 -10.6,8.9 -18.6,8.9c-9.1,0 -15.7,-4 -19.9,-12l-0.5,0l0,35.5l-10,0l0,-89.5Zm26.5,57.1c5.8,0 10.4,-1.8 13.6,-5.3c3.2,-3.5 4.8,-8.2 4.8,-14.1l0,-11c0,-5.8 -1.6,-10.5 -4.8,-14.1c-3.2,-3.5 -7.7,-5.3 -13.6,-5.3c-2.2,0 -4.4,0.3 -6.4,0.9c-2,0.6 -3.8,1.4 -5.2,2.6c-1.5,1.1 -2.7,2.5 -3.6,4.1c-0.9,1.6 -1.3,3.5 -1.3,5.7l0,23.2c0,2.2 0.4,4.1 1.3,5.7c0.9,1.6 2.1,3 3.6,4.1c1.5,1.1 3.2,2 5.2,2.6c2,0.6 4.1,0.9 6.4,0.9Z" style="fill:#fff;fill-rule:nonzero;"/><path d="M8619,5357.4l18.9,0l0,-47.5l-18.9,0l0,-8.5l28.9,0l0,16.2l0.6,0c1.3,-5.1 3.9,-9.1 7.6,-11.9c3.7,-2.9 8.4,-4.3 14.2,-4.3l9,0l0,10l-12.1,0c-5.8,0 -10.4,1.7 -13.9,5c-3.5,3.3 -5.3,7.7 -5.3,13.1l0,27.9l25,0l0,8.5l-53.9,0l0,-8.5Z" style="fill:#fff;fill-rule:nonzero;"/><path d="M8721.9,5367.4c-4.5,0 -8.6,-0.8 -12.2,-2.4c-3.6,-1.6 -6.7,-3.9 -9.2,-6.8c-2.5,-3 -4.5,-6.5 -5.8,-10.6c-1.3,-4.1 -2,-8.8 -2,-13.9c0,-5.1 0.7,-9.7 2,-13.9c1.3,-4.2 3.3,-7.7 5.8,-10.7c2.5,-3 5.6,-5.2 9.2,-6.8c3.6,-1.6 7.7,-2.4 12.2,-2.4c4.5,0 8.6,0.8 12.2,2.4c3.6,1.6 6.7,3.9 9.2,6.8c2.5,3 4.5,6.5 5.8,10.7c1.3,4.2 2,8.8 2,13.9c0,5.2 -0.7,9.8 -2,13.9c-1.3,4.1 -3.3,7.7 -5.8,10.6c-2.5,3 -5.6,5.2 -9.2,6.8c-3.6,1.6 -7.7,2.4 -12.2,2.4Zm0,-8.6c5.6,0 10.1,-1.7 13.5,-5c3.4,-3.3 5.1,-8.5 5.1,-15.5l0,-9.2c0,-7 -1.7,-12.2 -5.1,-15.5c-3.4,-3.3 -7.9,-5 -13.5,-5c-5.6,0 -10.1,1.7 -13.5,5c-3.4,3.3 -5.1,8.5 -5.1,15.5l0,9.2c0,7 1.7,12.2 5.1,15.5c3.4,3.3 7.9,5 13.5,5Z" style="fill:#fff;fill-rule:nonzero;"/><path d="M8772.1,5382.4l31.2,0l0,-72.5l-32.4,0l0,-8.5l42.4,0l0,74.8c0,4.3 -1.1,7.9 -3.4,10.6c-2.3,2.8 -5.9,4.1 -10.8,4.1l-27,0l0,-8.5Zm36.2,-95.3c-2.9,0 -5,-0.6 -6.1,-1.8c-1.2,-1.2 -1.8,-2.7 -1.8,-4.6l0,-2c0,-1.8 0.6,-3.4 1.8,-4.6c1.2,-1.2 3.2,-1.8 6.1,-1.8c2.9,0 5,0.6 6.1,1.8c1.2,1.2 1.8,2.7 1.8,4.6l0,2c0,1.8 -0.6,3.4 -1.8,4.6c-1.2,1.2 -3.2,1.8 -6.1,1.8Z" style="fill:#fff;fill-rule:nonzero;"/><path d="M8873,5367.4c-4.7,0 -8.9,-0.8 -12.6,-2.4c-3.7,-1.6 -6.9,-3.9 -9.5,-6.8c-2.6,-3 -4.6,-6.5 -6.1,-10.6c-1.4,-4.1 -2.1,-8.7 -2.1,-13.8c0,-5.2 0.7,-9.8 2.2,-14c1.5,-4.2 3.5,-7.7 6.1,-10.7c2.6,-3 5.7,-5.2 9.3,-6.8c3.6,-1.6 7.6,-2.4 12.1,-2.4c4.3,0 8.3,0.8 11.8,2.4c3.5,1.6 6.6,3.8 9.1,6.6c2.5,2.8 4.4,6.1 5.8,9.9c1.3,3.8 2,8 2,12.6l0,4.8l-47.8,0l0,3c0,2.8 0.5,5.5 1.4,7.9c0.9,2.4 2.2,4.5 3.9,6.2c1.7,1.8 3.8,3.1 6.2,4.1c2.5,1 5.2,1.4 8.2,1.4c4.3,0 8.1,-1 11.2,-3c3.2,-2 5.6,-4.8 7.2,-8.2l7.4,5c-1.9,4.3 -5.1,7.9 -9.6,10.7c-4.5,2.8 -9.9,4.2 -16.3,4.2Zm-0.6,-59.2c-2.7,0 -5.3,0.5 -7.6,1.5c-2.3,1 -4.4,2.4 -6.1,4.1c-1.7,1.8 -3,3.8 -4,6.2c-1,2.4 -1.4,5 -1.4,7.8l0,0.9l37,0l0,-1.4c0,-2.8 -0.4,-5.4 -1.3,-7.8c-0.9,-2.3 -2.1,-4.4 -3.6,-6.1c-1.5,-1.7 -3.4,-3 -5.6,-3.9c-2.2,-0.9 -4.6,-1.4 -7.3,-1.4Z" style="fill:#fff;fill-rule:nonzero;"/><path d="M8949.1,5367.4c-4.7,0 -8.8,-0.8 -12.4,-2.4c-3.6,-1.6 -6.7,-3.9 -9.2,-6.8c-2.5,-2.9 -4.4,-6.5 -5.7,-10.6c-1.3,-4.2 -1.9,-8.8 -1.9,-13.9c0,-5.1 0.7,-9.7 2,-13.9c1.3,-4.2 3.2,-7.7 5.8,-10.7c2.5,-3 5.5,-5.2 9.1,-6.8c3.6,-1.6 7.7,-2.4 12.2,-2.4c6.2,0 11.3,1.4 15.2,4.1c3.9,2.8 6.8,6.3 8.6,10.8l-8,4.2c-1.2,-3.3 -3.1,-5.9 -5.8,-7.8c-2.7,-1.8 -6.1,-2.8 -10.1,-2.8c-2.9,0 -5.5,0.5 -7.8,1.4c-2.3,1 -4.2,2.3 -5.8,4.1c-1.6,1.8 -2.8,3.8 -3.6,6.2c-0.8,2.4 -1.2,5 -1.2,7.9l0,11c0,2.8 0.4,5.5 1.2,7.9c0.8,2.4 2,4.5 3.6,6.2c1.6,1.8 3.5,3.1 5.9,4.1c2.3,1 5,1.4 8,1.4c4.3,0 7.9,-1 10.8,-3c2.8,-2 5.1,-4.8 6.8,-8.2l7.1,4.9c-1.9,4.3 -4.9,7.9 -8.9,10.7c-4,2.8 -9.3,4.3 -15.8,4.3Z" style="fill:#fff;fill-rule:nonzero;"/><path d="M9025,5365.9c-4.9,0 -8.5,-1.4 -10.8,-4.1c-2.3,-2.8 -3.4,-6.3 -3.4,-10.6l0,-41.2l-21.5,0l0,-8.5l16,0c2.2,0 3.7,-0.4 4.6,-1.3c0.9,-0.9 1.3,-2.4 1.3,-4.6l0,-16.9l9.6,0l0,22.8l29.4,0l0,8.5l-29.4,0l0,47.5l29.4,0l0,8.5l-25.1,0Z" style="fill:#fff;fill-rule:nonzero;"/><path d="M9146.3,5273.4l10,0l0,38.5l0.5,0c4.2,-8 10.8,-12 19.9,-12c7.9,0 14.1,3 18.6,8.9c4.5,5.9 6.7,14.2 6.7,24.9c0,10.7 -2.2,19 -6.7,24.9c-4.5,5.9 -10.6,8.9 -18.6,8.9c-9.1,0 -15.7,-4 -19.9,-12l-0.5,0l0,10.5l-10,0l0,-92.5Zm26.5,85.1c5.8,0 10.4,-1.8 13.6,-5.3c3.2,-3.5 4.8,-8.2 4.8,-14.1l0,-11c0,-5.8 -1.6,-10.5 -4.8,-14.1c-3.2,-3.5 -7.7,-5.3 -13.6,-5.3c-2.2,0 -4.4,0.3 -6.4,0.9c-2,0.6 -3.8,1.4 -5.2,2.6c-1.5,1.1 -2.7,2.5 -3.6,4.1c-0.9,1.6 -1.3,3.5 -1.3,5.7l0,23.2c0,2.2 0.4,4.1 1.3,5.7c0.9,1.6 2.1,3 3.6,4.1c1.5,1.1 3.2,2 5.2,2.6c2,0.6 4.1,0.9 6.4,0.9Z" style="fill:#fff;fill-rule:nonzero;"/><path d="M9267.8,5301.4l10,0l-32,78.6c-0.8,1.8 -1.6,3.4 -2.5,4.8c-0.9,1.4 -2,2.5 -3.2,3.4c-1.2,0.9 -2.8,1.5 -4.5,2c-1.8,0.5 -3.8,0.7 -6.2,0.7l-9.5,0l0,-8.5l15,0l7.2,-17.8l-26,-63.2l10.2,0l10.9,27l9.6,24.5l0.5,0l9.6,-24.5l10.9,-27Z" style="fill:#fff;fill-rule:nonzero;"/></g><g><path d="M4097,4935.4c-5.3,0 -9.9,-1 -13.8,-3.1c-3.8,-2 -7,-5 -9.5,-8.8c-2.5,-3.8 -4.3,-8.5 -5.5,-14.1c-1.2,-5.6 -1.8,-12 -1.8,-19.1c0,-7.1 0.6,-13.4 1.8,-19.1c1.2,-5.6 3,-10.4 5.5,-14.2c2.5,-3.8 5.7,-6.8 9.5,-8.8c3.8,-2 8.4,-3.1 13.8,-3.1c5.3,0 9.9,1 13.8,3.1c3.8,2 7,5 9.5,8.8c2.5,3.8 4.3,8.6 5.5,14.2c1.2,5.6 1.8,12 1.8,19.1c0,7.2 -0.6,13.5 -1.8,19.1c-1.2,5.6 -3,10.3 -5.5,14.1c-2.5,3.8 -5.7,6.8 -9.5,8.8c-3.8,2 -8.4,3.1 -13.8,3.1Zm0,-9.1c3.5,0 6.5,-0.7 8.9,-2.1c2.4,-1.4 4.4,-3.3 6,-5.8c1.6,-2.5 2.7,-5.5 3.4,-9.1c0.7,-3.5 1.1,-7.5 1.1,-11.9l0,-14.2c0,-4.3 -0.4,-8.3 -1.1,-11.9c-0.7,-3.6 -1.9,-6.6 -3.4,-9.1c-1.6,-2.5 -3.6,-4.4 -6,-5.8c-2.4,-1.4 -5.4,-2.1 -8.9,-2.1c-3.5,0 -6.5,0.7 -8.9,2.1c-2.4,1.4 -4.4,3.3 -6,5.8c-1.6,2.5 -2.7,5.5 -3.4,9.1c-0.7,3.6 -1.1,7.5 -1.1,11.9l0,14.2c0,4.4 0.4,8.4 1.1,11.9c0.7,3.5 1.9,6.6 3.4,9.1c1.6,2.5 3.6,4.4 6,5.8c2.4,1.4 5.4,2.1 8.9,2.1Z" style="fill:#fff;fill-rule:nonzero;"/><path d="M4144.1,4925.4l18.9,0l0,-47.5l-18.9,0l0,-8.5l28.9,0l0,16.2l0.6,0c1.3,-5.1 3.9,-9.1 7.6,-11.9c3.7,-2.9 8.4,-4.3 14.2,-4.3l9,0l0,10l-12.1,0c-5.8,0 -10.4,1.7 -13.9,5c-3.5,3.3 -5.3,7.7 -5.3,13.1l0,27.9l25,0l0,8.5l-53.9,0l0,-8.5Z" style="fill:#fff;fill-rule:nonzero;"/><path d="M4251,4855.2c-2.9,0 -5,-0.6 -6.1,-1.8c-1.2,-1.2 -1.8,-2.7 -1.8,-4.6l0,-2c0,-1.8 0.6,-3.4 1.8,-4.6c1.2,-1.2 3.2,-1.8 6.1,-1.8c2.9,0 5,0.6 6.1,1.8c1.2,1.2 1.8,2.7 1.8,4.6l0,2c0,1.8 -0.6,3.4 -1.8,4.6c-1.2,1.2 -3.2,1.8 -6.1,1.8Zm-28.3,70.2l23.3,0l0,-47.5l-23.3,0l0,-8.5l33.3,0l0,56l21.8,0l0,8.5l-55,0l0,-8.5Z" style="fill:#fff;fill-rule:nonzero;"/><path d="M4354.6,4941.3c0,6.5 -2.7,11.3 -8.1,14.4c-5.4,3.1 -13.5,4.7 -24.4,4.7c-10.4,0 -17.9,-1.4 -22.4,-4.1c-4.5,-2.8 -6.8,-6.7 -6.8,-11.9c0,-3.5 0.9,-6.2 2.8,-8.1c1.8,-1.9 4.4,-3.3 7.8,-4.2l0,-1.5c-1.8,-0.9 -3.3,-2.1 -4.2,-3.5c-1,-1.4 -1.5,-3.2 -1.5,-5.4c0,-3.3 1.1,-5.8 3.3,-7.5c2.2,-1.7 5,-2.9 8.3,-3.8l0,-0.5c-4,-1.8 -7.1,-4.3 -9.3,-7.8c-2.2,-3.4 -3.3,-7.4 -3.3,-12c0,-3.2 0.6,-6.2 1.7,-9c1.2,-2.8 2.9,-5.1 5.1,-7.1c2.2,-2 4.9,-3.5 7.9,-4.6c3.1,-1.1 6.5,-1.6 10.2,-1.6c4.8,0 9.1,0.9 12.8,2.6l0,-1.1c0,-2.5 0.6,-4.6 1.8,-6.2c1.2,-1.7 3.2,-2.5 6,-2.5l11.9,0l0,8.8l-14.5,0l0,4.4c2.3,2 4.1,4.4 5.4,7.1c1.3,2.8 1.9,5.8 1.9,9.2c0,3.2 -0.6,6.2 -1.8,9c-1.2,2.8 -2.9,5.1 -5.1,7.1c-2.2,2 -4.8,3.5 -7.9,4.6c-3.1,1.1 -6.6,1.6 -10.3,1.6c-1.1,0 -2.1,-0 -3.1,-0.1c-1,-0.1 -2,-0.2 -3,-0.4c-1,0.2 -2,0.4 -3.1,0.8c-1.1,0.4 -2.1,0.9 -3,1.5c-0.9,0.6 -1.7,1.4 -2.2,2.2c-0.6,0.8 -0.9,1.8 -0.9,2.9c0,1.9 1,3.2 2.9,3.8c1.9,0.6 4.4,0.9 7.5,0.9l14.2,0c8.3,0 14.4,1.6 18.1,4.7c3.8,3.1 5.6,7.3 5.6,12.6Zm-9.4,0.5c0,-2.6 -1,-4.6 -3.1,-6.2c-2.1,-1.5 -5.7,-2.3 -10.9,-2.3l-22.4,0c-4.3,1.8 -6.5,4.7 -6.5,8.8c0,2.8 1.1,5.3 3.4,7.3c2.2,2 6,3.1 11.2,3.1l9.8,0c5.8,0 10.4,-0.9 13.6,-2.7c3.2,-1.8 4.9,-4.4 4.9,-7.9Zm-23.6,-37.1c5,0 8.7,-1.2 11.1,-3.5c2.4,-2.3 3.6,-5.4 3.6,-9.2l0,-3.6c0,-3.8 -1.2,-6.9 -3.6,-9.2c-2.4,-2.3 -6.1,-3.4 -11.1,-3.4c-5,0 -8.7,1.1 -11,3.4c-2.3,2.3 -3.5,5.4 -3.5,9.2l0,3.6c0,3.8 1.2,6.9 3.5,9.2c2.3,2.3 6,3.5 11,3.5Z" style="fill:#fff;fill-rule:nonzero;"/><path d="M4401,4855.2c-2.9,0 -5,-0.6 -6.1,-1.8c-1.2,-1.2 -1.8,-2.7 -1.8,-4.6l0,-2c0,-1.8 0.6,-3.4 1.8,-4.6c1.2,-1.2 3.2,-1.8 6.1,-1.8c2.9,0 5,0.6 6.1,1.8c1.2,1.2 1.8,2.7 1.8,4.6l0,2c0,1.8 -0.6,3.4 -1.8,4.6c-1.2,1.2 -3.2,1.8 -6.1,1.8Zm-28.2,70.2l23.2,0l0,-47.5l-23.2,0l0,-8.5l33.2,0l0,56l21.8,0l0,8.5l-55,0l0,-8.5Z" style="fill:#fff;fill-rule:nonzero;"/><path d="M4446.7,4933.9l0,-64.5l10,0l0,10.5l0.5,0c0.7,-1.6 1.5,-3.1 2.5,-4.6c1,-1.5 2.2,-2.7 3.7,-3.8c1.5,-1.1 3.2,-2 5.2,-2.6c2,-0.7 4.3,-1 7,-1c6.8,0 12.2,2.1 16.2,6.4c4.1,4.3 6.1,10.4 6.1,18.2l0,41.4l-10,0l0,-39.6c0,-5.9 -1.3,-10.3 -3.9,-13.2c-2.6,-2.9 -6.4,-4.3 -11.4,-4.3c-2,0 -4,0.2 -5.9,0.8c-1.9,0.5 -3.6,1.2 -5.1,2.2c-1.5,1 -2.7,2.3 -3.6,3.9c-0.9,1.6 -1.4,3.4 -1.4,5.5l0,44.8l-10,0Z" style="fill:#fff;fill-rule:nonzero;"/><path d="M4571.4,4933.9c-3.9,0 -6.7,-1 -8.4,-3c-1.7,-2 -2.7,-4.5 -3.1,-7.5l-0.6,0c-1.4,3.8 -3.7,6.7 -6.8,8.8c-3.1,2.1 -7.3,3.2 -12.6,3.2c-6.8,0 -12.1,-1.8 -16.1,-5.2c-4,-3.5 -6,-8.3 -6,-14.4c0,-6 2.2,-10.6 6.6,-13.9c4.4,-3.2 11.4,-4.9 21.2,-4.9l13.8,0l0,-6.4c0,-4.8 -1.3,-8.3 -4,-10.7c-2.7,-2.4 -6.5,-3.6 -11.4,-3.6c-4.3,0 -7.9,0.9 -10.6,2.6c-2.7,1.7 -5,4 -6.6,6.9l-6.8,-5c0.8,-1.7 2,-3.3 3.4,-4.9c1.4,-1.6 3.2,-3 5.3,-4.2c2.1,-1.2 4.5,-2.2 7.1,-2.9c2.7,-0.7 5.6,-1.1 8.9,-1.1c7.6,0 13.6,1.9 18.1,5.8c4.5,3.8 6.7,9.2 6.7,16l0,35.5l9,0l0,8.8l-6.9,0Zm-29.8,-6.9c2.6,0 4.9,-0.3 7.1,-0.9c2.1,-0.6 4,-1.5 5.6,-2.5c1.6,-1 2.8,-2.3 3.7,-3.8c0.9,-1.5 1.3,-3 1.3,-4.7l0,-10.6l-13.8,0c-6,0 -10.4,0.8 -13.1,2.5c-2.8,1.7 -4.1,4.1 -4.1,7.2l0,2.6c0,3.3 1.2,5.9 3.6,7.6c2.4,1.7 5.6,2.6 9.8,2.6Z" style="fill:#fff;fill-rule:nonzero;"/><path d="M4594.5,4925.4l22.5,0l0,-75.5l-22.5,0l0,-8.5l32.5,0l0,84l22.5,0l0,8.5l-55,0l0,-8.5Z" style="fill:#fff;fill-rule:nonzero;"/><path d="M4777.2,4855.8l0,78.1l-10.5,0l0,-78.1l-29.1,0l0,-9.1l68.7,0l0,9.1l-29.1,0Z" style="fill:#fff;fill-rule:nonzero;"/><path d="M4867.9,4869.4l10,0l-32,78.6c-0.8,1.8 -1.6,3.4 -2.5,4.8c-0.9,1.4 -2,2.5 -3.3,3.4c-1.2,0.9 -2.7,1.5 -4.5,2c-1.8,0.5 -3.8,0.7 -6.2,0.7l-9.5,0l0,-8.5l15,0l7.2,-17.8l-26,-63.2l10.2,0l10.9,27l9.6,24.5l0.5,0l9.6,-24.5l10.9,-27Z" style="fill:#fff;fill-rule:nonzero;"/><path d="M4896.4,4869.4l10,0l0,10.5l0.5,0c4.2,-8 10.8,-12 19.9,-12c7.9,0 14.1,3 18.6,8.9c4.5,5.9 6.7,14.2 6.7,24.9c0,10.7 -2.2,19 -6.7,24.9c-4.5,5.9 -10.6,8.9 -18.6,8.9c-9.1,0 -15.7,-4 -19.9,-12l-0.5,0l0,35.5l-10,0l0,-89.5Zm26.5,57.1c5.8,0 10.4,-1.8 13.6,-5.3c3.2,-3.5 4.8,-8.2 4.8,-14.1l0,-11c0,-5.8 -1.6,-10.5 -4.8,-14.1c-3.2,-3.5 -7.7,-5.3 -13.6,-5.3c-2.2,0 -4.4,0.3 -6.4,0.9c-2,0.6 -3.8,1.4 -5.2,2.6c-1.5,1.1 -2.7,2.5 -3.6,4.1c-0.9,1.6 -1.3,3.5 -1.3,5.7l0,23.2c0,2.2 0.4,4.1 1.3,5.7c0.9,1.6 2.1,3 3.6,4.1c1.5,1.1 3.2,2 5.2,2.6c2,0.6 4.1,0.9 6.4,0.9Z" style="fill:#fff;fill-rule:nonzero;"/><path d="M4998.1,4935.4c-4.7,0 -8.9,-0.8 -12.6,-2.4c-3.7,-1.6 -6.9,-3.9 -9.5,-6.8c-2.6,-3 -4.6,-6.5 -6.1,-10.6c-1.4,-4.1 -2.1,-8.7 -2.1,-13.8c0,-5.2 0.7,-9.8 2.2,-14c1.5,-4.2 3.5,-7.7 6.1,-10.7c2.6,-3 5.7,-5.2 9.3,-6.8c3.6,-1.6 7.6,-2.4 12.1,-2.4c4.3,0 8.3,0.8 11.8,2.4c3.5,1.6 6.6,3.8 9.1,6.6c2.5,2.8 4.4,6.1 5.8,9.9c1.3,3.8 2,8 2,12.6l0,4.8l-47.8,0l0,3c0,2.8 0.5,5.5 1.4,7.9c0.9,2.4 2.2,4.5 3.9,6.2c1.7,1.8 3.8,3.1 6.2,4.1c2.5,1 5.2,1.4 8.2,1.4c4.3,0 8.1,-1 11.2,-3c3.2,-2 5.6,-4.8 7.2,-8.2l7.4,5c-1.9,4.3 -5.1,7.9 -9.6,10.7c-4.5,2.8 -9.9,4.2 -16.3,4.2Zm-0.6,-59.2c-2.7,0 -5.3,0.5 -7.6,1.5c-2.3,1 -4.4,2.4 -6.1,4.1c-1.7,1.8 -3,3.8 -4,6.2c-1,2.4 -1.4,5 -1.4,7.8l0,0.9l37,0l0,-1.4c0,-2.8 -0.4,-5.4 -1.3,-7.8c-0.9,-2.3 -2.1,-4.4 -3.6,-6.1c-1.5,-1.7 -3.4,-3 -5.6,-3.9c-2.2,-0.9 -4.6,-1.4 -7.3,-1.4Z" style="fill:#fff;fill-rule:nonzero;"/><path d="M5121.4,4841.4l10,0l0,38.5l0.5,0c4.2,-8 10.8,-12 19.9,-12c7.9,0 14.1,3 18.6,8.9c4.5,5.9 6.7,14.2 6.7,24.9c0,10.7 -2.2,19 -6.7,24.9c-4.5,5.9 -10.6,8.9 -18.6,8.9c-9.1,0 -15.7,-4 -19.9,-12l-0.5,0l0,10.5l-10,0l0,-92.5Zm26.5,85.1c5.8,0 10.4,-1.8 13.6,-5.3c3.2,-3.5 4.8,-8.2 4.8,-14.1l0,-11c0,-5.8 -1.6,-10.5 -4.8,-14.1c-3.2,-3.5 -7.7,-5.3 -13.6,-5.3c-2.2,0 -4.4,0.3 -6.4,0.9c-2,0.6 -3.8,1.4 -5.3,2.6c-1.5,1.1 -2.7,2.5 -3.6,4.1c-0.9,1.6 -1.3,3.5 -1.3,5.7l0,23.2c0,2.2 0.4,4.1 1.3,5.7c0.9,1.6 2.1,3 3.6,4.1c1.5,1.1 3.3,2 5.3,2.6c2,0.6 4.1,0.9 6.4,0.9Z" style="fill:#fff;fill-rule:nonzero;"/><path d="M5242.9,4869.4l10,0l-32,78.6c-0.8,1.8 -1.6,3.4 -2.5,4.8c-0.9,1.4 -2,2.5 -3.3,3.4c-1.2,0.9 -2.7,1.5 -4.5,2c-1.8,0.5 -3.8,0.7 -6.2,0.7l-9.5,0l0,-8.5l15,0l7.2,-17.8l-26,-63.2l10.2,0l10.9,27l9.6,24.5l0.5,0l9.6,-24.5l10.9,-27Z" style="fill:#fff;fill-rule:nonzero;"/></g><g><path d="M4070.1,5696.1l0,-9.1l25,0l0,-70.4l-0.9,0l-22,20.5l-6.1,-6.6l23.1,-21.6l16.4,0l0,78.1l23,0l0,9.1l-58.5,0Z" style="fill:#fff;fill-rule:nonzero;"/><path d="M4201.5,5640.8c0,6.5 -1,12.6 -2.9,18.3c-2,5.7 -4.5,10.9 -7.6,15.6c-3.1,4.7 -6.5,8.9 -10.2,12.5c-3.7,3.6 -7.4,6.6 -10.9,8.8l-13.5,0c4.8,-3.4 9,-6.8 12.7,-10c3.7,-3.2 7,-6.6 9.8,-10.2c2.8,-3.5 5.2,-7.3 7.1,-11.4c1.9,-4 3.5,-8.6 4.8,-13.7l-0.6,-0.2c-2.2,3.6 -4.9,6.6 -8.3,8.9c-3.4,2.4 -7.8,3.6 -13.2,3.6c-3.8,0 -7.4,-0.6 -10.6,-1.9c-3.2,-1.2 -6,-3 -8.2,-5.4c-2.3,-2.3 -4.1,-5.1 -5.4,-8.4c-1.3,-3.3 -1.9,-7 -1.9,-11.2c0,-4.2 0.7,-8.1 2.1,-11.7c1.4,-3.5 3.4,-6.6 5.9,-9.1c2.6,-2.5 5.7,-4.5 9.3,-5.9c3.6,-1.4 7.6,-2.1 12.1,-2.1c4.6,0 8.7,0.8 12.4,2.3c3.7,1.5 6.8,3.8 9.3,6.6c2.5,2.9 4.5,6.4 5.9,10.6c1.4,4.2 2.1,8.8 2.1,14Zm-29.5,13.6c6,0 10.6,-1.6 13.9,-4.9c3.3,-3.2 4.9,-7.8 4.9,-13.8l0,-1c0,-5.9 -1.6,-10.5 -4.9,-13.8c-3.3,-3.2 -7.9,-4.9 -13.9,-4.9c-6,0 -10.6,1.6 -13.9,4.9c-3.3,3.2 -4.9,7.8 -4.9,13.8l0,1c0,5.9 1.6,10.5 4.9,13.8c3.3,3.3 7.9,4.9 13.9,4.9Z" style="fill:#fff;fill-rule:nonzero;"/><path d="M4220.1,5696.1l0,-9.1l25,0l0,-70.4l-0.9,0l-22,20.5l-6.1,-6.6l23.1,-21.6l16.4,0l0,78.1l23,0l0,9.1l-58.5,0Z" style="fill:#fff;fill-rule:nonzero;"/><path d="M4322.1,5697.6c-4.6,0 -8.7,-0.8 -12.4,-2.3c-3.7,-1.5 -6.8,-3.8 -9.3,-6.6c-2.5,-2.9 -4.5,-6.4 -5.9,-10.6c-1.4,-4.2 -2.1,-8.8 -2.1,-14c0,-6.5 1,-12.6 2.9,-18.3c2,-5.7 4.5,-10.9 7.5,-15.6c3,-4.7 6.4,-8.9 10.2,-12.5c3.8,-3.6 7.4,-6.6 11,-8.8l13.5,0c-4.8,3.4 -9,6.8 -12.7,10c-3.7,3.2 -7,6.6 -9.8,10.2c-2.8,3.5 -5.2,7.3 -7.1,11.4c-1.9,4 -3.5,8.6 -4.8,13.7l0.6,0.2c2.1,-3.6 4.8,-6.6 8.2,-8.9c3.4,-2.4 7.8,-3.6 13.2,-3.6c3.8,0 7.3,0.6 10.5,1.9c3.2,1.2 5.9,3 8.2,5.4c2.3,2.3 4.1,5.2 5.4,8.5c1.3,3.3 1.9,7 1.9,11.1c0,4.2 -0.7,8.1 -2.1,11.7c-1.4,3.5 -3.4,6.6 -5.9,9.1c-2.5,2.5 -5.6,4.5 -9.2,5.9c-3.6,1.4 -7.6,2.1 -12.1,2.1Zm-0.1,-8.9c6,0 10.6,-1.6 13.9,-4.9c3.3,-3.2 4.9,-7.8 4.9,-13.8l0,-1c0,-5.9 -1.6,-10.5 -4.9,-13.8c-3.3,-3.2 -7.9,-4.9 -13.9,-4.9c-6,0 -10.6,1.6 -13.9,4.9c-3.3,3.2 -4.9,7.8 -4.9,13.8l0,1c0,5.9 1.6,10.5 4.9,13.8c3.3,3.2 7.9,4.9 13.9,4.9Z" style="fill:#fff;fill-rule:nonzero;"/></g></svg>