<?xml version="1.0" encoding="UTF-8" standalone="no"?><!DOCTYPE svg PUBLIC "-//W3C//DTD SVG 1.1//EN" "http://www.w3.org/Graphics/SVG/1.1/DTD/svg11.dtd"><svg width="100%" height="100%" viewBox="0 0 10667 6000" version="1.1" xmlns="http://www.w3.org/2000/svg" xmlns:xlink="http://www.w3.org/1999/xlink" xml:space="preserve" xmlns:serif="http://www.serif.com/" style="fill-rule:evenodd;clip-rule:evenodd;stroke-linejoin:round;stroke-miterlimit:2;"><rect x="-446.8" y="-375.4" width="11560.2" height="6750.7" style="fill:#222;"/><g><path d="M1676.1,1322.7c118.7,0 220.7,-80 240,-200.7l422.7,0l-84,90.7l423.3,-124.7l-422,-125.3l82.7,92.7l-422.7,0c-20,-113.3 -120.7,-206 -240,-206c-126.7,0 -227.3,94 -246.7,206l-311.3,0l-84.7,-90.7l-92.7,0l84.7,90.7l-44.7,0l-84.7,-90.7l-93.3,0l85.3,90.7l-45.3,0l-84,-90.7l-93.3,0l85.3,90.7l-85.3,0l0,66.7l85.3,0l-85.3,90.7l93.3,0l84,-90.7l45.3,0l-85.3,90.7l93.3,0l84.7,-90.7l44.7,0l-84.7,90.7l92.7,0l84.7,-90.7l311.3,0c19.3,120 119.3,200.7 246.7,200.7Zm0,-60c-86.7,0 -160,-59.3 -180,-140.7l180.7,0l0,-66.7l-180.7,0c19.3,-79.3 94.7,-139.3 180,-139.3c93.3,0 173.3,80 173.3,173.3c0,94 -80.7,173.3 -173.3,173.3Z" style="fill:#fff;fill-rule:nonzero;"/><path d="M2841.4,1320l73.3,0l0,-400l142,0l0,-66.7l-357.3,0l0,66.7l142,0l0,400Z" style="fill:#fff;fill-rule:nonzero;"/><path d="M3300.8,1326.7c140.7,0 251.3,-106 251.3,-240.7c0,-134.7 -110.7,-240.7 -251.3,-240.7c-140.7,0 -251.3,106 -251.3,240.7c0,134.7 110.7,240.7 251.3,240.7Zm0,-68c-98.7,0 -176.7,-76 -176.7,-172.7c0,-96.7 78,-172.7 176.7,-172.7c98.7,0 176.7,76 176.7,172.7c0,96.7 -78,172.7 -176.7,172.7Z" style="fill:#fff;fill-rule:nonzero;"/><path d="M3764.1,1320l163.3,0c137.3,0 240,-103.3 240,-240.7c0,-129.3 -103.3,-226 -241.3,-226l-162,0l0,466.7Zm163.3,-66.7l-90,0l0,-333.3l90,0c94.7,0 165.3,68.7 165.3,160.7c0,98.7 -70.7,172.7 -165.3,172.7Z" style="fill:#fff;fill-rule:nonzero;"/><rect x="4219.4" y="853.4" width="73.3" height="466.7" style="fill:#fff;fill-rule:nonzero;"/><path d="M4488.1,1320l73.3,0l0,-400l142,0l0,-66.7l-357.3,0l0,66.7l142,0l0,400Z" style="fill:#fff;fill-rule:nonzero;"/><path d="M4942.8,1326.7c70,0 120,-22 163.3,-52l0,-90c-34,43.3 -96,75.3 -160.7,75.3c-100,0 -174.7,-77.3 -174.7,-180c0,-96 74,-168 172.7,-168c64,0 127.3,29.3 164,68.7l0,-87.3c-43.3,-27.3 -89.3,-48 -165.3,-48c-140.7,0 -246,100.7 -246,234.7c0,140.7 106,246.7 246.7,246.7Z" style="fill:#fff;fill-rule:nonzero;"/><path d="M5152.8,1320l0,-466.7l73.3,0l0,192.7l238,0l0,-192.7l73.3,0l0,466.7l-73.3,0l0,-207.3l-238,0l0,207.3l-73.3,0Z" style="fill:#fff;fill-rule:nonzero;"/><path d="M5610.8,1320l278.7,0l0,-66.7l-205.3,0l0,-400l-73.3,0l0,466.7Z" style="fill:#fff;fill-rule:nonzero;"/><rect x="5932.8" y="853.4" width="73.3" height="466.7" style="fill:#fff;fill-rule:nonzero;"/><path d="M6074.8,1320l73.3,0l0,-355.3l290,355.3l74.7,0l0,-466.7l-73.3,0l0,354l-289.3,-354l-75.3,0l0,466.7Z" style="fill:#fff;fill-rule:nonzero;"/><path d="M6801.4,1326.7c69.3,0 134,-18.7 188,-52l0,-220l-149.3,0l0,66.7l76,0l0,116.7c-35.3,14.7 -74,20.7 -114.7,20.7c-99.3,0 -168.7,-79.3 -168.7,-182c0,-90.7 72,-163.3 170.7,-163.3c72,0 137.3,24 178,63.3l0,-83.3c-50,-29.3 -113.3,-48 -175.3,-48c-150.7,0 -248,113.3 -248,231.3c0,139.3 110,250 243.3,250Z" style="fill:#fff;fill-rule:nonzero;"/><path d="M7216.8,1320l155.3,0c96.7,0 162,-61.3 162,-139.3c0,-63.3 -25.3,-104 -86.7,-126.7c27.3,-24.7 38,-46 38,-79.3c0,-68 -57.3,-121.3 -142,-121.3l-126.7,0l0,466.7Zm156,-66.7l-82.7,0l0,-154.7l81.3,0c56.7,0 88,34.7 88,81.3c0,42 -30.7,73.3 -86.7,73.3Zm-27.3,-221.3l-55.3,0l0,-112l53.3,0c42.7,0 67.3,23.3 67.3,54.7c0,32.7 -24,57.3 -65.3,57.3Z" style="fill:#fff;fill-rule:nonzero;"/><path d="M7580.8,1320l293.3,0l0,-66.7l-220,0l0,-150l155.3,0l0,-66.7l-155.3,0l0,-116.7l206.7,0l0,-66.7l-280,0l0,466.7Z" style="fill:#fff;fill-rule:nonzero;"/><path d="M7898.1,1320l73.3,0l47.3,-116.7l192.7,0l48.7,116.7l73.3,0l-191.3,-466.7l-52.7,0l-191.3,466.7Zm146.7,-180l69.3,-170.7l71.3,170.7l-140.7,0Z" style="fill:#fff;fill-rule:nonzero;"/><path d="M8572.1,1326.7c70,0 120,-22 163.3,-52l0,-90c-34,43.3 -96,75.3 -160.7,75.3c-100,0 -174.7,-77.3 -174.7,-180c0,-96 74,-168 172.7,-168c64,0 127.3,29.3 164,68.7l0,-87.3c-43.3,-27.3 -89.3,-48 -165.3,-48c-140.7,0 -246,100.7 -246,234.7c0,140.7 106,246.7 246.7,246.7Z" style="fill:#fff;fill-rule:nonzero;"/><path d="M9007.4,1326.7c140.7,0 251.3,-106 251.3,-240.7c0,-134.7 -110.7,-240.7 -251.3,-240.7c-140.7,0 -251.3,106 -251.3,240.7c0,134.7 110.7,240.7 251.3,240.7Zm0,-68c-98.7,0 -176.7,-76 -176.7,-172.7c0,-96.7 78,-172.7 176.7,-172.7c98.7,0 176.7,76 176.7,172.7c0,96.7 -78,172.7 -176.7,172.7Z" style="fill:#fff;fill-rule:nonzero;"/><path d="M9310.1,1320l73.3,0l0,-355.3l290,355.3l74.7,0l0,-466.7l-73.3,0l0,354l-289.3,-354l-75.3,0l0,466.7Z" style="fill:#fff;fill-rule:nonzero;"/><path d="M1663.2,3047.7l245.4,0l-253.5,-221c82.9,-99.1 131.6,-225.9 131.6,-365.6c0,-328.2 -269.8,-586.6 -612.6,-586.6c-342.9,0 -612.6,258.4 -612.6,586.6c0,328.2 269.8,586.6 612.6,586.6c136.5,0 261.6,-40.6 362.4,-110.5l126.7,110.5Zm-489.1,-165.8c-240.5,0 -430.6,-185.3 -430.6,-420.9c0,-235.6 190.1,-420.9 430.6,-420.9c240.5,0 430.6,185.3 430.6,420.9c0,94.2 -30.9,180.4 -82.9,250.2l-108.9,-95.9l-105.6,120.2l95.9,82.9c-66.6,40.6 -144.6,63.4 -229.1,63.4Zm1215.5,165.8c276.2,0 492.4,-212.9 492.4,-482.6l0,-671.1l-178.8,0l0,671.1c0,178.8 -138.1,316.9 -313.6,316.9c-175.5,0 -313.6,-138.1 -313.6,-316.9l0,-671.1l-178.7,0l0,671.1c0,269.8 216.1,482.6 492.4,482.6Z" style="fill:#fff;fill-rule:nonzero;"/><path d="M3044.5,3031.5l715,0l0,-162.5l-536.2,0l0,-365.6l378.6,0l0,-162.5l-378.6,0l0,-284.4l503.8,0l0,-162.5l-682.5,0l0,1137.5Z" style="fill:#fff;fill-rule:nonzero;"/><path d="M3865.1,3031.5l715,0l0,-162.5l-536.2,0l0,-365.6l378.6,0l0,-162.5l-378.6,0l0,-284.4l503.7,0l0,-162.5l-682.5,0l0,1137.5Z" style="fill:#fff;fill-rule:nonzero;"/><path d="M4685.7,3031.5l178.8,0l0,-866.1l706.9,866.1l182,0l0,-1137.5l-178.8,0l0,862.9l-705.2,-862.9l-183.6,0l0,1137.5Z" style="fill:#fff;fill-rule:nonzero;"/><path d="M6227.8,3047.7c198.3,0 359.1,-134.9 359.1,-342.9c0,-208 -126.8,-274.6 -300.6,-364c-131.6,-68.3 -201.5,-104 -201.5,-190.1c0,-69.9 58.5,-110.5 126.8,-110.5c86.1,0 130,47.1 160.9,108.9l139.7,-104c-52,-99.1 -149.5,-170.6 -294.1,-170.6c-175.5,0 -323.4,112.1 -323.4,284.4c0,169 117,250.3 263.2,316.9c156,71.5 247,121.9 247,247c0,102.4 -66.6,159.2 -177.1,159.2c-100.7,0 -170.6,-63.4 -204.7,-159.2l-151.1,95.9c58.5,136.5 185.2,229.1 355.9,229.1Z" style="fill:#fff;fill-rule:nonzero;"/><path d="M6975.3,3031.5l162.5,0l251.9,-825.5l251.9,825.5l162.5,0l375.4,-1137.5l-170.6,0l-279.5,867.8l-250.2,-832l-170.6,0l-248.6,832l-282.8,-867.8l-177.1,0l375.4,1137.5Z" style="fill:#fff;fill-rule:nonzero;"/><path d="M8056,3031.5l178.8,0l115.4,-284.4l469.6,0l118.6,284.4l178.8,0l-466.4,-1137.5l-128.4,0l-466.4,1137.5Zm357.5,-438.8l169,-416l173.9,416l-342.9,0Z" style="fill:#fff;fill-rule:nonzero;"/><path d="M9343,3031.5l178.8,0l0,-513.5l380.2,-624l-183.6,0l-286,477.8l-286,-477.8l-188.5,0l385.1,622.4l0,515.1Z" style="fill:#fff;fill-rule:nonzero;"/><path d="M1352.5,3902.3c95.5,0 170.5,-60.5 185,-150.5l233.5,0l63.5,68l69.5,0l-63.5,-68l33.5,0l63.5,68l70,0l-64,-68l34,0l63,68l70,0l-64,-68l64,0l0,-50l-64,0l64,-68l-70,0l-63,68l-34,0l64,-68l-70,0l-63.5,68l-33.5,0l63.5,-68l-69.5,0l-63.5,68l-233.5,0c-14.5,-84 -90,-154.5 -185,-154.5c-89.5,0 -165,69.5 -180,154.5l-317,0l62,-69.5l-316.5,94l317.5,93.5l-63,-68l317,0c14.5,90.5 91,150.5 180,150.5Zm0,-45c-69.5,0 -130,-59.5 -130,-130c0,-70 60,-130 130,-130c64,0 120.5,45 135,104.5l-135.5,0l0,50l135.5,0c-15,61 -70,105.5 -135,105.5Z" style="fill:#fff;fill-rule:nonzero;"/><path d="M2280.5,3900.3l50,0l0,-192.5l81,0l0,-45l-81,0l0,-25c0,-30.5 16,-45 39.5,-45c12,0 23,2 41.5,11.5l0,-49c-14.5,-6 -30.5,-10 -48.5,-10c-52,0 -82.5,34 -82.5,85l0,33l-40,0l0,44l40,0l0,193Z" style="fill:#fff;fill-rule:nonzero;"/><path d="M2443.5,3900.3l50,0l0,-160.5c11.5,-23 32,-33 57,-33c13.5,0 27.5,3 46,13.5l0,-51c-13.5,-7 -27,-11.5 -44,-11.5c-23,0 -44,8 -59,25l0,-20l-50,0l0,237.5Z" style="fill:#fff;fill-rule:nonzero;"/><path d="M2724.5,3905.3c68.5,0 122,-54.5 122,-123.5c0,-69.5 -53.5,-124 -122,-124c-68.5,0 -122,54.5 -122,124c0,69 53.5,123.5 122,123.5Zm0,-47.5c-40.5,0 -72,-33.5 -72,-76c0,-43 31.5,-76.5 72,-76.5c40.5,0 72,33.5 72,76.5c0,42.5 -31.5,76 -72,76Z" style="fill:#fff;fill-rule:nonzero;"/><path d="M3206.5,3765.8l0,134.5l50,0l0,-137c0,-64.5 -31.5,-105.5 -93,-105.5c-32,0 -60.5,7.5 -87.5,34.5c-16,-22 -41.5,-34.5 -73.5,-34.5c-28,0 -51,7.5 -68,20l0,-15l-50,0l0,237.5l50,0l0,-173c10.5,-12.5 29.5,-22 57,-22c35,0 54,22.5 54,60.5l0,134.5l50,0l0,-137c0,-9.5 -0.5,-18.5 -2,-27c14.5,-21 34,-31 59,-31c35,0 54,16.5 54,60.5Z" style="fill:#fff;fill-rule:nonzero;"/><path d="M3426.5,3900.3l122.5,0c103,0 180,-77.5 180,-180.5c0,-97 -77.5,-169.5 -181,-169.5l-121.5,0l0,350Zm122.5,-50l-67.5,0l0,-250l67.5,0c71,0 124,51.5 124,120.5c0,74 -53,129.5 -124,129.5Z" style="fill:#fff;fill-rule:nonzero;"/><path d="M3914.5,3905.3c85,0 151.5,-65.5 151.5,-148.5l0,-206.5l-55,0l0,206.5c0,55 -42.5,97.5 -96.5,97.5c-54,0 -96.5,-42.5 -96.5,-97.5l0,-206.5l-55,0l0,206.5c0,83 66.5,148.5 151.5,148.5Z" style="fill:#fff;fill-rule:nonzero;"/><path d="M4116,3900.3l209,0l0,-50l-154,0l0,-300l-55,0l0,350Z" style="fill:#fff;fill-rule:nonzero;"/><path d="M4396.5,3900.3l50,0l77.5,-254l77.5,254l50,0l115.5,-350l-52.5,0l-86,267l-77,-256l-52.5,0l-76.5,256l-87,-267l-54.5,0l115.5,350Z" style="fill:#fff;fill-rule:nonzero;"/><rect x="4803" y="3550.3" width="55" height="350" style="fill:#fff;fill-rule:nonzero;"/><path d="M5078,3905.3c52.5,0 90,-16.5 122.5,-39l0,-67.5c-25.5,32.5 -72,56.5 -120.5,56.5c-75,0 -131,-58 -131,-135c0,-72 55.5,-126 129.5,-126c48,0 95.5,22 123,51.5l0,-65.5c-32.5,-20.5 -67,-36 -124,-36c-105.5,0 -184.5,75.5 -184.5,176c0,105.5 79.5,185 185,185Z" style="fill:#fff;fill-rule:nonzero;"/><path d="M5235.5,3900.3l0,-350l55,0l0,144.5l178.5,0l0,-144.5l55,0l0,350l-55,0l0,-155.5l-178.5,0l0,155.5l-55,0Z" style="fill:#fff;fill-rule:nonzero;"/><path d="M5777.5,3905.8c38.5,0 78,-19.5 101,-52l49,46.5l68.5,0l-86,-87l64,-98l-60,0l-40,62l-53,-53c29.5,-13.5 63,-40.5 63,-90c0,-45 -41,-84 -91,-84c-48.5,0 -87.5,40 -87.5,85.5c0,28.5 15.5,58 30.5,73.5c-35.5,17.5 -59.5,50.5 -59.5,92.5c0,60 42.5,100 101,104Zm2,-50c-28.5,0 -53,-24 -53,-54c0,-34.5 32,-51 46.5,-55l68.5,69.5c-13.5,25 -38,39.5 -62,39.5Zm3,-171.5c-15,-15 -27,-21.5 -27,-48.5c0,-18.5 17,-35.5 37.5,-35.5c22.5,0 41,15.5 41,33c0,29.5 -26,45.5 -51.5,51Z" style="fill:#fff;fill-rule:nonzero;"/><path d="M6320,3905.3c52.5,0 90,-16.5 122.5,-39l0,-67.5c-25.5,32.5 -72,56.5 -120.5,56.5c-75,0 -131,-58 -131,-135c0,-72 55.5,-126 129.5,-126c48,0 95.5,22 123,51.5l0,-65.5c-32.5,-20.5 -67,-36 -124,-36c-105.5,0 -184.5,75.5 -184.5,176c0,105.5 79.5,185 185,185Z" style="fill:#fff;fill-rule:nonzero;"/><path d="M6477.5,3900.3l55,0l0,-147.5l41,0l102.5,147.5l61,0l-109,-158.5c33,-16.5 57,-51 57,-91c0,-56.5 -50,-100.5 -108.5,-100.5l-99,0l0,350Zm108.5,-198.5l-53.5,0l0,-101.5l38,0c33,0 58.5,22.5 58.5,51c0,27.5 -19,50.5 -43,50.5Z" style="fill:#fff;fill-rule:nonzero;"/><path d="M6819.5,3900.3l55,0l0,-158l117,-192l-56.5,0l-88,147l-88,-147l-58,0l118.5,191.5l0,158.5Z" style="fill:#fff;fill-rule:nonzero;"/><path d="M7109.5,3905.3c61,0 110.5,-41.5 110.5,-105.5c0,-64 -39,-84.5 -92.5,-112c-40.5,-21 -62,-32 -62,-58.5c0,-21.5 18,-34 39,-34c26.5,0 40,14.5 49.5,33.5l43,-32c-16,-30.5 -46,-52.5 -90.5,-52.5c-54,0 -99.5,34.5 -99.5,87.5c0,52 36,77 81,97.5c48,22 76,37.5 76,76c0,31.5 -20.5,49 -54.5,49c-31,0 -52.5,-19.5 -63,-49l-46.5,29.5c18,42 57,70.5 109.5,70.5Z" style="fill:#fff;fill-rule:nonzero;"/><path d="M7341.5,3900.3l55,0l0,-300l106.5,0l0,-50l-268,0l0,50l106.5,0l0,300Z" style="fill:#fff;fill-rule:nonzero;"/><path d="M7463.5,3900.3l55,0l35.5,-87.5l144.5,0l36.5,87.5l55,0l-143.5,-350l-39.5,0l-143.5,350Zm110,-135l52,-128l53.5,128l-105.5,0Z" style="fill:#fff;fill-rule:nonzero;"/><path d="M7821,3900.3l209,0l0,-50l-154,0l0,-300l-55,0l0,350Z" style="fill:#fff;fill-rule:nonzero;"/><path d="M8186,3900.3l55,0l0,-134l49.5,0c67,0 120,-47.5 120,-108c0,-60.5 -53,-108 -120.5,-108l-104,0l0,350Zm104.5,-184l-49.5,0l0,-116l49.5,0c37.5,0 64,24 64,58c0,34 -26.5,58 -64,58Z" style="fill:#fff;fill-rule:nonzero;"/><path d="M8377,3900.3l55,0l35.5,-87.5l144.5,0l36.5,87.5l55,0l-143.5,-350l-39.5,0l-143.5,350Zm110,-135l52,-128l53.5,128l-105.5,0Z" style="fill:#fff;fill-rule:nonzero;"/><path d="M8734.5,3900.3l209,0l0,-50l-154,0l0,-300l-55,0l0,350Z" style="fill:#fff;fill-rule:nonzero;"/><path d="M8955.5,3900.3l55,0l35.5,-87.5l144.5,0l36.5,87.5l55,0l-143.5,-350l-39.5,0l-143.5,350Zm110,-135l52,-128l53.5,128l-105.5,0Z" style="fill:#fff;fill-rule:nonzero;"/><path d="M9461,3905.3c52.5,0 90,-16.5 122.5,-39l0,-67.5c-25.5,32.5 -72,56.5 -120.5,56.5c-75,0 -131,-58 -131,-135c0,-72 55.5,-126 129.5,-126c48,0 95.5,22 123,51.5l0,-65.5c-32.5,-20.5 -67,-36 -124,-36c-105.5,0 -184.5,75.5 -184.5,176c0,105.5 79.5,185 185,185Z" style="fill:#fff;fill-rule:nonzero;"/><path d="M9618.5,3900.3l220,0l0,-50l-165,0l0,-112.5l116.5,0l0,-50l-116.5,0l0,-87.5l155,0l0,-50l-210,0l0,350Z" style="fill:#fff;fill-rule:nonzero;"/><path d="M846.4,4982.7c134.6,0 239.9,-103.7 239.9,-235.1l0,-327l-87.1,0l0,327c0,87.1 -67.3,154.4 -152.8,154.4c-85.5,0 -152.8,-67.3 -152.8,-154.4l0,-327l-87.1,0l0,327c0,131.4 105.3,235.1 239.9,235.1Z" style="fill:#fff;fill-rule:nonzero;"/><path d="M1165.5,4974.7l87.1,0l0,-422l344.4,422l88.7,0l0,-554.2l-87.1,0l0,420.4l-343.6,-420.4l-89.5,0l0,554.2Z" style="fill:#fff;fill-rule:nonzero;"/><path d="M1772.7,4974.7l194,0c163.1,0 285,-122.7 285,-285.8c0,-153.6 -122.7,-268.4 -286.6,-268.4l-192.4,0l0,554.2Zm194,-79.2l-106.9,0l0,-395.8l106.9,0c112.4,0 196.3,81.5 196.3,190.8c0,117.2 -83.9,205 -196.3,205Z" style="fill:#fff;fill-rule:nonzero;"/><path d="M2312.6,4974.7l348.3,0l0,-79.2l-261.2,0l0,-178.1l184.5,0l0,-79.2l-184.5,0l0,-138.5l245.4,0l0,-79.2l-332.5,0l0,554.2Z" style="fill:#fff;fill-rule:nonzero;"/><path d="M2712.4,4974.7l87.1,0l0,-233.5l64.9,0l162.3,233.5l96.6,0l-172.6,-251c52.2,-26.1 90.2,-80.7 90.2,-144.1c0,-89.5 -79.2,-159.1 -171.8,-159.1l-156.8,0l0,554.2Zm171.8,-314.3l-84.7,0l0,-160.7l60.2,0c52.2,0 92.6,35.6 92.6,80.8c0,43.5 -30.1,80 -68.1,80Z" style="fill:#fff;fill-rule:nonzero;"/><path d="M3398,4982.7c82.3,0 159.1,-22.2 223.2,-61.8l0,-261.2l-177.3,0l0,79.2l90.2,0l0,138.5c-42,17.4 -87.9,24.5 -136.2,24.5c-118,0 -200.3,-94.2 -200.3,-216.1c0,-107.7 85.5,-194 202.7,-194c85.5,0 163.1,28.5 211.4,75.2l0,-99c-59.4,-34.8 -134.6,-57 -208.2,-57c-178.9,0 -294.5,134.6 -294.5,274.7c0,165.5 130.6,296.9 289,296.9Z" style="fill:#fff;fill-rule:nonzero;"/><path d="M3693.3,4974.7l87.1,0l0,-233.5l64.9,0l162.3,233.5l96.6,0l-172.6,-251c52.2,-26.1 90.2,-80.7 90.2,-144.1c0,-89.5 -79.2,-159.1 -171.8,-159.1l-156.8,0l0,554.2Zm171.8,-314.3l-84.7,0l0,-160.7l60.2,0c52.3,0 92.6,35.6 92.6,80.8c0,43.5 -30.1,80 -68.1,80Z" style="fill:#fff;fill-rule:nonzero;"/><path d="M4388.4,4982.7c167,0 298.5,-125.9 298.5,-285.8c0,-159.9 -131.4,-285.8 -298.5,-285.8c-167,0 -298.5,125.9 -298.5,285.8c0,159.9 131.4,285.8 298.5,285.8Zm0,-80.8c-117.2,0 -209.8,-90.2 -209.8,-205c0,-114.8 92.6,-205 209.8,-205c117.2,0 209.8,90.2 209.8,205c0,114.8 -92.6,205 -209.8,205Z" style="fill:#fff;fill-rule:nonzero;"/><path d="M4980.5,4982.7c134.6,0 239.9,-103.7 239.9,-235.1l0,-327l-87.1,0l0,327c0,87.1 -67.3,154.4 -152.8,154.4c-85.5,0 -152.8,-67.3 -152.8,-154.4l0,-327l-87.1,0l0,327c0,131.4 105.3,235.1 239.9,235.1Z" style="fill:#fff;fill-rule:nonzero;"/><path d="M5299.6,4974.7l87.1,0l0,-422l344.4,422l88.7,0l0,-554.2l-87.1,0l0,420.4l-343.6,-420.4l-89.5,0l0,554.2Z" style="fill:#fff;fill-rule:nonzero;"/><path d="M5906.8,4974.7l194,0c163.1,0 285,-122.7 285,-285.8c0,-153.6 -122.7,-268.4 -286.6,-268.4l-192.4,0l0,554.2Zm194,-79.2l-106.9,0l0,-395.8l106.9,0c112.4,0 196.3,81.5 196.3,190.8c0,117.2 -83.9,205 -196.3,205Z" style="fill:#fff;fill-rule:nonzero;"/><path d="M6637.5,4974.7l348.3,0l0,-79.2l-261.2,0l0,-178.1l184.5,0l0,-79.2l-184.5,0l0,-138.5l245.4,0l0,-79.2l-332.5,0l0,554.2Z" style="fill:#fff;fill-rule:nonzero;"/><path d="M7037.3,4974.7l330.9,0l0,-79.2l-243.8,0l0,-475l-87.1,0l0,554.2Z" style="fill:#fff;fill-rule:nonzero;"/><path d="M7423.6,4974.7l348.3,0l0,-79.2l-261.2,0l0,-178.1l184.5,0l0,-79.2l-184.5,0l0,-138.5l245.4,0l0,-79.2l-332.5,0l0,554.2Z" style="fill:#fff;fill-rule:nonzero;"/><path d="M8068.8,4982.7c83.1,0 142.5,-26.1 194,-61.8l0,-106.9c-40.4,51.5 -114,89.5 -190.8,89.5c-118.8,0 -207.4,-91.8 -207.4,-213.8c0,-114 87.9,-199.5 205,-199.5c76,0 151.2,34.8 194.8,81.5l0,-103.7c-51.5,-32.5 -106.1,-57 -196.3,-57c-167,0 -292.1,119.5 -292.1,278.7c0,167 125.9,292.9 292.9,292.9Z" style="fill:#fff;fill-rule:nonzero;"/><path d="M8463.1,4974.7l87.1,0l0,-475l168.6,0l0,-79.2l-424.3,0l0,79.2l168.6,0l0,475Z" style="fill:#fff;fill-rule:nonzero;"/><path d="M8774.2,4974.7l87.1,0l0,-233.5l64.9,0l162.3,233.5l96.6,0l-172.6,-251c52.2,-26.1 90.2,-80.7 90.2,-144.1c0,-89.5 -79.2,-159.1 -171.8,-159.1l-156.8,0l0,554.2Zm171.8,-314.3l-84.7,0l0,-160.7l60.2,0c52.2,0 92.6,35.6 92.6,80.8c0,43.5 -30.1,80 -68.1,80Z" style="fill:#fff;fill-rule:nonzero;"/><rect x="9233.4" y="4420.6" width="87.1" height="554.2" style="fill:#fff;fill-rule:nonzero;"/><path d="M9668.8,4982.7c83.1,0 142.5,-26.1 194,-61.8l0,-106.9c-40.4,51.5 -114,89.5 -190.8,89.5c-118.8,0 -207.4,-91.8 -207.4,-213.8c0,-114 87.9,-199.5 205,-199.5c76,0 151.2,34.8 194.8,81.5l0,-103.7c-51.5,-32.5 -106.1,-57 -196.3,-57c-167,0 -292.1,119.5 -292.1,278.7c0,167 125.9,292.9 292.9,292.9Z" style="fill:#fff;fill-rule:nonzero;"/></g></svg>