<?xml version="1.0" encoding="UTF-8" standalone="no"?>
<!DOCTYPE svg PUBLIC "-//W3C//DTD SVG 1.1//EN" "http://www.w3.org/Graphics/SVG/1.1/DTD/svg11.dtd">
<svg width="100%" height="100%" viewBox="0 0 2560 1440" version="1.1" xmlns="http://www.w3.org/2000/svg" xmlns:xlink="http://www.w3.org/1999/xlink" xml:space="preserve" xmlns:serif="http://www.serif.com/" style="fill-rule:evenodd;clip-rule:evenodd;stroke-linejoin:round;stroke-miterlimit:2;">
    <g transform="matrix(2.310626,0,0,1.752308,-1990.220616,-537.959473)">
        <rect x="798.1" y="265.3" width="1200.7" height="924.6" style="fill:rgb(34,34,34);"/>
    </g>
    <g transform="matrix(1.283399,0,0,1.237622,-392.659751,1.440353)">
        <g transform="matrix(1,0,0,1,-1.671343,1.551362)">
            <path d="M621.1,253.8C643.3,253.8 662.3,238.3 665.9,214.9L745,214.9L729.3,232.5L808.4,208.3L729.5,184L745,201.9L665.9,201.9C662.2,180 643.4,162 621.1,162C597.4,162 578.5,180.2 574.9,201.9L516.7,201.9L500.9,184.4L483.6,184.4L499.4,201.9L491,201.9L475.2,184.4L457.7,184.4L473.7,201.9L465.2,201.9L449.5,184.4L432.1,184.4L448,201.9L432.1,201.9L432.1,214.9L448,214.9L432.1,232.5L449.5,232.5L465.2,214.9L473.7,214.9L457.7,232.5L475.2,232.5L491,214.9L499.4,214.9L483.6,232.5L500.9,232.5L516.7,214.9L574.9,214.9C578.5,238.1 597.2,253.8 621.1,253.8ZM621.1,242.1C604.9,242.1 591.1,230.6 587.4,214.9L621.2,214.9L621.2,201.9L587.4,201.9C591,186.6 605.1,174.9 621.1,174.9C638.5,174.9 653.5,190.4 653.5,208.5C653.5,226.8 638.4,242.1 621.1,242.1Z" style="fill:white;fill-rule:nonzero;"/>
            <path d="M839,253.3L852.7,253.3L852.7,175.7L879.3,175.7L879.3,162.8L812.4,162.8L812.4,175.7L839,175.7L839,253.3Z" style="fill:white;fill-rule:nonzero;"/>
            <path d="M924.9,254.6C951.2,254.6 971.9,234 971.9,207.9C971.9,181.8 951.2,161.2 924.9,161.2C898.6,161.2 877.9,181.8 877.9,207.9C877.9,234 898.6,254.6 924.9,254.6ZM924.9,241.4C906.4,241.4 891.8,226.6 891.8,207.9C891.8,189.1 906.4,174.4 924.9,174.4C943.3,174.4 957.9,189.1 957.9,207.9C957.9,226.6 943.3,241.4 924.9,241.4Z" style="fill:white;fill-rule:nonzero;"/>
            <path d="M1011.5,253.3L1042.1,253.3C1067.8,253.3 1086.9,233.2 1086.9,206.6C1086.9,181.5 1067.6,162.8 1041.8,162.8L1011.5,162.8L1011.5,253.3ZM1042.1,240.3L1025.2,240.3L1025.2,175.7L1042.1,175.7C1059.8,175.7 1073,189 1073,206.9C1073,226 1059.8,240.3 1042.1,240.3Z" style="fill:white;fill-rule:nonzero;"/>
            <rect x="1096.7" y="162.8" width="13.7" height="90.5" style="fill:white;fill-rule:nonzero;"/>
            <path d="M1146.9,253.3L1160.6,253.3L1160.6,175.7L1187.2,175.7L1187.2,162.8L1120.4,162.8L1120.4,175.7L1146.9,175.7L1146.9,253.3Z" style="fill:white;fill-rule:nonzero;"/>
            <path d="M1231.9,254.6C1245,254.6 1254.4,250.3 1262.5,244.5L1262.5,227C1256.1,235.4 1244.5,241.6 1232.4,241.6C1213.7,241.6 1199.8,226.6 1199.8,206.7C1199.8,188.1 1213.6,174.1 1232.1,174.1C1244,174.1 1255.9,179.8 1262.7,187.5L1262.7,170.5C1254.6,165.2 1246,161.2 1231.8,161.2C1205.5,161.2 1185.8,180.7 1185.8,206.7C1185.8,234 1205.6,254.6 1231.9,254.6Z" style="fill:white;fill-rule:nonzero;"/>
            <path d="M1271.2,253.3L1271.2,162.8L1284.9,162.8L1284.9,200.1L1329.4,200.1L1329.4,162.8L1343.1,162.8L1343.1,253.3L1329.4,253.3L1329.4,213.1L1284.9,213.1L1284.9,253.3L1271.2,253.3Z" style="fill:white;fill-rule:nonzero;"/>
            <path d="M1356.9,253.3L1409,253.3L1409,240.3L1370.6,240.3L1370.6,162.8L1356.9,162.8L1356.9,253.3Z" style="fill:white;fill-rule:nonzero;"/>
            <rect x="1417.1" y="162.8" width="13.7" height="90.5" style="fill:white;fill-rule:nonzero;"/>
            <path d="M1443.6,253.3L1457.3,253.3L1457.3,184.4L1511.6,253.3L1525.5,253.3L1525.5,162.8L1511.8,162.8L1511.8,231.4L1457.7,162.8L1443.6,162.8L1443.6,253.3Z" style="fill:white;fill-rule:nonzero;"/>
            <path d="M1579.5,254.6C1592.5,254.6 1604.6,250.9 1614.7,244.5L1614.7,201.8L1586.7,201.8L1586.7,214.7L1601,214.7L1601,237.4C1594.4,240.2 1587.1,241.4 1579.5,241.4C1560.9,241.4 1548,226 1548,206.1C1548,188.5 1561.4,174.4 1579.9,174.4C1593.4,174.4 1605.6,179.1 1613.2,186.7L1613.2,170.5C1603.8,164.8 1592,161.2 1580.4,161.2C1552.2,161.2 1534,183.2 1534,206.1C1534,233.1 1554.6,254.6 1579.5,254.6Z" style="fill:white;fill-rule:nonzero;"/>
            <path d="M1657.2,253.3L1686.2,253.3C1704.3,253.3 1716.5,241.4 1716.5,226.2C1716.5,214 1711.8,206.1 1700.3,201.7C1705.4,196.9 1707.4,192.8 1707.4,186.3C1707.4,173.1 1696.7,162.8 1680.9,162.8L1657.2,162.8L1657.2,253.3ZM1686.4,240.3L1670.9,240.3L1670.9,210.3L1686.1,210.3C1696.7,210.3 1702.6,217.1 1702.6,226.1C1702.6,234.3 1696.8,240.3 1686.4,240.3ZM1681.2,197.4L1670.9,197.4L1670.9,175.7L1680.9,175.7C1688.9,175.7 1693.5,180.2 1693.5,186.3C1693.5,192.6 1689,197.4 1681.2,197.4Z" style="fill:white;fill-rule:nonzero;"/>
            <path d="M1725.3,253.3L1780.1,253.3L1780.1,240.3L1739,240.3L1739,211.2L1768,211.2L1768,198.3L1739,198.3L1739,175.7L1777.6,175.7L1777.6,162.8L1725.3,162.8L1725.3,253.3Z" style="fill:white;fill-rule:nonzero;"/>
            <path d="M1784.6,253.3L1798.3,253.3L1807.2,230.6L1843.2,230.6L1852.3,253.3L1866,253.3L1830.2,162.8L1820.4,162.8L1784.6,253.3ZM1812,218.4L1825,185.3L1838.3,218.4L1812,218.4Z" style="fill:white;fill-rule:nonzero;"/>
            <path d="M1910.6,254.6C1923.7,254.6 1933.1,250.3 1941.2,244.5L1941.2,227C1934.8,235.4 1923.2,241.6 1911.1,241.6C1892.4,241.6 1878.5,226.6 1878.5,206.7C1878.5,188.1 1892.3,174.1 1910.8,174.1C1922.7,174.1 1934.6,179.8 1941.4,187.5L1941.4,170.5C1933.3,165.2 1924.7,161.2 1910.5,161.2C1884.2,161.2 1864.5,180.7 1864.5,206.7C1864.5,234 1884.3,254.6 1910.6,254.6Z" style="fill:white;fill-rule:nonzero;"/>
            <path d="M1992,254.6C2018.4,254.6 2039,234 2039,207.9C2039,181.8 2018.4,161.2 1992,161.2C1965.7,161.2 1945,181.8 1945,207.9C1945,234 1965.7,254.6 1992,254.6ZM1992,241.4C1973.6,241.4 1959,226.6 1959,207.9C1959,189.1 1973.6,174.4 1992,174.4C2010.5,174.4 2025.1,189.1 2025.1,207.9C2025.1,226.6 2010.5,241.4 1992,241.4Z" style="fill:white;fill-rule:nonzero;"/>
            <path d="M2048.6,253.3L2062.4,253.3L2062.4,184.4L2116.6,253.3L2130.6,253.3L2130.6,162.8L2116.8,162.8L2116.8,231.4L2062.7,162.8L2048.6,162.8L2048.6,253.3Z" style="fill:white;fill-rule:nonzero;"/>
            <path d="M618.6,588.3L664.5,588.3L617.1,545.4C632.6,526.2 641.7,501.6 641.7,474.5C641.7,410.9 591.3,360.8 527.2,360.8C463.1,360.8 412.6,410.9 412.6,474.5C412.6,538.2 463.1,588.3 527.2,588.3C552.7,588.3 576.1,580.4 594.9,566.9L618.6,588.3ZM527.2,556.2C482.2,556.2 446.7,520.2 446.7,474.5C446.7,428.8 482.2,392.9 527.2,392.9C572.2,392.9 607.7,428.8 607.7,474.5C607.7,492.8 601.9,509.5 592.2,523.1L571.9,504.5L552.1,527.8L570,543.9C557.6,551.7 543,556.2 527.2,556.2ZM754.5,588.3C806.1,588.3 846.6,547 846.6,494.7L846.6,364.6L813.1,364.6L813.1,494.7C813.1,529.4 787.3,556.2 754.5,556.2C721.7,556.2 695.8,529.4 695.8,494.7L695.8,364.6L662.4,364.6L662.4,494.7C662.4,547 702.8,588.3 754.5,588.3Z" style="fill:white;fill-rule:nonzero;"/>
            <path d="M876.9,585.1L1010.7,585.1L1010.7,553.6L910.4,553.6L910.4,482.7L981.2,482.7L981.2,451.2L910.4,451.2L910.4,396.1L1004.6,396.1L1004.6,364.6L876.9,364.6L876.9,585.1Z" style="fill:white;fill-rule:nonzero;"/>
            <path d="M1030.4,585.1L1164.1,585.1L1164.1,553.6L1063.8,553.6L1063.8,482.7L1134.6,482.7L1134.6,451.2L1063.8,451.2L1063.8,396.1L1158,396.1L1158,364.6L1030.4,364.6L1030.4,585.1Z" style="fill:white;fill-rule:nonzero;"/>
            <path d="M1183.9,585.1L1217.3,585.1L1217.3,417.2L1349.5,585.1L1383.5,585.1L1383.5,364.6L1350.1,364.6L1350.1,531.9L1218.2,364.6L1183.9,364.6L1183.9,585.1Z" style="fill:white;fill-rule:nonzero;"/>
            <path d="M1472.3,588.3C1509.3,588.3 1539.4,562.1 1539.4,521.8C1539.4,481.5 1515.7,468.6 1483.2,451.2C1458.6,438 1445.5,431.1 1445.5,414.4C1445.5,400.8 1456.4,392.9 1469.2,392.9C1485.3,392.9 1493.5,402.1 1499.3,414L1525.4,393.9C1515.7,374.6 1497.5,360.8 1470.4,360.8C1437.6,360.8 1410,382.5 1410,415.9C1410,448.7 1431.8,464.5 1459.2,477.4C1488.4,491.2 1505.4,501 1505.4,525.3C1505.4,545.1 1492.9,556.2 1472.3,556.2C1453.4,556.2 1440.3,543.9 1434,525.3L1405.7,543.9C1416.6,570.3 1440.3,588.3 1472.3,588.3Z" style="fill:white;fill-rule:nonzero;"/>
            <path d="M1612,585.1L1642.4,585.1L1689.5,425.1L1736.6,585.1L1767,585.1L1837.2,364.6L1805.3,364.6L1753,532.8L1706.2,371.5L1674.3,371.5L1627.8,532.8L1575,364.6L1541.8,364.6L1612,585.1Z" style="fill:white;fill-rule:nonzero;"/>
            <path d="M1814.1,585.1L1847.5,585.1L1869.1,530L1956.9,530L1979.1,585.1L2012.6,585.1L1925.3,364.6L1901.3,364.6L1814.1,585.1ZM1881,500.1L1912.6,419.4L1945.1,500.1L1881,500.1Z" style="fill:white;fill-rule:nonzero;"/>
            <path d="M2054.8,585.1L2088.2,585.1L2088.2,485.6L2159.3,364.6L2125,364.6L2071.5,457.2L2018,364.6L1982.8,364.6L2054.8,485.3L2054.8,585.1Z" style="fill:white;fill-rule:nonzero;"/>
            <path d="M560.6,754C578.4,754 592.4,742.3 595.1,724.8L638.8,724.8L650.7,738L663.7,738L651.8,724.8L658.1,724.8L669.9,738L683,738L671.1,724.8L677.4,724.8L689.2,738L702.3,738L690.3,724.8L702.3,724.8L702.3,715.1L690.3,715.1L702.3,702L689.2,702L677.4,715.1L671.1,715.1L683,702L669.9,702L658.1,715.1L651.8,715.1L663.7,702L650.7,702L638.8,715.1L595.1,715.1C592.4,698.9 578.3,685.2 560.6,685.2C543.8,685.2 529.7,698.7 526.9,715.1L467.6,715.1L479.2,701.7L420,719.9L479.4,738L467.6,724.8L526.9,724.8C529.6,742.4 543.9,754 560.6,754ZM560.6,745.3C547.6,745.3 536.2,733.8 536.2,720.1C536.2,706.5 547.5,694.9 560.6,694.9C572.5,694.9 583.1,703.6 585.8,715.1L560.5,715.1L560.5,724.8L585.8,724.8C583,736.7 572.7,745.3 560.6,745.3Z" style="fill:white;fill-rule:nonzero;"/>
            <path d="M734.1,753.6L743.4,753.6L743.4,716.3L758.6,716.3L758.6,707.6L743.4,707.6L743.4,702.7C743.4,696.8 746.4,694 750.8,694C753.1,694 755.1,694.4 758.6,696.2L758.6,686.7C755.9,685.6 752.9,684.8 749.5,684.8C739.8,684.8 734.1,691.4 734.1,701.3L734.1,707.7L726.6,707.7L726.6,716.2L734.1,716.2L734.1,753.6Z" style="fill:white;fill-rule:nonzero;"/>
            <path d="M764.6,753.6L773.9,753.6L773.9,722.5C776.1,718.1 779.9,716.1 784.6,716.1C787.1,716.1 789.7,716.7 793.2,718.7L793.2,708.8C790.7,707.5 788.1,706.6 785,706.6C780.7,706.6 776.7,708.2 773.9,711.5L773.9,707.6L764.6,707.6L764.6,753.6Z" style="fill:white;fill-rule:nonzero;"/>
            <path d="M817.1,754.6C829.9,754.6 839.9,744 839.9,730.7C839.9,717.2 829.9,706.6 817.1,706.6C804.3,706.6 794.3,717.2 794.3,730.7C794.3,744 804.3,754.6 817.1,754.6ZM817.1,745.4C809.5,745.4 803.7,738.9 803.7,730.7C803.7,722.3 809.5,715.8 817.1,715.8C824.7,715.8 830.6,722.3 830.6,730.7C830.6,738.9 824.7,745.4 817.1,745.4Z" style="fill:white;fill-rule:nonzero;"/>
            <path d="M907.3,727.6L907.3,753.6L916.6,753.6L916.6,727.1C916.6,714.6 910.7,706.6 899.2,706.6C893.2,706.6 887.9,708.1 882.9,713.3C879.9,709 875.1,706.6 869.1,706.6C863.9,706.6 859.6,708.1 856.4,710.5L856.4,707.6L847,707.6L847,753.6L856.4,753.6L856.4,720.1C858.4,717.7 861.9,715.8 867,715.8C873.6,715.8 877.1,720.2 877.1,727.6L877.1,753.6L886.5,753.6L886.5,727.1C886.5,725.2 886.4,723.5 886.1,721.8C888.8,717.8 892.5,715.8 897.2,715.8C903.7,715.8 907.3,719 907.3,727.6Z" style="fill:white;fill-rule:nonzero;"/>
            <path d="M948.4,753.6L971.3,753.6C990.6,753.6 1005,738.6 1005,718.6C1005,699.8 990.5,685.8 971.1,685.8L948.4,685.8L948.4,753.6ZM971.3,743.9L958.7,743.9L958.7,695.5L971.3,695.5C984.6,695.5 994.5,705.4 994.5,718.8C994.5,733.2 984.6,743.9 971.3,743.9Z" style="fill:white;fill-rule:nonzero;"/>
            <path d="M1039.7,754.6C1055.5,754.6 1068,741.9 1068,725.8L1068,685.8L1057.7,685.8L1057.7,725.8C1057.7,736.5 1049.8,744.7 1039.7,744.7C1029.6,744.7 1021.6,736.5 1021.6,725.8L1021.6,685.8L1011.3,685.8L1011.3,725.8C1011.3,741.9 1023.8,754.6 1039.7,754.6Z" style="fill:white;fill-rule:nonzero;"/>
            <path d="M1077.3,753.6L1116.4,753.6L1116.4,743.9L1087.6,743.9L1087.6,685.8L1077.3,685.8L1077.3,753.6Z" style="fill:white;fill-rule:nonzero;"/>
            <path d="M1129.8,753.6L1139.1,753.6L1153.6,704.4L1168.1,753.6L1177.5,753.6L1199.1,685.8L1189.3,685.8L1173.2,737.5L1158.8,687.9L1149,687.9L1134.7,737.5L1118.4,685.8L1108.2,685.8L1129.8,753.6Z" style="fill:white;fill-rule:nonzero;"/>
            <rect x="1205.8" y="685.8" width="10.3" height="67.9" style="fill:white;fill-rule:nonzero;"/>
            <path d="M1257.2,754.6C1267,754.6 1274.1,751.4 1280.1,747L1280.1,734C1275.4,740.3 1266.7,744.9 1257.6,744.9C1243.6,744.9 1233.1,733.7 1233.1,718.7C1233.1,704.8 1243.5,694.3 1257.3,694.3C1266.3,694.3 1275.2,698.6 1280.3,704.3L1280.3,691.6C1274.2,687.6 1267.8,684.6 1257.1,684.6C1237.4,684.6 1222.6,699.2 1222.6,718.7C1222.6,739.2 1237.5,754.6 1257.2,754.6Z" style="fill:white;fill-rule:nonzero;"/>
            <path d="M1286.7,753.6L1286.7,685.8L1297,685.8L1297,713.8L1330.4,713.8L1330.4,685.8L1340.6,685.8L1340.6,753.6L1330.4,753.6L1330.4,723.5L1297,723.5L1297,753.6L1286.7,753.6Z" style="fill:white;fill-rule:nonzero;"/>
            <path d="M1388,754.7C1395.2,754.7 1402.6,750.9 1406.9,744.6L1416.1,753.6L1428.9,753.6L1412.8,736.8L1424.8,717.8L1413.6,717.8L1406.1,729.8L1396.2,719.5C1401.7,716.9 1408,711.7 1408,702.1C1408,693.3 1400.3,685.8 1390.9,685.8C1381.9,685.8 1374.6,693.5 1374.6,702.3C1374.6,707.9 1377.5,713.6 1380.3,716.6C1373.6,720 1369.2,726.4 1369.2,734.5C1369.2,746.2 1377.1,753.9 1388,754.7ZM1388.4,745C1383.1,745 1378.5,740.4 1378.5,734.5C1378.5,727.8 1384.5,724.6 1387.2,723.9L1400,737.3C1397.5,742.2 1392.9,745 1388.4,745ZM1389,711.7C1386.2,708.8 1383.9,707.6 1383.9,702.3C1383.9,698.8 1387.1,695.5 1390.9,695.5C1395.1,695.5 1398.6,698.5 1398.6,701.9C1398.6,707.6 1393.7,710.7 1389,711.7Z" style="fill:white;fill-rule:nonzero;"/>
            <path d="M1489.5,754.6C1499.3,754.6 1506.3,751.4 1512.4,747L1512.4,734C1507.6,740.3 1498.9,744.9 1489.9,744.9C1475.8,744.9 1465.4,733.7 1465.4,718.7C1465.4,704.8 1475.7,694.3 1489.6,694.3C1498.6,694.3 1507.4,698.6 1512.6,704.3L1512.6,691.6C1506.5,687.6 1500.1,684.6 1489.4,684.6C1469.7,684.6 1454.9,699.2 1454.9,718.7C1454.9,739.2 1469.8,754.6 1489.5,754.6Z" style="fill:white;fill-rule:nonzero;"/>
            <path d="M1518.9,753.6L1529.2,753.6L1529.2,725L1536.9,725L1556.1,753.6L1567.5,753.6L1547.1,722.9C1553.3,719.7 1557.7,713 1557.7,705.3C1557.7,694.3 1548.4,685.8 1537.5,685.8L1518.9,685.8L1518.9,753.6ZM1539.2,715.1L1529.2,715.1L1529.2,695.5L1536.3,695.5C1542.5,695.5 1547.3,699.8 1547.3,705.4C1547.3,710.7 1543.7,715.1 1539.2,715.1Z" style="fill:white;fill-rule:nonzero;"/>
            <path d="M1582.9,753.6L1593.2,753.6L1593.2,723L1615.1,685.8L1604.5,685.8L1588,714.3L1571.6,685.8L1560.7,685.8L1582.9,722.9L1582.9,753.6Z" style="fill:white;fill-rule:nonzero;"/>
            <path d="M1637.1,754.6C1648.5,754.6 1657.8,746.6 1657.8,734.1C1657.8,721.7 1650.5,717.8 1640.5,712.4C1632.9,708.4 1628.9,706.2 1628.9,701.1C1628.9,696.9 1632.3,694.5 1636.2,694.5C1641.1,694.5 1643.7,697.3 1645.5,701L1653.5,694.8C1650.5,688.9 1644.9,684.6 1636.6,684.6C1626.5,684.6 1618,691.3 1618,701.6C1618,711.7 1624.7,716.5 1633.1,720.5C1642.1,724.7 1647.3,727.7 1647.3,735.2C1647.3,741.3 1643.5,744.7 1637.1,744.7C1631.3,744.7 1627.3,740.9 1625.3,735.2L1616.7,740.9C1620,749.1 1627.3,754.6 1637.1,754.6Z" style="fill:white;fill-rule:nonzero;"/>
            <path d="M1680.5,753.6L1690.8,753.6L1690.8,695.5L1710.7,695.5L1710.7,685.8L1660.6,685.8L1660.6,695.5L1680.5,695.5L1680.5,753.6Z" style="fill:white;fill-rule:nonzero;"/>
            <path d="M1703.3,753.6L1713.6,753.6L1720.3,736.7L1747.3,736.7L1754.1,753.6L1764.4,753.6L1737.6,685.8L1730.2,685.8L1703.3,753.6ZM1723.9,727.5L1733.6,702.6L1743.6,727.5L1723.9,727.5Z" style="fill:white;fill-rule:nonzero;"/>
            <path d="M1770.2,753.6L1809.3,753.6L1809.3,743.9L1780.5,743.9L1780.5,685.8L1770.2,685.8L1770.2,753.6Z" style="fill:white;fill-rule:nonzero;"/>
            <path d="M1838.4,753.6L1848.7,753.6L1848.7,727.7L1858,727.7C1870.5,727.7 1880.4,718.4 1880.4,706.7C1880.4,695 1870.5,685.8 1857.9,685.8L1838.4,685.8L1838.4,753.6ZM1858,718L1848.7,718L1848.7,695.5L1858,695.5C1865,695.5 1869.9,700.1 1869.9,706.7C1869.9,713.3 1865,718 1858,718Z" style="fill:white;fill-rule:nonzero;"/>
            <path d="M1874.2,753.6L1884.4,753.6L1891.1,736.7L1918.1,736.7L1924.9,753.6L1935.2,753.6L1908.4,685.8L1901,685.8L1874.2,753.6ZM1894.7,727.5L1904.5,702.6L1914.5,727.5L1894.7,727.5Z" style="fill:white;fill-rule:nonzero;"/>
            <path d="M1941,753.6L1980.1,753.6L1980.1,743.9L1951.3,743.9L1951.3,685.8L1941,685.8L1941,753.6Z" style="fill:white;fill-rule:nonzero;"/>
            <path d="M1982.3,753.6L1992.6,753.6L1999.3,736.7L2026.3,736.7L2033.1,753.6L2043.4,753.6L2016.6,685.8L2009.2,685.8L1982.3,753.6ZM2002.9,727.5L2012.6,702.6L2022.6,727.5L2002.9,727.5Z" style="fill:white;fill-rule:nonzero;"/>
            <path d="M2076.9,754.6C2086.7,754.6 2093.7,751.4 2099.8,747L2099.8,734C2095,740.3 2086.3,744.9 2077.2,744.9C2063.2,744.9 2052.7,733.7 2052.7,718.7C2052.7,704.8 2063.1,694.3 2077,694.3C2085.9,694.3 2094.8,698.6 2100,704.3L2100,691.6C2093.9,687.6 2087.4,684.6 2076.8,684.6C2057,684.6 2042.3,699.2 2042.3,718.7C2042.3,739.2 2057.1,754.6 2076.9,754.6Z" style="fill:white;fill-rule:nonzero;"/>
            <path d="M2106.3,753.6L2147.5,753.6L2147.5,743.9L2116.6,743.9L2116.6,722.1L2138.4,722.1L2138.4,712.4L2116.6,712.4L2116.6,695.5L2145.6,695.5L2145.6,685.8L2106.3,685.8L2106.3,753.6Z" style="fill:white;fill-rule:nonzero;"/>
            <path d="M465.9,963.5C491.1,963.5 510.8,943.4 510.8,917.9L510.8,854.5L494.5,854.5L494.5,917.9C494.5,934.8 481.9,947.9 465.9,947.9C449.9,947.9 437.3,934.8 437.3,917.9L437.3,854.5L421.1,854.5L421.1,917.9C421.1,943.4 440.7,963.5 465.9,963.5Z" style="fill:white;fill-rule:nonzero;"/>
            <path d="M525.6,962L541.9,962L541.9,880.2L606.3,962L622.8,962L622.8,854.5L606.6,854.5L606.6,936L542.3,854.5L525.6,854.5L525.6,962Z" style="fill:white;fill-rule:nonzero;"/>
            <path d="M639.1,962L675.4,962C705.9,962 728.7,938.2 728.7,906.6C728.7,876.8 705.7,854.5 675.1,854.5L639.1,854.5L639.1,962ZM675.4,946.6L655.4,946.6L655.4,869.9L675.4,869.9C696.4,869.9 712.1,885.7 712.1,906.9C712.1,929.6 696.4,946.6 675.4,946.6Z" style="fill:white;fill-rule:nonzero;"/>
            <path d="M740.1,962L805.2,962L805.2,946.6L756.4,946.6L756.4,912.1L790.9,912.1L790.9,896.7L756.4,896.7L756.4,869.9L802.3,869.9L802.3,854.5L740.1,854.5L740.1,962Z" style="fill:white;fill-rule:nonzero;"/>
            <path d="M814.9,962L831.1,962L831.1,916.7L843.3,916.7L873.6,962L891.7,962L859.4,913.3C869.2,908.3 876.3,897.7 876.3,885.4C876.3,868 861.5,854.5 844.2,854.5L814.9,854.5L814.9,962ZM847,901L831.1,901L831.1,869.9L842.4,869.9C852.2,869.9 859.7,876.8 859.7,885.5C859.7,894 854.1,901 847,901Z" style="fill:white;fill-rule:nonzero;"/>
            <path d="M943.1,963.5C958.5,963.5 972.8,959.2 984.8,951.5L984.8,900.9L951.6,900.9L951.6,916.2L968.5,916.2L968.5,943.1C960.7,946.5 952.1,947.9 943.1,947.9C921,947.9 905.6,929.6 905.6,906C905.6,885.1 921.6,868.3 943.5,868.3C959.5,868.3 974,873.9 983,882.9L983,863.7C971.9,857 957.9,852.7 944.1,852.7C910.6,852.7 889,878.8 889,906C889,938 913.4,963.5 943.1,963.5Z" style="fill:white;fill-rule:nonzero;"/>
            <path d="M998.3,962L1014.6,962L1014.6,916.7L1026.7,916.7L1057.1,962L1075.1,962L1042.8,913.3C1052.6,908.3 1059.7,897.7 1059.7,885.4C1059.7,868 1044.9,854.5 1027.6,854.5L998.3,854.5L998.3,962ZM1030.4,901L1014.6,901L1014.6,869.9L1025.8,869.9C1035.6,869.9 1043.1,876.8 1043.1,885.5C1043.1,894 1037.5,901 1030.4,901Z" style="fill:white;fill-rule:nonzero;"/>
            <path d="M1128.3,963.5C1159.5,963.5 1184.1,939.1 1184.1,908.1C1184.1,877.1 1159.5,852.7 1128.3,852.7C1097,852.7 1072.4,877.1 1072.4,908.1C1072.4,939.1 1097,963.5 1128.3,963.5ZM1128.3,947.9C1106.4,947.9 1089,930.4 1089,908.1C1089,885.8 1106.4,868.3 1128.3,868.3C1150.2,868.3 1167.5,885.8 1167.5,908.1C1167.5,930.4 1150.2,947.9 1128.3,947.9Z" style="fill:white;fill-rule:nonzero;"/>
            <path d="M1239,963.5C1264.2,963.5 1283.9,943.4 1283.9,917.9L1283.9,854.5L1267.6,854.5L1267.6,917.9C1267.6,934.8 1255,947.9 1239,947.9C1223,947.9 1210.4,934.8 1210.4,917.9L1210.4,854.5L1194.1,854.5L1194.1,917.9C1194.1,943.4 1213.8,963.5 1239,963.5Z" style="fill:white;fill-rule:nonzero;"/>
            <path d="M1298.7,962L1314.9,962L1314.9,880.2L1379.3,962L1395.9,962L1395.9,854.5L1379.6,854.5L1379.6,936L1315.4,854.5L1298.7,854.5L1298.7,962Z" style="fill:white;fill-rule:nonzero;"/>
            <path d="M1412.2,962L1448.5,962C1479,962 1501.8,938.2 1501.8,906.6C1501.8,876.8 1478.8,854.5 1448.2,854.5L1412.2,854.5L1412.2,962ZM1448.5,946.6L1428.5,946.6L1428.5,869.9L1448.5,869.9C1469.5,869.9 1485.2,885.7 1485.2,906.9C1485.2,929.6 1469.5,946.6 1448.5,946.6Z" style="fill:white;fill-rule:nonzero;"/>
            <path d="M1548.9,962L1614,962L1614,946.6L1565.1,946.6L1565.1,912.1L1599.6,912.1L1599.6,896.7L1565.1,896.7L1565.1,869.9L1611,869.9L1611,854.5L1548.9,854.5L1548.9,962Z" style="fill:white;fill-rule:nonzero;"/>
            <path d="M1623.6,962L1685.5,962L1685.5,946.6L1639.9,946.6L1639.9,854.5L1623.6,854.5L1623.6,962Z" style="fill:white;fill-rule:nonzero;"/>
            <path d="M1695.9,962L1761,962L1761,946.6L1712.1,946.6L1712.1,912.1L1746.6,912.1L1746.6,896.7L1712.1,896.7L1712.1,869.9L1758,869.9L1758,854.5L1695.9,854.5L1695.9,962Z" style="fill:white;fill-rule:nonzero;"/>
            <path d="M1816.5,963.5C1832.1,963.5 1843.2,958.5 1852.8,951.5L1852.8,930.8C1845.2,940.8 1831.5,948.2 1817.1,948.2C1794.9,948.2 1778.3,930.4 1778.3,906.7C1778.3,884.6 1794.8,868 1816.7,868C1830.9,868 1844.9,874.8 1853.1,883.8L1853.1,863.7C1843.5,857.4 1833.2,852.7 1816.4,852.7C1785.1,852.7 1761.7,875.9 1761.7,906.7C1761.7,939.1 1785.3,963.5 1816.5,963.5Z" style="fill:white;fill-rule:nonzero;"/>
            <path d="M1890.2,962L1906.5,962L1906.5,869.9L1938.1,869.9L1938.1,854.5L1858.7,854.5L1858.7,869.9L1890.2,869.9L1890.2,962Z" style="fill:white;fill-rule:nonzero;"/>
            <path d="M1948.4,962L1964.7,962L1964.7,916.7L1976.9,916.7L2007.2,962L2025.3,962L1993,913.3C2002.8,908.3 2009.9,897.7 2009.9,885.4C2009.9,868 1995.1,854.5 1977.7,854.5L1948.4,854.5L1948.4,962ZM1980.6,901L1964.7,901L1964.7,869.9L1976,869.9C1985.7,869.9 1993.3,876.8 1993.3,885.5C1993.3,894 1987.7,901 1980.6,901Z" style="fill:white;fill-rule:nonzero;"/>
            <rect x="2034.3" y="854.5" width="16.3" height="107.5" style="fill:white;fill-rule:nonzero;"/>
            <path d="M2115.7,963.5C2131.3,963.5 2142.4,958.5 2152,951.5L2152,930.8C2144.4,940.8 2130.7,948.2 2116.3,948.2C2094.1,948.2 2077.5,930.4 2077.5,906.7C2077.5,884.6 2094,868 2115.9,868C2130.1,868 2144.1,874.8 2152.3,883.8L2152.3,863.7C2142.7,857.4 2132.4,852.7 2115.6,852.7C2084.3,852.7 2060.9,875.9 2060.9,906.7C2060.9,939.1 2084.5,963.5 2115.7,963.5Z" style="fill:white;fill-rule:nonzero;"/>
        </g>
    </g>
</svg>
