<?xml version="1.0" encoding="UTF-8" standalone="no"?>
<!DOCTYPE svg PUBLIC "-//W3C//DTD SVG 1.1//EN" "http://www.w3.org/Graphics/SVG/1.1/DTD/svg11.dtd">
<svg width="100%" height="100%" viewBox="0 0 2560 1440" version="1.1" xmlns="http://www.w3.org/2000/svg" xmlns:xlink="http://www.w3.org/1999/xlink" xml:space="preserve" xmlns:serif="http://www.serif.com/" style="fill-rule:evenodd;clip-rule:evenodd;stroke-linecap:round;stroke-linejoin:round;stroke-miterlimit:1.5;">
    <g transform="matrix(2.13203,0,0,1.557439,-1701.521399,-413.22699)">
        <rect x="798.076" y="265.325" width="1200.734" height="924.595" style="fill:rgb(34,34,34);stroke:white;stroke-width:1.07px;"/>
    </g>
    <g transform="matrix(1.283399,0,0,1.237622,-392.659751,1.440353)">
        <g transform="matrix(0.779181,0,0,0.808001,77.835753,31.251514)">
            <g transform="matrix(160,0,0,160,454.295135,274.769312)">
                <path d="M1.518,0.004C1.696,0.004 1.849,-0.116 1.878,-0.297L2.512,-0.297L2.386,-0.161L3.021,-0.348L2.388,-0.536L2.512,-0.397L1.878,-0.397C1.848,-0.567 1.697,-0.706 1.518,-0.706C1.328,-0.706 1.177,-0.565 1.148,-0.397L0.681,-0.397L0.554,-0.533L0.415,-0.533L0.542,-0.397L0.475,-0.397L0.348,-0.533L0.208,-0.533L0.336,-0.397L0.268,-0.397L0.142,-0.533L0.002,-0.533L0.13,-0.397L0.002,-0.397L0.002,-0.297L0.13,-0.297L0.002,-0.161L0.142,-0.161L0.268,-0.297L0.336,-0.297L0.208,-0.161L0.348,-0.161L0.475,-0.297L0.542,-0.297L0.415,-0.161L0.554,-0.161L0.681,-0.297L1.148,-0.297C1.177,-0.117 1.327,0.004 1.518,0.004ZM1.518,-0.086C1.388,-0.086 1.278,-0.175 1.248,-0.297L1.519,-0.297L1.519,-0.397L1.248,-0.397C1.277,-0.516 1.39,-0.606 1.518,-0.606C1.658,-0.606 1.778,-0.486 1.778,-0.346C1.778,-0.205 1.657,-0.086 1.518,-0.086Z" style="fill:white;"/>
            </g>
            <g>
                <g transform="matrix(1,0,0,1,939.575,274.769)">
                    <path d="M37.28,0L54.88,0L54.88,-96L88.96,-96L88.96,-112L3.2,-112L3.2,-96L37.28,-96L37.28,0Z" style="fill:white;"/>
                    <path d="M147.52,1.6C181.28,1.6 207.84,-23.84 207.84,-56.16C207.84,-88.48 181.28,-113.92 147.52,-113.92C113.76,-113.92 87.2,-88.48 87.2,-56.16C87.2,-23.84 113.76,1.6 147.52,1.6ZM147.52,-14.72C123.84,-14.72 105.12,-32.96 105.12,-56.16C105.12,-79.36 123.84,-97.6 147.52,-97.6C171.2,-97.6 189.92,-79.36 189.92,-56.16C189.92,-32.96 171.2,-14.72 147.52,-14.72Z" style="fill:white;"/>
                    <path d="M258.72,0L297.92,0C330.88,0 355.52,-24.8 355.52,-57.76C355.52,-88.8 330.72,-112 297.6,-112L258.72,-112L258.72,0ZM297.92,-16L276.32,-16L276.32,-96L297.92,-96C320.64,-96 337.6,-79.52 337.6,-57.44C337.6,-33.76 320.64,-16 297.92,-16Z" style="fill:white;"/>
                    <rect x="368" y="-112" width="17.6" height="112" style="fill:white;"/>
                    <path d="M432.48,0L450.08,0L450.08,-96L484.16,-96L484.16,-112L398.4,-112L398.4,-96L432.48,-96L432.48,0Z" style="fill:white;"/>
                </g>
                <g transform="matrix(1,0,0,1,1419.095,274.769)">
                    <path d="M62.08,1.6C78.88,1.6 90.88,-3.68 101.28,-10.88L101.28,-32.48C93.12,-22.08 78.24,-14.4 62.72,-14.4C38.72,-14.4 20.8,-32.96 20.8,-57.6C20.8,-80.64 38.56,-97.92 62.24,-97.92C77.6,-97.92 92.8,-90.88 101.6,-81.44L101.6,-102.4C91.2,-108.96 80.16,-113.92 61.92,-113.92C28.16,-113.92 2.88,-89.76 2.88,-57.6C2.88,-23.84 28.32,1.6 62.08,1.6Z" style="fill:white;"/>
                    <path d="M112.48,0L112.48,-112L130.08,-112L130.08,-65.76L187.2,-65.76L187.2,-112L204.8,-112L204.8,0L187.2,0L187.2,-49.76L130.08,-49.76L130.08,0L112.48,0Z" style="fill:white;"/>
                    <path d="M222.4,0L289.28,0L289.28,-16L240,-16L240,-112L222.4,-112L222.4,0Z" style="fill:white;"/>
                    <rect x="299.68" y="-112" width="17.6" height="112" style="fill:white;"/>
                    <path d="M333.76,0L351.36,0L351.36,-85.28L420.96,0L438.88,0L438.88,-112L421.28,-112L421.28,-27.04L351.84,-112L333.76,-112L333.76,0Z" style="fill:white;"/>
                    <path d="M508.16,1.6C524.8,1.6 540.32,-2.88 553.28,-10.88L553.28,-63.68L517.44,-63.68L517.44,-47.68L535.68,-47.68L535.68,-19.68C527.2,-16.16 517.92,-14.72 508.16,-14.72C484.32,-14.72 467.68,-33.76 467.68,-58.4C467.68,-80.16 484.96,-97.6 508.64,-97.6C525.92,-97.6 541.6,-91.84 551.36,-82.4L551.36,-102.4C539.36,-109.44 524.16,-113.92 509.28,-113.92C473.12,-113.92 449.76,-86.72 449.76,-58.4C449.76,-24.96 476.16,1.6 508.16,1.6Z" style="fill:white;"/>
                    <path d="M607.84,0L645.12,0C668.32,0 684,-14.72 684,-33.44C684,-48.64 677.92,-58.4 663.2,-63.84C669.76,-69.76 672.32,-74.88 672.32,-82.88C672.32,-99.2 658.56,-112 638.24,-112L607.84,-112L607.84,0ZM645.28,-16L625.44,-16L625.44,-53.12L644.96,-53.12C658.56,-53.12 666.08,-44.8 666.08,-33.6C666.08,-23.52 658.72,-16 645.28,-16ZM638.72,-69.12L625.44,-69.12L625.44,-96L638.24,-96C648.48,-96 654.4,-90.4 654.4,-82.88C654.4,-75.04 648.64,-69.12 638.72,-69.12Z" style="fill:white;"/>
                    <path d="M695.2,0L765.6,0L765.6,-16L712.8,-16L712.8,-52L750.08,-52L750.08,-68L712.8,-68L712.8,-96L762.4,-96L762.4,-112L695.2,-112L695.2,0Z" style="fill:white;"/>
                    <path d="M771.36,0L788.96,0L800.32,-28L846.56,-28L858.24,0L875.84,0L829.92,-112L817.28,-112L771.36,0ZM806.56,-43.2L823.2,-84.16L840.32,-43.2L806.56,-43.2Z" style="fill:white;"/>
                </g>
                <g transform="matrix(1,0,0,1,2290.135,274.769)">
                    <path d="M62.08,1.6C78.88,1.6 90.88,-3.68 101.28,-10.88L101.28,-32.48C93.12,-22.08 78.24,-14.4 62.72,-14.4C38.72,-14.4 20.8,-32.96 20.8,-57.6C20.8,-80.64 38.56,-97.92 62.24,-97.92C77.6,-97.92 92.8,-90.88 101.6,-81.44L101.6,-102.4C91.2,-108.96 80.16,-113.92 61.92,-113.92C28.16,-113.92 2.88,-89.76 2.88,-57.6C2.88,-23.84 28.32,1.6 62.08,1.6Z" style="fill:white;"/>
                    <path d="M166.56,1.6C200.32,1.6 226.88,-23.84 226.88,-56.16C226.88,-88.48 200.32,-113.92 166.56,-113.92C132.8,-113.92 106.24,-88.48 106.24,-56.16C106.24,-23.84 132.8,1.6 166.56,1.6ZM166.56,-14.72C142.88,-14.72 124.16,-32.96 124.16,-56.16C124.16,-79.36 142.88,-97.6 166.56,-97.6C190.24,-97.6 208.96,-79.36 208.96,-56.16C208.96,-32.96 190.24,-14.72 166.56,-14.72Z" style="fill:white;"/>
                    <path d="M239.2,0L256.8,0L256.8,-85.28L326.4,0L344.32,0L344.32,-112L326.72,-112L326.72,-27.04L257.28,-112L239.2,-112L239.2,0Z" style="fill:white;"/>
                </g>
            </g>
            <g transform="matrix(390,0,0,390,422.640135,685.513015)">
                <path d="M0.696,0.01L0.847,0.01L0.691,-0.126C0.742,-0.187 0.772,-0.265 0.772,-0.351C0.772,-0.553 0.606,-0.712 0.395,-0.712C0.184,-0.712 0.018,-0.553 0.018,-0.351C0.018,-0.149 0.184,0.01 0.395,0.01C0.479,0.01 0.556,-0.015 0.618,-0.058L0.696,0.01ZM0.395,-0.092C0.247,-0.092 0.13,-0.206 0.13,-0.351C0.13,-0.496 0.247,-0.61 0.395,-0.61C0.543,-0.61 0.66,-0.496 0.66,-0.351C0.66,-0.293 0.641,-0.24 0.609,-0.197L0.542,-0.256L0.477,-0.182L0.536,-0.131C0.495,-0.106 0.447,-0.092 0.395,-0.092ZM1.143,0.01C1.313,0.01 1.446,-0.121 1.446,-0.287L1.446,-0.7L1.336,-0.7L1.336,-0.287C1.336,-0.177 1.251,-0.092 1.143,-0.092C1.035,-0.092 0.95,-0.177 0.95,-0.287L0.95,-0.7L0.84,-0.7L0.84,-0.287C0.84,-0.121 0.973,0.01 1.143,0.01Z" style="fill:white;"/>
            </g>
            <g>
                <g transform="matrix(1,0,0,1,1006.08,685.513)">
                    <path d="M19.5,0L191.1,0L191.1,-39L62.4,-39L62.4,-126.75L153.27,-126.75L153.27,-165.75L62.4,-165.75L62.4,-234L183.3,-234L183.3,-273L19.5,-273L19.5,0Z" style="fill:white;"/>
                    <path d="M216.45,0L388.05,0L388.05,-39L259.35,-39L259.35,-126.75L350.22,-126.75L350.22,-165.75L259.35,-165.75L259.35,-234L380.25,-234L380.25,-273L216.45,-273L216.45,0Z" style="fill:white;"/>
                    <path d="M413.4,0L456.3,0L456.3,-207.87L625.95,0L669.63,0L669.63,-273L626.73,-273L626.73,-65.91L457.47,-273L413.4,-273L413.4,0Z" style="fill:white;"/>
                    <path d="M783.51,3.9C831.09,3.9 869.7,-28.47 869.7,-78.39C869.7,-128.31 839.28,-144.3 797.55,-165.75C765.96,-182.13 749.19,-190.71 749.19,-211.38C749.19,-228.15 763.23,-237.9 779.61,-237.9C800.28,-237.9 810.81,-226.59 818.22,-211.77L851.76,-236.73C839.28,-260.52 815.88,-277.68 781.17,-277.68C739.05,-277.68 703.56,-250.77 703.56,-209.43C703.56,-168.87 731.64,-149.37 766.74,-133.38C804.18,-116.22 826.02,-104.13 826.02,-74.1C826.02,-49.53 810.03,-35.88 783.51,-35.88C759.33,-35.88 742.56,-51.09 734.37,-74.1L698.1,-51.09C712.14,-18.33 742.56,3.9 783.51,3.9Z" style="fill:white;"/>
                    <path d="M962.91,0L1001.91,0L1062.36,-198.12L1122.81,0L1161.81,0L1251.9,-273L1210.95,-273L1143.87,-64.74L1083.81,-264.42L1042.86,-264.42L983.19,-64.74L915.33,-273L872.82,-273L962.91,0Z" style="fill:white;"/>
                    <path d="M1222.26,0L1265.16,0L1292.85,-68.25L1405.56,-68.25L1434.03,0L1476.93,0L1365,-273L1334.19,-273L1222.26,0ZM1308.06,-105.3L1348.62,-205.14L1390.35,-105.3L1308.06,-105.3Z" style="fill:white;"/>
                    <path d="M1531.14,0L1574.04,0L1574.04,-123.24L1665.3,-273L1621.23,-273L1552.59,-158.34L1483.95,-273L1438.71,-273L1531.14,-123.63L1531.14,0Z" style="fill:white;"/>
                </g>
            </g>
            <g transform="matrix(120,0,0,120,437.715135,894.039265)">
                <path d="M1.515,0.004C1.706,0.004 1.856,-0.117 1.885,-0.297L2.352,-0.297L2.479,-0.161L2.618,-0.161L2.491,-0.297L2.558,-0.297L2.685,-0.161L2.825,-0.161L2.697,-0.297L2.765,-0.297L2.891,-0.161L3.031,-0.161L2.903,-0.297L3.031,-0.297L3.031,-0.397L2.903,-0.397L3.031,-0.533L2.891,-0.533L2.765,-0.397L2.697,-0.397L2.825,-0.533L2.685,-0.533L2.558,-0.397L2.491,-0.397L2.618,-0.533L2.479,-0.533L2.352,-0.397L1.885,-0.397C1.856,-0.565 1.705,-0.706 1.515,-0.706C1.336,-0.706 1.185,-0.567 1.155,-0.397L0.521,-0.397L0.645,-0.536L0.012,-0.348L0.647,-0.161L0.521,-0.297L1.155,-0.297C1.184,-0.116 1.337,0.004 1.515,0.004ZM1.515,-0.086C1.376,-0.086 1.255,-0.205 1.255,-0.346C1.255,-0.486 1.375,-0.606 1.515,-0.606C1.643,-0.606 1.756,-0.516 1.785,-0.397L1.514,-0.397L1.514,-0.297L1.785,-0.297C1.755,-0.175 1.645,-0.086 1.515,-0.086Z" style="fill:white;"/>
            </g>
            <g>
                <g transform="matrix(1,0,0,1,831.675,894.039)">
                    <path d="M10.56,0L22.56,0L22.56,-46.2L42,-46.2L42,-57L22.56,-57L22.56,-63C22.56,-70.32 26.4,-73.8 32.04,-73.8C34.92,-73.8 37.56,-73.32 42,-71.04L42,-82.8C38.52,-84.24 34.68,-85.2 30.36,-85.2C17.88,-85.2 10.56,-77.04 10.56,-64.8L10.56,-56.88L0.96,-56.88L0.96,-46.32L10.56,-46.32L10.56,0Z" style="fill:white;"/>
                    <path d="M49.68,0L61.68,0L61.68,-38.52C64.44,-44.04 69.36,-46.44 75.36,-46.44C78.6,-46.44 81.96,-45.72 86.4,-43.2L86.4,-55.44C83.16,-57.12 79.92,-58.2 75.84,-58.2C70.32,-58.2 65.28,-56.28 61.68,-52.2L61.68,-57L49.68,-57L49.68,0Z" style="fill:white;"/>
                </g>
                <g transform="matrix(1,0,0,1,915.795,894.039)">
                    <path d="M33,1.2C49.44,1.2 62.28,-11.88 62.28,-28.44C62.28,-45.12 49.44,-58.2 33,-58.2C16.56,-58.2 3.72,-45.12 3.72,-28.44C3.72,-11.88 16.56,1.2 33,1.2ZM33,-10.2C23.28,-10.2 15.72,-18.24 15.72,-28.44C15.72,-38.76 23.28,-46.8 33,-46.8C42.72,-46.8 50.28,-38.76 50.28,-28.44C50.28,-18.24 42.72,-10.2 33,-10.2Z" style="fill:white;"/>
                    <path d="M148.68,-32.28L148.68,0L160.68,0L160.68,-32.88C160.68,-48.36 153.12,-58.2 138.36,-58.2C130.68,-58.2 123.84,-56.4 117.36,-49.92C113.52,-55.2 107.4,-58.2 99.72,-58.2C93,-58.2 87.48,-56.4 83.4,-53.4L83.4,-57L71.4,-57L71.4,0L83.4,0L83.4,-41.52C85.92,-44.52 90.48,-46.8 97.08,-46.8C105.48,-46.8 110.04,-41.4 110.04,-32.28L110.04,0L122.04,0L122.04,-32.88C122.04,-35.16 121.92,-37.32 121.56,-39.36C125.04,-44.4 129.72,-46.8 135.72,-46.8C144.12,-46.8 148.68,-42.84 148.68,-32.28Z" style="fill:white;"/>
                    <path d="M201.48,0L230.88,0C255.6,0 274.08,-18.6 274.08,-43.32C274.08,-66.6 255.48,-84 230.64,-84L201.48,-84L201.48,0ZM230.88,-12L214.68,-12L214.68,-72L230.88,-72C247.92,-72 260.64,-59.64 260.64,-43.08C260.64,-25.32 247.92,-12 230.88,-12Z" style="fill:white;"/>
                    <path d="M318.6,1.2C339,1.2 354.96,-14.52 354.96,-34.44L354.96,-84L341.76,-84L341.76,-34.44C341.76,-21.24 331.56,-11.04 318.6,-11.04C305.64,-11.04 295.44,-21.24 295.44,-34.44L295.44,-84L282.24,-84L282.24,-34.44C282.24,-14.52 298.2,1.2 318.6,1.2Z" style="fill:white;"/>
                    <path d="M366.96,0L417.12,0L417.12,-12L380.16,-12L380.16,-84L366.96,-84L366.96,0Z" style="fill:white;"/>
                </g>
                <g transform="matrix(1,0,0,1,1320.915,894.039)">
                    <path d="M29.16,0L41.16,0L59.76,-60.96L78.36,0L90.36,0L118.08,-84L105.48,-84L84.84,-19.92L66.36,-81.36L53.76,-81.36L35.4,-19.92L14.52,-84L1.44,-84L29.16,0Z" style="fill:white;"/>
                    <rect x="126.72" y="-84" width="13.2" height="84" style="fill:white;"/>
                    <path d="M192.72,1.2C205.32,1.2 214.32,-2.76 222.12,-8.16L222.12,-24.36C216,-16.56 204.84,-10.8 193.2,-10.8C175.2,-10.8 161.76,-24.72 161.76,-43.2C161.76,-60.48 175.08,-73.44 192.84,-73.44C204.36,-73.44 215.76,-68.16 222.36,-61.08L222.36,-76.8C214.56,-81.72 206.28,-85.44 192.6,-85.44C167.28,-85.44 148.32,-67.32 148.32,-43.2C148.32,-17.88 167.4,1.2 192.72,1.2Z" style="fill:white;"/>
                    <path d="M230.52,0L230.52,-84L243.72,-84L243.72,-49.32L286.56,-49.32L286.56,-84L299.76,-84L299.76,0L286.56,0L286.56,-37.32L243.72,-37.32L243.72,0L230.52,0Z" style="fill:white;"/>
                    <path d="M360.6,1.32C369.84,1.32 379.32,-3.36 384.84,-11.16L396.6,0L413.04,0L392.4,-20.88L407.76,-44.4L393.36,-44.4L383.76,-29.52L371.04,-42.24C378.12,-45.48 386.16,-51.96 386.16,-63.84C386.16,-74.64 376.32,-84 364.32,-84C352.68,-84 343.32,-74.4 343.32,-63.48C343.32,-56.64 347.04,-49.56 350.64,-45.84C342.12,-41.64 336.36,-33.72 336.36,-23.64C336.36,-9.24 346.56,0.36 360.6,1.32ZM361.08,-10.68C354.24,-10.68 348.36,-16.44 348.36,-23.64C348.36,-31.92 356.04,-35.88 359.52,-36.84L375.96,-20.16C372.72,-14.16 366.84,-10.68 361.08,-10.68ZM361.8,-51.84C358.2,-55.44 355.32,-57 355.32,-63.48C355.32,-67.92 359.4,-72 364.32,-72C369.72,-72 374.16,-68.28 374.16,-64.08C374.16,-57 367.92,-53.16 361.8,-51.84Z" style="fill:white;"/>
                    <path d="M490.8,1.2C503.4,1.2 512.4,-2.76 520.2,-8.16L520.2,-24.36C514.08,-16.56 502.92,-10.8 491.28,-10.8C473.28,-10.8 459.84,-24.72 459.84,-43.2C459.84,-60.48 473.16,-73.44 490.92,-73.44C502.44,-73.44 513.84,-68.16 520.44,-61.08L520.44,-76.8C512.64,-81.72 504.36,-85.44 490.68,-85.44C465.36,-85.44 446.4,-67.32 446.4,-43.2C446.4,-17.88 465.48,1.2 490.8,1.2Z" style="fill:white;"/>
                    <path d="M528.6,0L541.8,0L541.8,-35.4L551.64,-35.4L576.24,0L590.88,0L564.72,-38.04C572.64,-42 578.4,-50.28 578.4,-59.88C578.4,-73.44 566.4,-84 552.36,-84L528.6,-84L528.6,0ZM554.64,-47.64L541.8,-47.64L541.8,-72L550.92,-72C558.84,-72 564.96,-66.6 564.96,-59.76C564.96,-53.16 560.4,-47.64 554.64,-47.64Z" style="fill:white;"/>
                </g>
                <g transform="matrix(1,0,0,1,1902.315,894.039)">
                    <path d="M29.28,0L42.48,0L42.48,-37.92L70.56,-84L57,-84L35.88,-48.72L14.76,-84L0.84,-84L29.28,-38.04L29.28,0Z" style="fill:white;"/>
                    <path d="M98.88,1.2C113.52,1.2 125.4,-8.76 125.4,-24.12C125.4,-39.48 116.04,-44.4 103.2,-51C93.48,-56.04 88.32,-58.68 88.32,-65.04C88.32,-70.2 92.64,-73.2 97.68,-73.2C104.04,-73.2 107.28,-69.72 109.56,-65.16L119.88,-72.84C116.04,-80.16 108.84,-85.44 98.16,-85.44C85.2,-85.44 74.28,-77.16 74.28,-64.44C74.28,-51.96 82.92,-45.96 93.72,-41.04C105.24,-35.76 111.96,-32.04 111.96,-22.8C111.96,-15.24 107.04,-11.04 98.88,-11.04C91.44,-11.04 86.28,-15.72 83.76,-22.8L72.6,-15.72C76.92,-5.64 86.28,1.2 98.88,1.2Z" style="fill:white;"/>
                    <path d="M154.56,0L167.76,0L167.76,-72L193.32,-72L193.32,-84L129,-84L129,-72L154.56,-72L154.56,0Z" style="fill:white;"/>
                </g>
                <g transform="matrix(1,0,0,1,2084.715,894.039)">
                    <path d="M1.44,0L14.64,0L23.16,-21L57.84,-21L66.6,0L79.8,0L45.36,-84L35.88,-84L1.44,0ZM27.84,-32.4L40.32,-63.12L53.16,-32.4L27.84,-32.4Z" style="fill:white;"/>
                    <path d="M87.24,0L137.4,0L137.4,-12L100.44,-12L100.44,-84L87.24,-84L87.24,0Z" style="fill:white;"/>
                    <path d="M174.84,0L188.04,0L188.04,-32.16L199.92,-32.16C216,-32.16 228.72,-43.56 228.72,-58.08C228.72,-72.6 216,-84 199.8,-84L174.84,-84L174.84,0ZM199.92,-44.16L188.04,-44.16L188.04,-72L199.92,-72C208.92,-72 215.28,-66.24 215.28,-58.08C215.28,-49.92 208.92,-44.16 199.92,-44.16Z" style="fill:white;"/>
                </g>
                <g transform="matrix(1,0,0,1,2303.955,894.039)">
                    <path d="M1.44,0L14.64,0L23.16,-21L57.84,-21L66.6,0L79.8,0L45.36,-84L35.88,-84L1.44,0ZM27.84,-32.4L40.32,-63.12L53.16,-32.4L27.84,-32.4Z" style="fill:white;"/>
                    <path d="M87.24,0L137.4,0L137.4,-12L100.44,-12L100.44,-84L87.24,-84L87.24,0Z" style="fill:white;"/>
                    <path d="M140.28,0L153.48,0L162,-21L196.68,-21L205.44,0L218.64,0L184.2,-84L174.72,-84L140.28,0ZM166.68,-32.4L179.16,-63.12L192,-32.4L166.68,-32.4Z" style="fill:white;"/>
                </g>
                <g transform="matrix(1,0,0,1,2518.995,894.039)">
                    <path d="M46.56,1.2C59.16,1.2 68.16,-2.76 75.96,-8.16L75.96,-24.36C69.84,-16.56 58.68,-10.8 47.04,-10.8C29.04,-10.8 15.6,-24.72 15.6,-43.2C15.6,-60.48 28.92,-73.44 46.68,-73.44C58.2,-73.44 69.6,-68.16 76.2,-61.08L76.2,-76.8C68.4,-81.72 60.12,-85.44 46.44,-85.44C21.12,-85.44 2.16,-67.32 2.16,-43.2C2.16,-17.88 21.24,1.2 46.56,1.2Z" style="fill:white;"/>
                    <path d="M84.36,0L137.16,0L137.16,-12L97.56,-12L97.56,-39L125.52,-39L125.52,-51L97.56,-51L97.56,-72L134.76,-72L134.76,-84L84.36,-84L84.36,0Z" style="fill:white;"/>
                </g>
            </g>
            <g>
                <g transform="matrix(1,0,0,1,430.985,1151.899)">
                    <path d="M67.07,1.9C99.37,1.9 124.64,-22.99 124.64,-54.53L124.64,-133L103.74,-133L103.74,-54.53C103.74,-33.63 87.59,-17.48 67.07,-17.48C46.55,-17.48 30.4,-33.63 30.4,-54.53L30.4,-133L9.5,-133L9.5,-54.53C9.5,-22.99 34.77,1.9 67.07,1.9Z" style="fill:white;"/>
                    <path d="M143.64,0L164.54,0L164.54,-101.27L247.19,0L268.47,0L268.47,-133L247.57,-133L247.57,-32.11L165.11,-133L143.64,-133L143.64,0Z" style="fill:white;"/>
                </g>
                <g transform="matrix(1,0,0,1,710.855,1151.899)">
                    <path d="M9.5,0L56.05,0C95.19,0 124.45,-29.45 124.45,-68.59C124.45,-105.45 95,-133 55.67,-133L9.5,-133L9.5,0ZM56.05,-19L30.4,-19L30.4,-114L56.05,-114C83.03,-114 103.17,-94.43 103.17,-68.21C103.17,-40.09 83.03,-19 56.05,-19Z" style="fill:white;"/>
                    <path d="M139.08,0L222.68,0L222.68,-19L159.98,-19L159.98,-61.75L204.25,-61.75L204.25,-80.75L159.98,-80.75L159.98,-114L218.88,-114L218.88,-133L139.08,-133L139.08,0Z" style="fill:white;"/>
                    <path d="M235.03,0L255.93,0L255.93,-56.05L271.51,-56.05L310.46,0L333.64,0L292.22,-60.23C304.76,-66.5 313.88,-79.61 313.88,-94.81C313.88,-116.28 294.88,-133 272.65,-133L235.03,-133L235.03,0ZM276.26,-75.43L255.93,-75.43L255.93,-114L270.37,-114C282.91,-114 292.6,-105.45 292.6,-94.62C292.6,-84.17 285.38,-75.43 276.26,-75.43Z" style="fill:white;"/>
                    <path d="M399.57,1.9C419.33,1.9 437.76,-3.42 453.15,-12.92L453.15,-75.62L410.59,-75.62L410.59,-56.62L432.25,-56.62L432.25,-23.37C422.18,-19.19 411.16,-17.48 399.57,-17.48C371.26,-17.48 351.5,-40.09 351.5,-69.35C351.5,-95.19 372.02,-115.9 400.14,-115.9C420.66,-115.9 439.28,-109.06 450.87,-97.85L450.87,-121.6C436.62,-129.96 418.57,-135.28 400.9,-135.28C357.96,-135.28 330.22,-102.98 330.22,-69.35C330.22,-29.64 361.57,1.9 399.57,1.9Z" style="fill:white;"/>
                    <path d="M470.44,0L491.34,0L491.34,-56.05L506.92,-56.05L545.87,0L569.05,0L527.63,-60.23C540.17,-66.5 549.29,-79.61 549.29,-94.81C549.29,-116.28 530.29,-133 508.06,-133L470.44,-133L470.44,0ZM511.67,-75.43L491.34,-75.43L491.34,-114L505.78,-114C518.32,-114 528.01,-105.45 528.01,-94.62C528.01,-84.17 520.79,-75.43 511.67,-75.43Z" style="fill:white;"/>
                    <path d="M637.26,1.9C677.35,1.9 708.89,-28.31 708.89,-66.69C708.89,-105.07 677.35,-135.28 637.26,-135.28C597.17,-135.28 565.63,-105.07 565.63,-66.69C565.63,-28.31 597.17,1.9 637.26,1.9ZM637.26,-17.48C609.14,-17.48 586.91,-39.14 586.91,-66.69C586.91,-94.24 609.14,-115.9 637.26,-115.9C665.38,-115.9 687.61,-94.24 687.61,-66.69C687.61,-39.14 665.38,-17.48 637.26,-17.48Z" style="fill:white;"/>
                    <path d="M779.38,1.9C811.68,1.9 836.95,-22.99 836.95,-54.53L836.95,-133L816.05,-133L816.05,-54.53C816.05,-33.63 799.9,-17.48 779.38,-17.48C758.86,-17.48 742.71,-33.63 742.71,-54.53L742.71,-133L721.81,-133L721.81,-54.53C721.81,-22.99 747.08,1.9 779.38,1.9Z" style="fill:white;"/>
                    <path d="M855.95,0L876.85,0L876.85,-101.27L959.5,0L980.78,0L980.78,-133L959.88,-133L959.88,-32.11L877.42,-133L855.95,-133L855.95,0Z" style="fill:white;"/>
                </g>
                <g transform="matrix(1,0,0,1,1703.035,1151.899)">
                    <path d="M9.5,0L56.05,0C95.19,0 124.45,-29.45 124.45,-68.59C124.45,-105.45 95,-133 55.67,-133L9.5,-133L9.5,0ZM56.05,-19L30.4,-19L30.4,-114L56.05,-114C83.03,-114 103.17,-94.43 103.17,-68.21C103.17,-40.09 83.03,-19 56.05,-19Z" style="fill:white;"/>
                    <path d="M184.87,0L268.47,0L268.47,-19L205.77,-19L205.77,-61.75L250.04,-61.75L250.04,-80.75L205.77,-80.75L205.77,-114L264.67,-114L264.67,-133L184.87,-133L184.87,0Z" style="fill:white;"/>
                </g>
                <g transform="matrix(1,0,0,1,1974.355,1151.899)">
                    <path d="M9.5,0L88.92,0L88.92,-19L30.4,-19L30.4,-133L9.5,-133L9.5,0Z" style="fill:white;"/>
                    <path d="M102.22,0L185.82,0L185.82,-19L123.12,-19L123.12,-61.75L167.39,-61.75L167.39,-80.75L123.12,-80.75L123.12,-114L182.02,-114L182.02,-133L102.22,-133L102.22,0Z" style="fill:white;"/>
                    <path d="M257.07,1.9C277.02,1.9 291.27,-4.37 303.62,-12.92L303.62,-38.57C293.93,-26.22 276.26,-17.1 257.83,-17.1C229.33,-17.1 208.05,-39.14 208.05,-68.4C208.05,-95.76 229.14,-116.28 257.26,-116.28C275.5,-116.28 293.55,-107.92 304,-96.71L304,-121.6C291.65,-129.39 278.54,-135.28 256.88,-135.28C216.79,-135.28 186.77,-106.59 186.77,-68.4C186.77,-28.31 216.98,1.9 257.07,1.9Z" style="fill:white;"/>
                    <path d="M351.69,0L372.59,0L372.59,-114L413.06,-114L413.06,-133L311.22,-133L311.22,-114L351.69,-114L351.69,0Z" style="fill:white;"/>
                    <path d="M426.36,0L447.26,0L447.26,-56.05L462.84,-56.05L501.79,0L524.97,0L483.55,-60.23C496.09,-66.5 505.21,-79.61 505.21,-94.81C505.21,-116.28 486.21,-133 463.98,-133L426.36,-133L426.36,0ZM467.59,-75.43L447.26,-75.43L447.26,-114L461.7,-114C474.24,-114 483.93,-105.45 483.93,-94.62C483.93,-84.17 476.71,-75.43 467.59,-75.43Z" style="fill:white;"/>
                </g>
                <g transform="matrix(1,0,0,1,2499.515,1151.899)">
                    <rect x="11.4" y="-133" width="20.9" height="133" style="fill:white;"/>
                    <path d="M115.9,1.9C135.85,1.9 150.1,-4.37 162.45,-12.92L162.45,-38.57C152.76,-26.22 135.09,-17.1 116.66,-17.1C88.16,-17.1 66.88,-39.14 66.88,-68.4C66.88,-95.76 87.97,-116.28 116.09,-116.28C134.33,-116.28 152.38,-107.92 162.83,-96.71L162.83,-121.6C150.48,-129.39 137.37,-135.28 115.71,-135.28C75.62,-135.28 45.6,-106.59 45.6,-68.4C45.6,-28.31 75.81,1.9 115.9,1.9Z" style="fill:white;"/>
                </g>
            </g>
        </g>
    </g>
</svg>
