<?xml version="1.0" encoding="UTF-8" standalone="no"?><!DOCTYPE svg PUBLIC "-//W3C//DTD SVG 1.1//EN" "http://www.w3.org/Graphics/SVG/1.1/DTD/svg11.dtd"><svg width="100%" height="100%" viewBox="0 0 10667 6000" version="1.1" xmlns="http://www.w3.org/2000/svg" xmlns:xlink="http://www.w3.org/1999/xlink" xml:space="preserve" xmlns:serif="http://www.serif.com/" style="fill-rule:evenodd;clip-rule:evenodd;stroke-linejoin:round;stroke-miterlimit:2;"><rect x="-446.8" y="-375.4" width="11560.2" height="6750.7" style="fill:#222;"/><g><path d="M2177.7,1496.2c95.3,0 184.2,-25.7 258.5,-71.5l0,-302.5l-205.3,0l0,91.7l104.5,0l0,160.4c-48.6,20.2 -101.8,28.4 -157.7,28.4c-136.6,0 -231.9,-109.1 -231.9,-250.2c0,-124.7 99,-224.6 234.7,-224.6c99,0 188.8,33 244.8,87.1l0,-114.6c-68.8,-40.3 -155.8,-66 -241.1,-66c-207.2,0 -341,155.8 -341,318.1c0,191.6 151.2,343.8 334.6,343.8Z" style="fill:#d5d5d5;fill-rule:nonzero;"/><path d="M2519.7,1487l100.8,0l0,-270.4l75.2,0l187.9,270.4l111.8,0l-199.8,-290.6c60.5,-30.3 104.5,-93.5 104.5,-166.8c0,-103.6 -91.7,-184.2 -198.9,-184.2l-181.5,0l0,641.7Zm198.9,-363.9l-98.1,0l0,-186.1l69.7,0c60.5,0 107.2,41.2 107.2,93.5c0,50.4 -34.8,92.6 -78.8,92.6Z" style="fill:#d5d5d5;fill-rule:nonzero;"/><path d="M3051.3,1487l403.3,0l0,-91.7l-302.5,0l0,-206.2l213.6,0l0,-91.7l-213.6,0l0,-160.4l284.2,0l0,-91.7l-385,0l0,641.7Z" style="fill:#d5d5d5;fill-rule:nonzero;"/><path d="M3514.2,1487l403.3,0l0,-91.7l-302.5,0l0,-206.2l213.6,0l0,-91.7l-213.6,0l0,-160.4l284.2,0l0,-91.7l-385,0l0,641.7Z" style="fill:#d5d5d5;fill-rule:nonzero;"/><path d="M3977.2,1487l100.8,0l0,-488.6l398.8,488.6l102.7,0l0,-641.7l-100.8,0l0,486.8l-397.8,-486.8l-103.6,0l0,641.7Z" style="fill:#d5d5d5;fill-rule:nonzero;"/><path d="M4848,1487l91.7,0l142.1,-465.7l142.1,465.7l91.7,0l211.8,-641.7l-96.2,0l-157.7,489.5l-141.2,-469.3l-96.2,0l-140.2,469.3l-159.5,-489.5l-99.9,0l211.7,641.7Z" style="fill:#d5d5d5;fill-rule:nonzero;"/><rect x="5593.2" y="845.4" width="100.8" height="641.7" style="fill:#d5d5d5;fill-rule:nonzero;"/><path d="M6097.4,1496.2c96.3,0 165,-30.2 224.6,-71.5l0,-123.8c-46.8,59.6 -132,103.6 -220.9,103.6c-137.5,0 -240.2,-106.3 -240.2,-247.5c0,-132 101.7,-231 237.4,-231c88,0 175.1,40.3 225.5,94.4l0,-120.1c-59.6,-37.6 -122.8,-66 -227.3,-66c-193.4,0 -338.2,138.4 -338.2,322.7c0,193.4 145.7,339.2 339.2,339.2Z" style="fill:#d5d5d5;fill-rule:nonzero;"/><path d="M6386.2,1487l0,-641.7l100.8,0l0,264.9l327.3,0l0,-264.9l100.8,0l0,641.7l-100.8,0l0,-285.1l-327.3,0l0,285.1l-100.8,0Z" style="fill:#d5d5d5;fill-rule:nonzero;"/><path d="M7235.9,1487l100.8,0l0,-245.7l90.8,0c122.8,0 220,-87.1 220,-198c0,-110.9 -97.2,-198 -220.9,-198l-190.7,0l0,641.7Zm191.6,-337.3l-90.8,0l0,-212.7l90.8,0c68.8,0 117.3,44 117.3,106.3c0,62.3 -48.6,106.3 -117.3,106.3Z" style="fill:#d5d5d5;fill-rule:nonzero;"/><path d="M7586.1,1487l100.8,0l65.1,-160.4l264.9,0l66.9,160.4l100.8,0l-263.1,-641.7l-72.4,0l-263.1,641.7Zm201.7,-247.5l95.3,-234.7l98.1,234.7l-193.4,0Z" style="fill:#d5d5d5;fill-rule:nonzero;"/><path d="M8241.5,1487l100.8,0l0,-270.4l75.2,0l187.9,270.4l111.8,0l-199.8,-290.6c60.5,-30.3 104.5,-93.5 104.5,-166.8c0,-103.6 -91.7,-184.2 -198.9,-184.2l-181.5,0l0,641.7Zm198.9,-363.9l-98.1,0l0,-186.1l69.7,0c60.5,0 107.2,41.2 107.2,93.5c0,50.4 -34.8,92.6 -78.8,92.6Z" style="fill:#d5d5d5;fill-rule:nonzero;"/><path d="M8773.2,1487l100.8,0l0,-304.3l289.7,304.3l132,0l-330,-350.2l330,-291.5l-133.8,0l-287.8,253.9l0,-253.9l-100.8,0l0,641.7Z" style="fill:#d5d5d5;fill-rule:nonzero;"/><path d="M1923.8,3214.7l245.4,0l-253.5,-221c82.9,-99.1 131.6,-225.9 131.6,-365.6c0,-328.2 -269.8,-586.6 -612.6,-586.6c-342.9,0 -612.6,258.4 -612.6,586.6c0,328.2 269.8,586.6 612.6,586.6c136.5,0 261.6,-40.6 362.4,-110.5l126.8,110.5Zm-489.1,-165.8c-240.5,0 -430.6,-185.3 -430.6,-420.9c0,-235.6 190.1,-420.9 430.6,-420.9c240.5,0 430.6,185.3 430.6,420.9c0,94.2 -30.9,180.4 -82.9,250.2l-108.9,-95.9l-105.6,120.2l95.9,82.9c-66.6,40.6 -144.6,63.4 -229.1,63.4Zm1215.5,165.8c276.2,0 492.4,-212.9 492.4,-482.6l0,-671.1l-178.7,0l0,671.1c0,178.7 -138.1,316.9 -313.6,316.9c-175.5,0 -313.6,-138.1 -313.6,-316.9l0,-671.1l-178.8,0l0,671.1c0,269.7 216.1,482.6 492.4,482.6Z" style="fill:#d5d5d5;fill-rule:nonzero;"/><path d="M3305,3198.5l715,0l0,-162.5l-536.3,0l0,-365.6l378.6,0l0,-162.5l-378.6,0l0,-284.4l503.8,0l0,-162.5l-682.5,0l0,1137.5Z" style="fill:#d5d5d5;fill-rule:nonzero;"/><path d="M4125.6,3198.5l715,0l0,-162.5l-536.2,0l0,-365.6l378.6,0l0,-162.5l-378.6,0l0,-284.4l503.7,0l0,-162.5l-682.5,0l0,1137.5Z" style="fill:#d5d5d5;fill-rule:nonzero;"/><path d="M4946.3,3198.5l178.8,0l0,-866.1l706.9,866.1l182,0l0,-1137.5l-178.8,0l0,862.9l-705.2,-862.9l-183.6,0l0,1137.5Z" style="fill:#d5d5d5;fill-rule:nonzero;"/><path d="M6488.4,3214.7c198.2,0 359.1,-134.9 359.1,-342.9c0,-208 -126.8,-274.6 -300.6,-364c-131.6,-68.2 -201.5,-104 -201.5,-190.1c0,-69.9 58.5,-110.5 126.8,-110.5c86.1,0 130,47.1 160.9,108.9l139.8,-104c-52,-99.1 -149.5,-170.6 -294.1,-170.6c-175.5,0 -323.4,112.1 -323.4,284.4c0,169 117,250.2 263.2,316.9c156,71.5 247,121.9 247,247c0,102.4 -66.6,159.2 -177.1,159.2c-100.7,0 -170.6,-63.4 -204.8,-159.2l-151.1,95.9c58.5,136.5 185.2,229.1 355.9,229.1Z" style="fill:#d5d5d5;fill-rule:nonzero;"/><path d="M7235.9,3198.5l162.5,0l251.9,-825.5l251.9,825.5l162.5,0l375.4,-1137.5l-170.6,0l-279.5,867.8l-250.2,-832l-170.6,0l-248.6,832l-282.8,-867.8l-177.1,0l375.4,1137.5Z" style="fill:#d5d5d5;fill-rule:nonzero;"/><path d="M8316.5,3198.5l178.8,0l115.4,-284.4l469.6,0l118.6,284.4l178.7,0l-466.4,-1137.5l-128.4,0l-466.4,1137.5Zm357.5,-438.8l169,-416l173.9,416l-342.9,0Z" style="fill:#d5d5d5;fill-rule:nonzero;"/><path d="M9603.5,3198.5l178.7,0l0,-513.5l380.2,-624l-183.6,0l-286,477.8l-286,-477.8l-188.5,0l385.1,622.4l0,515.1Z" style="fill:#d5d5d5;fill-rule:nonzero;"/><path d="M1627.5,4165.4c106.6,0 190.4,-67.6 206.6,-168.1l260.7,0l70.9,75.9l77.6,0l-70.9,-75.9l37.4,0l70.9,75.9l78.2,0l-71.5,-75.9l38,0l70.3,75.9l78.2,0l-71.5,-75.9l71.5,0l0,-55.8l-71.5,0l71.5,-75.9l-78.2,0l-70.3,75.9l-38,0l71.5,-75.9l-78.2,0l-70.9,75.9l-37.4,0l70.9,-75.9l-77.6,0l-70.9,75.9l-260.7,0c-16.2,-93.8 -100.5,-172.5 -206.6,-172.5c-99.9,0 -184.3,77.6 -201,172.5l-354,0l69.2,-77.6l-353.4,105l354.5,104.4l-70.3,-75.9l354,0c16.2,101.1 101.6,168.1 201,168.1Zm0,-50.2c-77.6,0 -145.2,-66.4 -145.2,-145.2c0,-78.2 67,-145.2 145.2,-145.2c71.5,0 134.6,50.2 150.8,116.7l-151.3,0l0,55.8l151.3,0c-16.8,68.1 -78.2,117.8 -150.8,117.8Z" style="fill:#d5d5d5;fill-rule:nonzero;"/><path d="M2663.7,4163.1l55.8,0l0,-215l90.4,0l0,-50.2l-90.4,0l0,-27.9c0,-34.1 17.9,-50.2 44.1,-50.2c13.4,0 25.7,2.2 46.3,12.8l0,-54.7c-16.2,-6.7 -34.1,-11.2 -54.2,-11.2c-58.1,0 -92.1,38 -92.1,94.9l0,36.8l-44.7,0l0,49.1l44.7,0l0,215.5Z" style="fill:#d5d5d5;fill-rule:nonzero;"/><path d="M2845.8,4163.1l55.8,0l0,-179.2c12.8,-25.7 35.7,-36.8 63.6,-36.8c15.1,0 30.7,3.3 51.4,15.1l0,-56.9c-15.1,-7.8 -30.1,-12.8 -49.1,-12.8c-25.7,0 -49.1,8.9 -65.9,27.9l0,-22.3l-55.8,0l0,265.2Z" style="fill:#d5d5d5;fill-rule:nonzero;"/><path d="M3159.5,4168.7c76.5,0 136.2,-60.9 136.2,-137.9c0,-77.6 -59.7,-138.5 -136.2,-138.5c-76.5,0 -136.2,60.9 -136.2,138.5c0,77.1 59.7,137.9 136.2,137.9Zm0,-53c-45.2,0 -80.4,-37.4 -80.4,-84.9c0,-48 35.2,-85.4 80.4,-85.4c45.2,0 80.4,37.4 80.4,85.4c0,47.5 -35.2,84.9 -80.4,84.9Z" style="fill:#d5d5d5;fill-rule:nonzero;"/><path d="M3697.8,4012.9l0,150.2l55.8,0l0,-153c0,-72 -35.2,-117.8 -103.9,-117.8c-35.7,0 -67.6,8.4 -97.7,38.5c-17.9,-24.6 -46.3,-38.5 -82.1,-38.5c-31.3,0 -57,8.4 -75.9,22.3l0,-16.8l-55.8,0l0,265.2l55.8,0l0,-193.2c11.7,-14 32.9,-24.6 63.6,-24.6c39.1,0 60.3,25.1 60.3,67.6l0,150.2l55.8,0l0,-153c0,-10.6 -0.6,-20.7 -2.2,-30.1c16.2,-23.5 38,-34.6 65.9,-34.6c39.1,0 60.3,18.4 60.3,67.6Z" style="fill:#d5d5d5;fill-rule:nonzero;"/><path d="M3943.4,4163.1l61.4,0l0,-181.5l130.1,0l0,-55.8l-130.1,0l0,-97.7l173.1,0l0,-55.8l-234.5,0l0,390.8Z" style="fill:#d5d5d5;fill-rule:nonzero;"/><path d="M4260,4168.7c26.2,0 48,-7.3 66.4,-19.5l0,14l55.8,0l0,-167.5c0,-83.7 -54.7,-103.3 -103.9,-103.3c-31.3,0 -58.6,8.4 -81.5,22.9l-20.7,69.2l5.6,0c31.3,-28.5 58.1,-38.5 88.8,-38.5c44.7,0 55.8,22.9 55.8,55.3c-77.6,0 -155.8,20.7 -155.8,92.7c0,47.5 36.3,74.8 89.3,74.8Zm5,-45.2c-25.1,0 -41.3,-10.6 -41.3,-31.8c0,-25.7 25.1,-49.1 102.7,-47.5l0,57.5c-15.1,11.7 -38,21.8 -61.4,21.8Z" style="fill:#d5d5d5;fill-rule:nonzero;"/><path d="M4433.7,4163.1l55.8,0l0,-179.2c12.8,-25.7 35.7,-36.8 63.7,-36.8c15.1,0 30.7,3.3 51.4,15.1l0,-56.9c-15.1,-7.8 -30.1,-12.8 -49.1,-12.8c-25.7,0 -49.1,8.9 -65.9,27.9l0,-22.3l-55.8,0l0,265.2Z" style="fill:#d5d5d5;fill-rule:nonzero;"/><path d="M4638.6,4163.1l55.8,0l0,-179.2c12.8,-25.7 35.7,-36.8 63.7,-36.8c15.1,0 30.7,3.3 51.4,15.1l0,-56.9c-15.1,-7.8 -30.1,-12.8 -49.1,-12.8c-25.7,0 -49.1,8.9 -65.9,27.9l0,-22.3l-55.8,0l0,265.2Z" style="fill:#d5d5d5;fill-rule:nonzero;"/><path d="M4848.5,4163.1l55.8,0l0,-265.2l-55.8,0l0,265.2Zm27.9,-300.4l39.1,-39.1l-39.1,-39.6l-39.1,39.6l39.1,39.1Z" style="fill:#d5d5d5;fill-rule:nonzero;"/><path d="M4958.5,4163.1l55.8,0l0,-193.2c11.7,-14 32.9,-24.6 63.6,-24.6c42.4,0 65.9,25.1 65.9,67.6l0,150.2l55.8,0l0,-153c0,-73.7 -41.9,-117.8 -109.4,-117.8c-31.3,0 -57,8.4 -75.9,22.3l0,-16.8l-55.8,0l0,265.2Z" style="fill:#d5d5d5;fill-rule:nonzero;"/><path d="M5349.3,4294.3c81.5,0 131.2,-29 131.2,-83.2c0,-41.3 -20.1,-65.3 -69.8,-77.6l-57.5,-14c-26.8,-6.7 -43.5,-10.6 -43.5,-23.5c0,-3.9 1.1,-7.3 5,-10.6c11.2,3.3 22.3,5 34.6,5c59.7,0 105,-42.4 105,-99.4c0,-17.9 -4.5,-34.1 -12.8,-48.6l35.7,0l0,-44.7l-91.6,0c-11.7,-3.9 -23.4,-5.6 -36.3,-5.6c-59.7,0 -105,42.4 -105,98.8c0,30.1 12.8,55.8 33.5,73.7c-12.8,9.5 -24,21.2 -24,41.3c0,16.8 8.4,30.7 21.8,40.2c-32.9,14.5 -56.4,34.6 -56.4,67.6c0,57.5 59.7,80.4 130.1,80.4Zm0,-252.9c-29.6,0 -51.9,-21.8 -51.9,-50.2c0,-28.5 22.3,-49.7 51.9,-49.7c29.6,0 51.9,21.2 51.9,49.7c0,28.5 -22.3,50.2 -51.9,50.2Zm-73.7,165.8c0,-16.8 17.3,-31.8 50.8,-42.4l54.7,13.4c30.7,7.8 43.5,19 43.5,31.8c0,22.9 -39.6,31.3 -75.4,31.3c-35.7,0 -73.7,-8.9 -73.7,-34.1Z" style="fill:#d5d5d5;fill-rule:nonzero;"/><path d="M5631.3,4168.7c25.7,0 50.2,-7.3 71.5,-20.1l0,14.5l55.8,0l0,-390.8l-55.8,0l0,140.1c-21.8,-13.4 -45.2,-20.1 -70.9,-20.1c-77.6,0 -137.4,60.9 -137.4,135.7c0,79.8 59.7,140.7 136.8,140.7Zm2.8,-53c-48.6,0 -83.8,-37.4 -83.8,-87.1c0,-45.8 35.2,-83.2 83.8,-83.2c25.7,0 51.9,10 68.7,25.7l0,115.6c-16.2,18.4 -43.5,29 -68.7,29Z" style="fill:#d5d5d5;fill-rule:nonzero;"/><path d="M5937.3,4168.7c76.5,0 136.2,-60.9 136.2,-137.9c0,-77.6 -59.7,-138.5 -136.2,-138.5c-76.5,0 -136.2,60.9 -136.2,138.5c0,77.1 59.7,137.9 136.2,137.9Zm0,-53c-45.2,0 -80.4,-37.4 -80.4,-84.9c0,-48 35.2,-85.4 80.4,-85.4c45.2,0 80.4,37.4 80.4,85.4c0,47.5 -35.2,84.9 -80.4,84.9Z" style="fill:#d5d5d5;fill-rule:nonzero;"/><path d="M6115.9,4163.1l55.8,0l0,-193.2c11.7,-14 32.9,-24.6 63.7,-24.6c42.4,0 65.9,25.1 65.9,67.6l0,150.2l55.8,0l0,-153c0,-73.7 -41.9,-117.8 -109.4,-117.8c-31.3,0 -57,8.4 -75.9,22.3l0,-16.8l-55.8,0l0,265.2Z" style="fill:#d5d5d5;fill-rule:nonzero;"/><path d="M6634.6,4169.3c43,0 87.1,-21.8 112.8,-58.1l54.7,51.9l76.5,0l-96,-97.2l71.5,-109.4l-67,0l-44.7,69.2l-59.2,-59.2c32.9,-15.1 70.3,-45.2 70.3,-100.5c0,-50.2 -45.8,-93.8 -101.6,-93.8c-54.2,0 -97.7,44.7 -97.7,95.5c0,31.8 17.3,64.8 34.1,82.1c-39.6,19.5 -66.4,56.4 -66.4,103.3c0,67 47.5,111.7 112.8,116.1Zm2.2,-55.8c-31.8,0 -59.2,-26.8 -59.2,-60.3c0,-38.5 35.7,-56.9 51.9,-61.4l76.5,77.6c-15.1,27.9 -42.4,44.1 -69.2,44.1Zm3.3,-191.5c-16.8,-16.7 -30.1,-24 -30.1,-54.2c0,-20.7 19,-39.6 41.9,-39.6c25.1,0 45.8,17.3 45.8,36.8c0,32.9 -29,50.8 -57.5,56.9Z" style="fill:#d5d5d5;fill-rule:nonzero;"/><path d="M7051.7,4163.1l0,-390.8l61.4,0l0,161.4l199.3,0l0,-161.4l61.4,0l0,390.8l-61.4,0l0,-173.6l-199.3,0l0,173.6l-61.4,0Z" style="fill:#d5d5d5;fill-rule:nonzero;"/><path d="M7435.3,4163.1l55.8,0l0,-265.2l-55.8,0l0,265.2Zm27.9,-300.4l39.1,-39.1l-39.1,-39.6l-39.1,39.6l39.1,39.1Z" style="fill:#d5d5d5;fill-rule:nonzero;"/><path d="M7645.8,4294.3c81.5,0 131.2,-29 131.2,-83.2c0,-41.3 -20.1,-65.3 -69.8,-77.6l-57.5,-14c-26.8,-6.7 -43.5,-10.6 -43.5,-23.5c0,-3.9 1.1,-7.3 5,-10.6c11.2,3.3 22.3,5 34.6,5c59.7,0 105,-42.4 105,-99.4c0,-17.9 -4.5,-34.1 -12.8,-48.6l35.7,0l0,-44.7l-91.6,0c-11.7,-3.9 -23.4,-5.6 -36.3,-5.6c-59.7,0 -105,42.4 -105,98.8c0,30.1 12.8,55.8 33.5,73.7c-12.8,9.5 -24,21.2 -24,41.3c0,16.8 8.4,30.7 21.8,40.2c-32.9,14.5 -56.4,34.6 -56.4,67.6c0,57.5 59.7,80.4 130.1,80.4Zm0,-252.9c-29.6,0 -51.9,-21.8 -51.9,-50.2c0,-28.5 22.3,-49.7 51.9,-49.7c29.6,0 51.9,21.2 51.9,49.7c0,28.5 -22.3,50.2 -51.9,50.2Zm-73.7,165.8c0,-16.8 17.3,-31.8 50.8,-42.4l54.7,13.4c30.7,7.8 43.5,19 43.5,31.8c0,22.9 -39.6,31.3 -75.4,31.3c-35.7,0 -73.7,-8.9 -73.7,-34.1Z" style="fill:#d5d5d5;fill-rule:nonzero;"/><path d="M7811,4163.1l55.8,0l0,-193.2c11.7,-14 32.9,-24.6 63.6,-24.6c42.4,0 65.9,25.1 65.9,67.6l0,150.2l55.8,0l0,-153c0,-73.7 -41.9,-117.8 -109.4,-117.8c-31.3,0 -56.9,8.4 -75.9,22.3l0,-142.4l-55.8,0l0,390.8Z" style="fill:#d5d5d5;fill-rule:nonzero;"/><path d="M8242.1,4163.1l0,-390.8l61.4,0l0,161.4l199.3,0l0,-161.4l61.4,0l0,390.8l-61.4,0l0,-173.6l-199.3,0l0,173.6l-61.4,0Z" style="fill:#d5d5d5;fill-rule:nonzero;"/><path d="M8745.7,4168.7c76.5,0 136.2,-60.9 136.2,-137.9c0,-77.6 -59.7,-138.5 -136.2,-138.5c-76.5,0 -136.2,60.9 -136.2,138.5c0,77.1 59.7,137.9 136.2,137.9Zm0,-53c-45.2,0 -80.4,-37.4 -80.4,-84.9c0,-48 35.2,-85.4 80.4,-85.4c45.2,0 80.4,37.4 80.4,85.4c0,47.5 -35.2,84.9 -80.4,84.9Z" style="fill:#d5d5d5;fill-rule:nonzero;"/><path d="M9020.9,4168.7c19.5,0 35.7,-4.5 55.3,-13.4l0,-54.2c-16.8,9.5 -32.9,14 -48.6,14c-30.7,0 -47.5,-18.4 -47.5,-49.7l0,-293.1l-55.8,0l0,308.2c0,51.4 40.8,88.2 96.6,88.2Z" style="fill:#d5d5d5;fill-rule:nonzero;"/><path d="M9230.3,4168.7c77,0 136.8,-60.9 136.8,-140.7c0,-74.8 -59.7,-135.7 -137.3,-135.7c-25.7,0 -49.1,6.7 -70.9,20.1l0,-140.1l-55.8,0l0,390.8l55.8,0l0,-14.5c21.2,12.8 45.8,20.1 71.5,20.1Zm-2.8,-53c-25.1,0 -52.5,-10.6 -68.7,-29l0,-115.6c16.8,-15.6 43,-25.7 68.7,-25.7c48.6,0 83.7,37.4 83.7,83.2c0,49.7 -35.2,87.1 -83.7,87.1Z" style="fill:#d5d5d5;fill-rule:nonzero;"/><path d="M9537.9,4168.7c76.5,0 136.2,-60.9 136.2,-137.9c0,-77.6 -59.7,-138.5 -136.2,-138.5c-76.5,0 -136.2,60.9 -136.2,138.5c0,77.1 59.7,137.9 136.2,137.9Zm0,-53c-45.2,0 -80.4,-37.4 -80.4,-84.9c0,-48 35.2,-85.4 80.4,-85.4c45.2,0 80.4,37.4 80.4,85.4c0,47.5 -35.2,84.9 -80.4,84.9Z" style="fill:#d5d5d5;fill-rule:nonzero;"/><path d="M9716.6,4163.1l55.8,0l0,-179.2c12.8,-25.7 35.7,-36.8 63.6,-36.8c15.1,0 30.7,3.3 51.4,15.1l0,-56.9c-15.1,-7.8 -30.2,-12.8 -49.1,-12.8c-25.7,0 -49.1,8.9 -65.9,27.9l0,-22.3l-55.8,0l0,265.2Z" style="fill:#d5d5d5;fill-rule:nonzero;"/><path d="M9921.5,4163.1l55.8,0l0,-193.2c11.7,-14 32.9,-24.6 63.7,-24.6c42.4,0 65.9,25.1 65.9,67.6l0,150.2l55.8,0l0,-153c0,-73.7 -41.9,-117.8 -109.4,-117.8c-31.3,0 -56.9,8.4 -75.9,22.3l0,-16.8l-55.8,0l0,265.2Z" style="fill:#d5d5d5;fill-rule:nonzero;"/><path d="M1107,5245.5c134.6,0 239.9,-103.7 239.9,-235.1l0,-327l-87.1,0l0,327c0,87.1 -67.3,154.4 -152.8,154.4c-85.5,0 -152.8,-67.3 -152.8,-154.4l0,-327l-87.1,0l0,327c0,131.4 105.3,235.1 239.9,235.1Z" style="fill:#d5d5d5;fill-rule:nonzero;"/><path d="M1426,5237.5l87.1,0l0,-422l344.4,422l88.7,0l0,-554.2l-87.1,0l0,420.4l-343.6,-420.4l-89.5,0l0,554.2Z" style="fill:#d5d5d5;fill-rule:nonzero;"/><path d="M2033.2,5237.5l194,0c163.1,0 285,-122.7 285,-285.8c0,-153.6 -122.7,-268.4 -286.6,-268.4l-192.4,0l0,554.2Zm194,-79.2l-106.9,0l0,-395.8l106.9,0c112.4,0 196.3,81.5 196.3,190.8c0,117.2 -83.9,205 -196.3,205Z" style="fill:#d5d5d5;fill-rule:nonzero;"/><path d="M2573.2,5237.5l348.3,0l0,-79.2l-261.2,0l0,-178.1l184.5,0l0,-79.2l-184.5,0l0,-138.5l245.4,0l0,-79.2l-332.5,0l0,554.2Z" style="fill:#d5d5d5;fill-rule:nonzero;"/><path d="M2973,5237.5l87.1,0l0,-233.5l64.9,0l162.3,233.5l96.6,0l-172.6,-251c52.2,-26.1 90.2,-80.7 90.2,-144.1c0,-89.5 -79.2,-159.1 -171.8,-159.1l-156.8,0l0,554.2Zm171.8,-314.3l-84.7,0l0,-160.7l60.2,0c52.2,0 92.6,35.6 92.6,80.8c0,43.5 -30.1,80 -68.1,80Z" style="fill:#d5d5d5;fill-rule:nonzero;"/><path d="M3658.5,5245.5c82.3,0 159.1,-22.2 223.3,-61.8l0,-261.2l-177.3,0l0,79.2l90.2,0l0,138.5c-42,17.4 -87.9,24.5 -136.2,24.5c-118,0 -200.3,-94.2 -200.3,-216.1c0,-107.7 85.5,-194 202.7,-194c85.5,0 163.1,28.5 211.4,75.2l0,-99c-59.4,-34.8 -134.6,-57 -208.2,-57c-178.9,0 -294.5,134.6 -294.5,274.7c0,165.5 130.6,296.9 289,296.9Z" style="fill:#d5d5d5;fill-rule:nonzero;"/><path d="M3953.8,5237.5l87.1,0l0,-233.5l64.9,0l162.3,233.5l96.6,0l-172.6,-251c52.2,-26.1 90.2,-80.7 90.2,-144.1c0,-89.5 -79.2,-159.1 -171.8,-159.1l-156.8,0l0,554.2Zm171.8,-314.3l-84.7,0l0,-160.7l60.2,0c52.2,0 92.6,35.6 92.6,80.8c0,43.5 -30.1,80 -68.1,80Z" style="fill:#d5d5d5;fill-rule:nonzero;"/><path d="M4648.9,5245.5c167,0 298.5,-125.9 298.5,-285.8c0,-159.9 -131.4,-285.8 -298.5,-285.8c-167,0 -298.5,125.9 -298.5,285.8c0,159.9 131.4,285.8 298.5,285.8Zm0,-80.8c-117.2,0 -209.8,-90.2 -209.8,-205c0,-114.8 92.6,-205 209.8,-205c117.2,0 209.8,90.2 209.8,205c0,114.8 -92.6,205 -209.8,205Z" style="fill:#d5d5d5;fill-rule:nonzero;"/><path d="M5241.1,5245.5c134.6,0 239.9,-103.7 239.9,-235.1l0,-327l-87.1,0l0,327c0,87.1 -67.3,154.4 -152.8,154.4c-85.5,0 -152.8,-67.3 -152.8,-154.4l0,-327l-87.1,0l0,327c0,131.4 105.3,235.1 239.9,235.1Z" style="fill:#d5d5d5;fill-rule:nonzero;"/><path d="M5560.1,5237.5l87.1,0l0,-422l344.4,422l88.7,0l0,-554.2l-87.1,0l0,420.4l-343.6,-420.4l-89.5,0l0,554.2Z" style="fill:#d5d5d5;fill-rule:nonzero;"/><path d="M6167.3,5237.5l194,0c163.1,0 285,-122.7 285,-285.8c0,-153.6 -122.7,-268.4 -286.6,-268.4l-192.4,0l0,554.2Zm194,-79.2l-106.9,0l0,-395.8l106.9,0c112.4,0 196.3,81.5 196.3,190.8c0,117.2 -83.9,205 -196.3,205Z" style="fill:#d5d5d5;fill-rule:nonzero;"/><path d="M6898,5237.5l348.3,0l0,-79.2l-261.2,0l0,-178.1l184.5,0l0,-79.2l-184.5,0l0,-138.5l245.4,0l0,-79.2l-332.5,0l0,554.2Z" style="fill:#d5d5d5;fill-rule:nonzero;"/><path d="M7297.8,5237.5l330.9,0l0,-79.2l-243.8,0l0,-475l-87.1,0l0,554.2Z" style="fill:#d5d5d5;fill-rule:nonzero;"/><path d="M7684.2,5237.5l348.3,0l0,-79.2l-261.3,0l0,-178.1l184.5,0l0,-79.2l-184.5,0l0,-138.5l245.4,0l0,-79.2l-332.5,0l0,554.2Z" style="fill:#d5d5d5;fill-rule:nonzero;"/><path d="M8329.4,5245.5c83.1,0 142.5,-26.1 194,-61.8l0,-106.9c-40.4,51.5 -114,89.5 -190.8,89.5c-118.8,0 -207.4,-91.8 -207.4,-213.8c0,-114 87.9,-199.5 205,-199.5c76,0 151.2,34.8 194.8,81.5l0,-103.7c-51.5,-32.5 -106.1,-57 -196.3,-57c-167,0 -292.1,119.5 -292.1,278.7c0,167 125.9,292.9 292.9,292.9Z" style="fill:#d5d5d5;fill-rule:nonzero;"/><path d="M8723.6,5237.5l87.1,0l0,-475l168.6,0l0,-79.2l-424.3,0l0,79.2l168.6,0l0,475Z" style="fill:#d5d5d5;fill-rule:nonzero;"/><path d="M9034.8,5237.5l87.1,0l0,-233.5l64.9,0l162.3,233.5l96.6,0l-172.6,-251c52.2,-26.1 90.2,-80.7 90.2,-144.1c0,-89.5 -79.2,-159.1 -171.8,-159.1l-156.8,0l0,554.2Zm171.8,-314.3l-84.7,0l0,-160.7l60.2,0c52.2,0 92.6,35.6 92.6,80.8c0,43.5 -30.1,80 -68.1,80Z" style="fill:#d5d5d5;fill-rule:nonzero;"/><rect x="9493.9" y="4683.4" width="87.1" height="554.2" style="fill:#d5d5d5;fill-rule:nonzero;"/><path d="M9929.3,5245.5c83.1,0 142.5,-26.1 194,-61.8l0,-106.9c-40.4,51.5 -114,89.5 -190.8,89.5c-118.8,0 -207.4,-91.8 -207.4,-213.8c0,-114 87.9,-199.5 205,-199.5c76,0 151.2,34.8 194.8,81.5l0,-103.7c-51.5,-32.5 -106.1,-57 -196.3,-57c-167,0 -292.1,119.5 -292.1,278.7c0,167 125.9,292.9 292.9,292.9Z" style="fill:#d5d5d5;fill-rule:nonzero;"/></g><g><path d="M711.7,1129.4l44.6,0l0,-243.4l86.4,0l0,-40.6l-217.5,0l0,40.6l86.4,0l0,243.4Z" style="fill:#d5d5d5;fill-rule:nonzero;"/><path d="M991.2,1133.4c85.6,0 153,-64.5 153,-146.5c0,-82 -67.3,-146.5 -153,-146.5c-85.6,0 -153,64.5 -153,146.5c0,82 67.3,146.5 153,146.5Zm0,-41.4c-60,0 -107.5,-46.3 -107.5,-105.1c0,-58.8 47.5,-105.1 107.5,-105.1c60,0 107.5,46.3 107.5,105.1c0,58.8 -47.5,105.1 -107.5,105.1Z" style="fill:#d5d5d5;fill-rule:nonzero;"/><path d="M1336.9,1133.8c31.2,0 63.3,-15.8 82,-42.2l39.8,37.7l55.6,0l-69.8,-70.6l51.9,-79.5l-48.7,0l-32.5,50.3l-43,-43c23.9,-11 51.1,-32.9 51.1,-73c0,-36.5 -33.3,-68.2 -73.8,-68.2c-39.4,0 -71,32.5 -71,69.4c0,23.1 12.6,47.1 24.7,59.6c-28.8,14.2 -48.3,41 -48.3,75.1c0,48.7 34.5,81.1 82,84.4Zm1.6,-40.6c-23.1,0 -43,-19.5 -43,-43.8c0,-28 26,-41.4 37.7,-44.6l55.6,56.4c-11,20.3 -30.8,32.1 -50.3,32.1Zm2.4,-139.2c-12.2,-12.2 -21.9,-17.4 -21.9,-39.4c0,-15 13.8,-28.8 30.4,-28.8c18.3,0 33.3,12.6 33.3,26.8c0,23.9 -21.1,36.9 -41.8,41.4Z" style="fill:#d5d5d5;fill-rule:nonzero;"/><path d="M469.5,1487.6l44.6,0l0,-131.9l94.5,0l0,-40.6l-94.5,0l0,-71l125.8,0l0,-40.6l-170.4,0l0,284Z" style="fill:#d5d5d5;fill-rule:nonzero;"/><path d="M667.9,1487.6l44.6,0l0,-119.7l33.3,0l83.2,119.7l49.5,0l-88.4,-128.6c26.8,-13.4 46.3,-41.4 46.3,-73.8c0,-45.8 -40.6,-81.5 -88,-81.5l-80.3,0l0,284Zm88,-161.1l-43.4,0l0,-82.4l30.8,0c26.8,0 47.5,18.3 47.5,41.4c0,22.3 -15.4,41 -34.9,41Z" style="fill:#d5d5d5;fill-rule:nonzero;"/><path d="M1024.1,1491.6c85.6,0 153,-64.5 153,-146.5c0,-82 -67.3,-146.5 -153,-146.5c-85.6,0 -153,64.5 -153,146.5c0,82 67.3,146.5 153,146.5Zm0,-41.4c-60,0 -107.5,-46.3 -107.5,-105.1c0,-58.8 47.5,-105.1 107.5,-105.1c60,0 107.5,46.3 107.5,105.1c0,58.8 -47.5,105.1 -107.5,105.1Z" style="fill:#d5d5d5;fill-rule:nonzero;"/><path d="M1208.3,1487.6l44.6,0l0,-219.1l100.2,121.7l100.2,-121.7l0,219.1l44.6,0l0,-284l-45.4,0l-99.4,121.7l-99.4,-121.7l-45.4,0l0,284Z" style="fill:#d5d5d5;fill-rule:nonzero;"/></g></svg>