<?xml version="1.0" encoding="UTF-8" standalone="no"?><!DOCTYPE svg PUBLIC "-//W3C//DTD SVG 1.1//EN" "http://www.w3.org/Graphics/SVG/1.1/DTD/svg11.dtd"><svg width="100%" height="100%" viewBox="0 0 10667 6000" version="1.1" xmlns="http://www.w3.org/2000/svg" xmlns:xlink="http://www.w3.org/1999/xlink" xml:space="preserve" xmlns:serif="http://www.serif.com/" style="fill-rule:evenodd;clip-rule:evenodd;stroke-linejoin:round;stroke-miterlimit:2;"><rect x="-446.8" y="-375.4" width="11560.2" height="6750.7" style="fill:#222;"/><g transform="matrix(4.166667,0,0,4.166667,-1219.856038,356.35451)"><text x="375.4px" y="295.8px" style="font-family:'Railway', 'Metropolitan Line';font-size:190px;fill:#d5d5d5;">AB<tspan x="608.9px 733px 862.6px 958.5px 1045.7px " y="295.8px 295.8px 295.8px 295.8px 295.8px ">CDEFG</tspan></text><g transform="matrix(190,0,0,190,1178.540135,295.769312)"><path d="M0.4,0c0.1,0 0.2,-0 0.3,-0.1l0,-0.3l-0.1,0l0,0.2c-0.1,0 -0.1,0 -0.2,0c-0.1,0 -0.3,-0.1 -0.3,-0.3c0,-0.1 0.1,-0.2 0.3,-0.2c0.1,0 0.2,0 0.3,0.1l0,-0.1c-0.1,-0 -0.2,-0.1 -0.3,-0.1c-0.2,0 -0.4,0.2 -0.4,0.3c-0,0.2 0.2,0.4 0.4,0.4Z" style="fill:#999;fill-rule:nonzero;"/></g><g transform="matrix(190,0,0,190,1178.540135,295.769312)"></g><text x="1315.3px" y="295.8px" style="font-family:'Railway', 'Metropolitan Line';font-size:190px;fill:#d5d5d5;">H</text><g transform="matrix(190,0,0,190,1445.870135,295.769312)"><path d="M0.1,-0l0.1,-0l0,-0.3l0.4,0l0,0.3l0.1,-0l0,-0.7l-0.1,0l0,0.3l-0.4,0l-0,-0.3l-0.1,0l0,0.7Z" style="fill:#999;fill-rule:nonzero;"/></g><g transform="matrix(190,0,0,190,1444.540135,295.769312)"></g><text x="1580.8px" y="295.8px" style="font-family:'Railway', 'Metropolitan Line';font-size:190px;fill:#d5d5d5;">I<tspan x="1622.6px " y="295.8px ">J</tspan></text><g transform="matrix(190,0,0,190,1709.970135,295.769312)"></g><g transform="matrix(190,0,0,190,1741.459841,295.769312)"></g><text x="1708.1px" y="295.8px" style="font-family:'Railway', 'Metropolitan Line';font-size:190px;fill:#999;">Ĳ</text><text x="1803.1px" y="295.8px" style="font-family:'Railway', 'Metropolitan Line';font-size:190px;fill:#d5d5d5;">KL<tspan x="2015.9px 2172.4px 2316.3px 2468.1px " y="295.8px 295.8px 295.8px 295.8px ">MNOP</tspan>Q</text><g transform="matrix(190,0,0,190,445.045135,490.029065)"><path d="M0.7,0l0.2,0l-0.2,-0.1c0.1,-0.1 0.1,-0.1 0.1,-0.2c0,-0.2 -0.2,-0.4 -0.4,-0.4c-0.2,0 -0.4,0.2 -0.4,0.4c-0,0.2 0.2,0.4 0.4,0.4c0.1,-0 0.2,-0 0.2,-0.1l0.1,0.1Zm-0.3,-0.1c-0.1,0 -0.3,-0.1 -0.3,-0.3c0,-0.1 0.1,-0.3 0.3,-0.3c0.1,0 0.3,0.1 0.3,0.3c0,0.1 -0,0.1 -0.1,0.2l-0.1,-0.1l-0.1,0.1l0.1,0.1c-0,0 -0.1,0 -0.1,0Zm0.7,0.1c0.2,0 0.3,-0.1 0.3,-0.3l0,-0.4l-0.1,0l0,0.4c0,0.1 -0.1,0.2 -0.2,0.2c-0.1,0 -0.2,-0.1 -0.2,-0.2l0,-0.4l-0.1,0l0,0.4c0,0.2 0.1,0.3 0.3,0.3Z" style="fill:#999;fill-rule:nonzero;"/></g><g transform="matrix(190,0,0,190,445.045135,490.029065)"></g><g transform="matrix(190,0,0,190,595.145135,490.029065)"></g><text x="729.3px" y="490px" style="font-family:'Railway', 'Metropolitan Line';font-size:190px;fill:#d5d5d5;">R<tspan x="837.2px " y="490px ">S</tspan>TU<tspan x="1170.1px " y="490px ">V</tspan>W</text><g transform="matrix(190,0,0,190,1485.865135,490.029065)"><path d="M0.3,-0l0.1,-0l0.1,-0.3l0.1,0.3l0.1,-0l0.3,-0.7l-0.1,0l-0.2,0.5l-0.1,-0.2l0.1,-0.3l-0.1,0l-0.1,0.2l-0.1,-0.2l-0.1,0l0.1,0.3l-0.1,0.2l-0.2,-0.5l-0.1,0l0.3,0.7Z" style="fill:#999;fill-rule:nonzero;"/></g><g transform="matrix(190,0,0,190,1485.865135,490.029065)"></g><g transform="matrix(190,0,0,190,1673.015135,490.029065)"><path d="M0.6,-0l0.1,-0l-0,-0.1l0.2,-0.6l-0.1,0l-0.2,0.5l-0.2,-0.5l-0.1,0l0.1,0.2l-0.1,0.2l-0.2,-0.5l-0.1,0l0.3,0.7l0.1,-0l-0,-0.1l0.1,-0.2l0.1,0.3Z" style="fill:#999;fill-rule:nonzero;"/></g><g transform="matrix(190,0,0,190,1673.015135,490.029065)"></g><g transform="matrix(190,0,0,190,1842.685135,490.029065)"><path d="M0.2,-0l0.1,-0l0.1,-0.4l0.1,0.4l0.1,-0l0.2,-0.7l-0.1,0l-0.1,0.5l-0.1,-0.4l-0.1,0l-0.1,0.4l-0.2,-0.5l-0.1,0l0.2,0.7Z" style="fill:#999;fill-rule:nonzero;"/></g><g transform="matrix(190,0,0,190,1842.685135,490.029065)"></g><g transform="matrix(190,0,0,190,2009.125135,490.029065)"><path d="M0.3,-0.7l0.1,0.2l-0.1,0.3l-0.2,-0.5l-0.1,0l0.2,0.7l0.1,-0l0.1,-0.3l0.1,0.3l0.1,-0l0.2,-0.7l-0.1,0l-0.1,0.5l-0.2,-0.5l-0.1,0Z" style="fill:#999;fill-rule:nonzero;"/></g><g transform="matrix(190,0,0,190,2005.325135,490.029065)"></g><g transform="matrix(190,0,0,190,2307.615135,490.029065)"><path d="M0,-0l0.1,-0l0.2,-0.3l0.1,0.3l0.1,-0l-0.2,-0.4l0.2,-0.3l-0.1,0l-0.1,0.2l-0.1,-0.2l-0.1,0l0.2,0.3l-0.2,0.4Z" style="fill:#d5d5d5;fill-rule:nonzero;"/></g><g transform="matrix(190,0,0,190,2304.385135,490.029065)"></g><text x="2171.8px" y="490px" style="font-family:'Railway', 'Metropolitan Line';font-size:190px;fill:#d5d5d5;">X<tspan x="2411.4px " y="490px ">Y</tspan>Z</text><text x="598px" y="696.3px" style="font-family:'Railway', 'Metropolitan Line';font-size:190px;fill:#d5d5d5;">a<tspan x="683.9px " y="696.3px ">b</tspan>cd<tspan x="981px 1082.1px 1145px " y="696.3px 696.3px 696.3px ">efg</tspan></text><g transform="matrix(190,0,0,190,1242.475135,696.288818)"><path d="M0.3,0.2c0.2,0 0.3,-0.1 0.3,-0.1c0,-0.1 -0,-0.1 -0.1,-0.2l0,-0.1c0,-0 0.1,-0.1 0.1,-0.1c0,-0 -0,-0.1 -0,-0.1l0.1,0l0,-0.1l-0.2,0c-0,-0 -0,-0 -0.1,-0c-0.1,0 -0.2,0.1 -0.2,0.2c0,0.1 0.1,0.2 0.2,0.2c0,0 0,-0 0,-0l0,0c-0.2,0 -0.3,0.1 -0.3,0.2c-0,0.1 0.1,0.1 0.3,0.1Zm-0,-0.4c-0.1,0 -0.1,-0 -0.1,-0.1c0,-0.1 0,-0.1 0.1,-0.1c0.1,0 0.1,0 0.1,0.1c0,0.1 -0,0.1 -0.1,0.1Zm0,0.3c-0.1,0 -0.2,-0 -0.2,-0c0,-0 0.1,-0.1 0.2,-0.1c0.1,0 0.1,0.1 0.1,0.1c0,0 -0,0.1 -0.2,0.1Z" style="fill:#999;fill-rule:nonzero;"/></g><g transform="matrix(190,0,0,190,1242.475135,696.288818)"></g><g transform="matrix(190,0,0,190,1432.855135,696.288818)"></g><g transform="matrix(190,0,0,190,1473.784301,696.288818)"></g><text x="1335.2px" y="696.3px" style="font-family:'Railway', 'Metropolitan Line';font-size:190px;fill:#d5d5d5;">hĳ<tspan x="1513.2px 1606.1px " y="696.3px 696.3px ">kl</tspan>mno<tspan x="2031.2px " y="696.3px ">p</tspan>q</text><g transform="matrix(190,0,0,190,2240.925135,696.288818)"><path d="M0.8,0.2c0.1,0 0.1,-0 0.2,-0l0,-0.1c-0,0 -0.1,0 -0.1,0c-0.1,0 -0.2,-0 -0.3,-0.1c-0,-0 -0.1,-0.1 -0.2,-0.1c0.1,-0 0.1,-0.1 0.1,-0.2c0,-0.1 -0.1,-0.2 -0.2,-0.2c-0.1,0 -0.2,0.1 -0.2,0.2c0,0.1 0.1,0.2 0.1,0.2c0.1,0 0.1,0 0.2,0.1c0.1,0 0.2,0.2 0.4,0.2Zm-0.5,-0.3c-0.1,0 -0.1,-0.1 -0.1,-0.2c0,-0.1 0.1,-0.2 0.1,-0.2c0.1,0 0.1,0.1 0.1,0.2c0,0.1 -0.1,0.2 -0.1,0.2Z" style="fill:#999;fill-rule:nonzero;"/></g><g transform="matrix(190,0,0,190,2240.925135,696.288818)"></g><text x="2345.4px" y="696.3px" style="font-family:'Railway', 'Metropolitan Line';font-size:190px;fill:#d5d5d5;">rs</text><text x="1185.3px" y="890.5px" style="font-family:'Railway', 'Metropolitan Line';font-size:190px;fill:#d5d5d5;">tuvwxy<tspan x="1820.6px " y="890.5px ">z</tspan></text><g transform="matrix(170,0,0,170,693.105135,1122.528571)"><path d="M1.5,0c0.2,0 0.3,-0.1 0.4,-0.3l0.6,0l-0.1,0.1l0.6,-0.2l-0.6,-0.2l0.1,0.1l-0.6,0c-0,-0.2 -0.2,-0.3 -0.4,-0.3c-0.2,0 -0.3,0.1 -0.4,0.3l-0.5,0l-0.1,-0.1l-0.1,0l0.1,0.1l-0.1,0l-0.1,-0.1l-0.1,0l0.1,0.1l-0.1,0l-0.1,-0.1l-0.1,0l0.1,0.1l-0.1,0l-0,0.1l0.1,0l-0.1,0.1l0.1,0l0.1,-0.1l0.1,0l-0.1,0.1l0.1,0l0.1,-0.1l0.1,0l-0.1,0.1l0.1,0l0.1,-0.1l0.5,0c0,0.2 0.2,0.3 0.4,0.3Zm0,-0.1c-0.1,0 -0.2,-0.1 -0.3,-0.2l0.3,0l0,-0.1l-0.3,0c0,-0.1 0.1,-0.2 0.3,-0.2c0.1,0 0.3,0.1 0.3,0.3c0,0.1 -0.1,0.3 -0.3,0.3Z" style="fill:#d5d5d5;fill-rule:nonzero;"/></g><g transform="matrix(170,0,0,170,693.105135,1122.528571)"></g><g transform="matrix(170,0,0,170,1888.035135,1122.528571)"><path d="M1.5,0c0.2,0 0.3,-0.1 0.4,-0.3l0.5,0l0.1,0.1l0.1,0l-0.1,-0.1l0.1,0l0.1,0.1l0.1,0l-0.1,-0.1l0.1,0l0.1,0.1l0.1,0l-0.1,-0.1l0.1,0l0,-0.1l-0.1,0l0.1,-0.1l-0.1,0l-0.1,0.1l-0.1,0l0.1,-0.1l-0.1,0l-0.1,0.1l-0.1,0l0.1,-0.1l-0.1,0l-0.1,0.1l-0.5,0c-0,-0.2 -0.2,-0.3 -0.4,-0.3c-0.2,0 -0.3,0.1 -0.4,0.3l-0.6,0l0.1,-0.1l-0.6,0.2l0.6,0.2l-0.1,-0.1l0.6,0c0,0.2 0.2,0.3 0.4,0.3Zm0,-0.1c-0.1,0 -0.3,-0.1 -0.3,-0.3c0,-0.1 0.1,-0.3 0.3,-0.3c0.1,0 0.2,0.1 0.3,0.2l-0.3,0l0,0.1l0.3,0c-0,0.1 -0.1,0.2 -0.3,0.2Z" style="fill:#d5d5d5;fill-rule:nonzero;"/></g><g transform="matrix(170,0,0,170,1888.035135,1122.528571)"></g><text x="1208.7px" y="1122.5px" style="font-family:'Railway', 'Metropolitan Line';font-size:170px;fill:#d5d5d5;"><tspan x="1208.7px " y="1122.5px ">→</tspan>←</text></g></svg>