<?xml version="1.0" encoding="UTF-8" standalone="no"?><!DOCTYPE svg PUBLIC "-//W3C//DTD SVG 1.1//EN" "http://www.w3.org/Graphics/SVG/1.1/DTD/svg11.dtd"><svg width="100%" height="100%" viewBox="0 0 10667 6000" version="1.1" xmlns="http://www.w3.org/2000/svg" xmlns:xlink="http://www.w3.org/1999/xlink" xml:space="preserve" xmlns:serif="http://www.serif.com/" style="fill-rule:evenodd;clip-rule:evenodd;stroke-linejoin:round;stroke-miterlimit:2;"><g transform="matrix(4.166667,0,0,4.166667,-1168.695178,167.157965)"><text x="718.9px" y="316.8px" style="font-family:'Railway', 'Metropolitan Line';font-size:220px;">GR<tspan x="1001.8px 1112.9px 1224px " y="316.8px 316.8px 316.8px ">EEN</tspan>WI<tspan x="1658.5px " y="316.8px ">C</tspan>H P<tspan x="2098.5px 2247.4px 2375px " y="316.8px 316.8px 316.8px ">ARK</tspan></text><g transform="matrix(390,0,0,390,470.751843,727.513015)"><path d="M0.7,0l0.2,0l-0.2,-0.1c0.1,-0.1 0.1,-0.1 0.1,-0.2c0,-0.2 -0.2,-0.4 -0.4,-0.4c-0.2,0 -0.4,0.2 -0.4,0.4c-0,0.2 0.2,0.4 0.4,0.4c0.1,-0 0.2,-0 0.2,-0.1l0.1,0.1Zm-0.3,-0.1c-0.1,0 -0.3,-0.1 -0.3,-0.3c0,-0.1 0.1,-0.3 0.3,-0.3c0.1,0 0.3,0.1 0.3,0.3c0,0.1 -0,0.1 -0.1,0.2l-0.1,-0.1l-0.1,0.1l0.1,0.1c-0,0 -0.1,0 -0.1,0Zm0.7,0.1c0.2,0 0.3,-0.1 0.3,-0.3l0,-0.4l-0.1,0l0,0.4c0,0.1 -0.1,0.2 -0.2,0.2c-0.1,0 -0.2,-0.1 -0.2,-0.2l0,-0.4l-0.1,0l0,0.4c0,0.2 0.1,0.3 0.3,0.3Z" style="fill-rule:nonzero;"/></g><g transform="matrix(390,0,0,390,470.751843,727.513015)"></g><g transform="matrix(390,0,0,390,778.851843,727.513015)"></g><text x="1054.2px" y="727.5px" style="font-family:'Railway', 'Metropolitan Line';font-size:390px;"><tspan x="1054.2px 1251.1px 1448.1px 1748.4px 1922.3px 2271.8px 2490.2px " y="727.5px 727.5px 727.5px 727.5px 727.5px 727.5px 727.5px ">EENSWAY</tspan></text><g transform="matrix(134,0,0,134,468.072843,959.032351)"><path d="M1.5,0c0.2,0 0.3,-0.1 0.4,-0.3l0.5,0l0.1,0.1l0.1,0l-0.1,-0.1l0.1,0l0.1,0.1l0.1,0l-0.1,-0.1l0.1,0l0.1,0.1l0.1,0l-0.1,-0.1l0.1,0l0,-0.1l-0.1,0l0.1,-0.1l-0.1,0l-0.1,0.1l-0.1,0l0.1,-0.1l-0.1,0l-0.1,0.1l-0.1,0l0.1,-0.1l-0.1,0l-0.1,0.1l-0.5,0c-0,-0.2 -0.2,-0.3 -0.4,-0.3c-0.2,0 -0.3,0.1 -0.4,0.3l-0.6,0l0.1,-0.1l-0.6,0.2l0.6,0.2l-0.1,-0.1l0.6,0c0,0.2 0.2,0.3 0.4,0.3Zm0,-0.1c-0.1,0 -0.3,-0.1 -0.3,-0.3c0,-0.1 0.1,-0.3 0.3,-0.3c0.1,0 0.2,0.1 0.3,0.2l-0.3,0l0,0.1l0.3,0c-0,0.1 -0.1,0.2 -0.3,0.2Z" style="fill-rule:nonzero;"/></g><g transform="matrix(134,0,0,134,468.072843,959.032351)"></g><text x="908px" y="959px" style="font-family:'Railway', 'Metropolitan Line';font-size:134px;">fr<tspan x="1001.9px 1074.8px " y="959px 959px ">om</tspan> F<tspan x="1276.4px " y="959px ">a</tspan>rri<tspan x="1463.7px 1531.8px 1595px 1668.6px 1741.5px " y="959px 959px 959px 959px 959px ">ngdon</tspan> &amp; Hi<tspan x="2082.9px " y="959px ">g</tspan>h Ho<tspan x="2415.5px 2458.4px 2532.7px 2605.6px " y="959px 959px 959px 959px ">lbor</tspan>n</text><g transform="matrix(190,0,0,190,2713.876843,1216.892351)"></g><text x="479.1px" y="1216.9px" style="font-family:'Railway', 'Metropolitan Line';font-size:190px;">UN<tspan x="759px 888.5px 984.5px 1085.8px 1219.9px 1321.2px " y="1216.9px 1216.9px 1216.9px 1216.9px 1216.9px 1216.9px ">DERGRO</tspan>UN<tspan x="1751.1px " y="1216.9px ">D</tspan> E<tspan x="2022.5px 2115.2px 2205.8px " y="1216.9px 1216.9px 1216.9px ">LEC</tspan>TR<tspan x="2547.6px 2589.8px " y="1216.9px 1216.9px ">IC</tspan></text></g><g transform="matrix(2.535751,0,0,2.535751,-593.818788,432.621021)"><text x="477.6px" y="274.8px" style="font-family:'Railway', 'Metropolitan Line';font-size:160px;">T<tspan x="561.9px " y="274.8px ">O</tspan> &amp;</text><g transform="matrix(160,0,0,160,832.927015,416.023364)"></g><text x="411.3px" y="416px" style="font-family:'Railway', 'Metropolitan Line';font-size:160px;">F<tspan x="489.6px 574.8px 702.7px " y="416px 416px 416px ">ROM</tspan></text></g></svg>