<?xml version="1.0" encoding="UTF-8" standalone="no"?>
<!DOCTYPE svg PUBLIC "-//W3C//DTD SVG 1.1//EN" "http://www.w3.org/Graphics/SVG/1.1/DTD/svg11.dtd">
<svg width="100%" height="100%" viewBox="0 0 2560 1440" version="1.1" xmlns="http://www.w3.org/2000/svg" xmlns:xlink="http://www.w3.org/1999/xlink" xml:space="preserve" xmlns:serif="http://www.serif.com/" style="fill-rule:evenodd;clip-rule:evenodd;stroke-linejoin:round;stroke-miterlimit:2;">
    <g transform="matrix(1,0,0,1,-292.765449,85.525082)">
        <g>
            <g transform="matrix(1,0,0,1,375.41,295.769)">
                <path d="M2.28,0L23.18,0L36.67,-33.25L91.58,-33.25L105.45,0L126.35,0L71.82,-133L56.81,-133L2.28,0ZM44.08,-51.3L63.84,-99.94L84.17,-51.3L44.08,-51.3Z"/>
                <path d="M138.13,0L182.4,0C209.95,0 228.57,-17.48 228.57,-39.71C228.57,-57.76 221.35,-69.35 203.87,-75.81C211.66,-82.84 214.7,-88.92 214.7,-98.42C214.7,-117.8 198.36,-133 174.23,-133L138.13,-133L138.13,0ZM182.59,-19L159.03,-19L159.03,-63.08L182.21,-63.08C198.36,-63.08 207.29,-53.2 207.29,-39.9C207.29,-27.93 198.55,-19 182.59,-19ZM174.8,-82.08L159.03,-82.08L159.03,-114L174.23,-114C186.39,-114 193.42,-107.35 193.42,-98.42C193.42,-89.11 186.58,-82.08 174.8,-82.08Z"/>
            </g>
            <g transform="matrix(1,0,0,1,608.92,295.769)">
                <path d="M73.72,1.9C93.67,1.9 107.92,-4.37 120.27,-12.92L120.27,-38.57C110.58,-26.22 92.91,-17.1 74.48,-17.1C45.98,-17.1 24.7,-39.14 24.7,-68.4C24.7,-95.76 45.79,-116.28 73.91,-116.28C92.15,-116.28 110.2,-107.92 120.65,-96.71L120.65,-121.6C108.3,-129.39 95.19,-135.28 73.53,-135.28C33.44,-135.28 3.42,-106.59 3.42,-68.4C3.42,-28.31 33.63,1.9 73.72,1.9Z"/>
                <path d="M133.57,0L180.12,0C219.26,0 248.52,-29.45 248.52,-68.59C248.52,-105.45 219.07,-133 179.74,-133L133.57,-133L133.57,0ZM180.12,-19L154.47,-19L154.47,-114L180.12,-114C207.1,-114 227.24,-94.43 227.24,-68.21C227.24,-40.09 207.1,-19 180.12,-19Z"/>
                <path d="M263.15,0L346.75,0L346.75,-19L284.05,-19L284.05,-61.75L328.32,-61.75L328.32,-80.75L284.05,-80.75L284.05,-114L342.95,-114L342.95,-133L263.15,-133L263.15,0Z"/>
                <path d="M359.1,0L380,0L380,-61.75L424.27,-61.75L424.27,-80.75L380,-80.75L380,-114L438.9,-114L438.9,-133L359.1,-133L359.1,0Z"/>
                <path d="M509.58,1.9C529.34,1.9 547.77,-3.42 563.16,-12.92L563.16,-75.62L520.6,-75.62L520.6,-56.62L542.26,-56.62L542.26,-23.37C532.19,-19.19 521.17,-17.48 509.58,-17.48C481.27,-17.48 461.51,-40.09 461.51,-69.35C461.51,-95.19 482.03,-115.9 510.15,-115.9C530.67,-115.9 549.29,-109.06 560.88,-97.85L560.88,-121.6C546.63,-129.96 528.58,-135.28 510.91,-135.28C467.97,-135.28 440.23,-102.98 440.23,-69.35C440.23,-29.64 471.58,1.9 509.58,1.9Z"/>
            </g>
        </g>
        <g transform="matrix(190,0,0,190,1178.540135,295.769312)">
            <path d="M0.383,0.01C0.487,0.01 0.584,-0.018 0.665,-0.068L0.665,-0.332L0.555,-0.332L0.555,-0.123C0.502,-0.101 0.444,-0.092 0.383,-0.092C0.234,-0.092 0.13,-0.211 0.13,-0.365C0.13,-0.501 0.238,-0.61 0.386,-0.61C0.494,-0.61 0.592,-0.574 0.653,-0.515L0.653,-0.64C0.578,-0.684 0.483,-0.712 0.39,-0.712C0.164,-0.712 0.018,-0.542 0.018,-0.365C0.018,-0.156 0.183,0.01 0.383,0.01Z" style="fill:rgb(153,153,153);"/>
        </g>
        <g transform="matrix(1,0,0,1,1315.34,295.769)">
            <path d="M9.5,0L9.5,-133L30.4,-133L30.4,-78.09L98.23,-78.09L98.23,-133L119.13,-133L119.13,0L98.23,0L98.23,-59.09L30.4,-59.09L30.4,0L9.5,0Z" style="fill-rule:nonzero;"/>
        </g>
        <g transform="matrix(190,0,0,190,1445.870135,295.769312)">
            <path d="M0.05,-0L0.16,-0L0.16,-0.311L0.557,-0.311L0.557,-0L0.667,-0L0.667,-0.7L0.557,-0.7L0.557,-0.411L0.16,-0.411L0.16,-0.7L0.05,-0.7L0.05,-0Z" style="fill:rgb(153,153,153);"/>
        </g>
        <g>
            <g transform="matrix(1,0,0,1,1580.77,295.769)">
                <rect x="11.4" y="-133" width="20.9" height="133"/>
            </g>
            <g transform="matrix(1,0,0,1,1622.57,295.769)">
                <path d="M38.57,1.9C60.8,1.9 76,-14.06 76,-37.43L76,-133L55.1,-133L55.1,-37.05C55.1,-25.46 48.26,-17.48 38.38,-17.48C31.35,-17.48 24.89,-23.37 21.66,-32.68L3.8,-22.99C9.88,-8.17 23.94,1.9 38.57,1.9Z"/>
            </g>
        </g>
        <g transform="matrix(1,0,0,1,1708.07,295.769)">
            <path d="M12.92,-49.4L33.82,-49.4L33.82,-133L12.92,-133L12.92,-49.4ZM46.17,1.9C68.4,1.9 83.6,-14.06 83.6,-37.43L83.6,-133L62.7,-133L62.7,-37.05C62.7,-25.46 55.86,-17.48 45.98,-17.48C38.95,-17.48 32.49,-23.37 29.26,-32.68L11.4,-22.99C17.48,-8.17 31.54,1.9 46.17,1.9Z" style="fill:rgb(153,153,153);fill-rule:nonzero;"/>
        </g>
        <g>
            <g transform="matrix(1,0,0,1,1803.07,295.769)">
                <path d="M9.5,0L30.4,0L30.4,-63.08L90.44,0L117.8,0L49.4,-72.58L117.8,-133L90.06,-133L30.4,-80.37L30.4,-133L9.5,-133L9.5,0Z"/>
                <path d="M129.58,0L209,0L209,-19L150.48,-19L150.48,-133L129.58,-133L129.58,0Z"/>
            </g>
            <g transform="matrix(1,0,0,1,2015.87,295.769)">
                <path d="M9.5,0L30.4,0L30.4,-102.6L77.33,-45.6L124.26,-102.6L124.26,0L145.16,0L145.16,-133L123.88,-133L77.33,-76L30.78,-133L9.5,-133L9.5,0Z"/>
                <path d="M166.06,0L186.96,0L186.96,-101.27L269.61,0L290.89,0L290.89,-133L269.99,-133L269.99,-32.11L187.53,-133L166.06,-133L166.06,0Z"/>
                <path d="M375.44,1.9C415.53,1.9 447.07,-28.31 447.07,-66.69C447.07,-105.07 415.53,-135.28 375.44,-135.28C335.35,-135.28 303.81,-105.07 303.81,-66.69C303.81,-28.31 335.35,1.9 375.44,1.9ZM375.44,-17.48C347.32,-17.48 325.09,-39.14 325.09,-66.69C325.09,-94.24 347.32,-115.9 375.44,-115.9C403.56,-115.9 425.79,-94.24 425.79,-66.69C425.79,-39.14 403.56,-17.48 375.44,-17.48Z"/>
                <path d="M461.7,0L482.6,0L482.6,-50.92L501.41,-50.92C526.87,-50.92 547.01,-68.97 547.01,-91.96C547.01,-114.95 526.87,-133 501.22,-133L461.7,-133L461.7,0ZM501.41,-69.92L482.6,-69.92L482.6,-114L501.41,-114C515.66,-114 525.73,-104.88 525.73,-91.96C525.73,-79.04 515.66,-69.92 501.41,-69.92Z"/>
                <path d="M684.19,2.85L696.73,-11.21L682.1,-23.94C691.79,-35.53 697.49,-50.35 697.49,-66.69C697.49,-105.07 665.95,-135.28 625.86,-135.28C585.77,-135.28 554.23,-105.07 554.23,-66.69C554.23,-28.31 585.77,1.9 625.86,1.9C641.82,1.9 656.45,-2.85 668.23,-11.02L684.19,2.85ZM625.86,-17.48C597.74,-17.48 575.51,-39.14 575.51,-66.69C575.51,-94.24 597.74,-115.9 625.86,-115.9C653.98,-115.9 676.21,-94.24 676.21,-66.69C676.21,-55.67 672.6,-45.6 666.52,-37.43L653.79,-48.64L641.44,-34.58L652.65,-24.89C644.86,-20.14 635.74,-17.48 625.86,-17.48Z"/>
            </g>
        </g>
        <g transform="matrix(190,0,0,190,445.045135,490.029065)">
            <path d="M0.696,0.01L0.847,0.01L0.691,-0.126C0.742,-0.187 0.772,-0.265 0.772,-0.351C0.772,-0.553 0.606,-0.712 0.395,-0.712C0.184,-0.712 0.018,-0.553 0.018,-0.351C0.018,-0.149 0.184,0.01 0.395,0.01C0.479,0.01 0.556,-0.015 0.618,-0.058L0.696,0.01ZM0.395,-0.092C0.247,-0.092 0.13,-0.206 0.13,-0.351C0.13,-0.496 0.247,-0.61 0.395,-0.61C0.543,-0.61 0.66,-0.496 0.66,-0.351C0.66,-0.293 0.641,-0.24 0.609,-0.197L0.542,-0.256L0.477,-0.182L0.536,-0.131C0.495,-0.106 0.447,-0.092 0.395,-0.092ZM1.143,0.01C1.313,0.01 1.446,-0.121 1.446,-0.287L1.446,-0.7L1.336,-0.7L1.336,-0.287C1.336,-0.177 1.251,-0.092 1.143,-0.092C1.035,-0.092 0.95,-0.177 0.95,-0.287L0.95,-0.7L0.84,-0.7L0.84,-0.287C0.84,-0.121 0.973,0.01 1.143,0.01Z" style="fill:rgb(153,153,153);"/>
        </g>
        <g>
            <g transform="matrix(1,0,0,1,729.285,490.029)">
                <path d="M9.5,0L30.4,0L30.4,-56.05L45.98,-56.05L84.93,0L108.11,0L66.69,-60.23C79.23,-66.5 88.35,-79.61 88.35,-94.81C88.35,-116.28 69.35,-133 47.12,-133L9.5,-133L9.5,0ZM50.73,-75.43L30.4,-75.43L30.4,-114L44.84,-114C57.38,-114 67.07,-105.45 67.07,-94.62C67.07,-84.17 59.85,-75.43 50.73,-75.43Z"/>
            </g>
            <g transform="matrix(1,0,0,1,837.205,490.029)">
                <path d="M43.51,1.9C66.69,1.9 85.5,-13.87 85.5,-38.19C85.5,-62.51 70.68,-70.3 50.35,-80.75C34.96,-88.73 26.79,-92.91 26.79,-102.98C26.79,-111.15 33.63,-115.9 41.61,-115.9C51.68,-115.9 56.81,-110.39 60.42,-103.17L76.76,-115.33C70.68,-126.92 59.28,-135.28 42.37,-135.28C21.85,-135.28 4.56,-122.17 4.56,-102.03C4.56,-82.27 18.24,-72.77 35.34,-64.98C53.58,-56.62 64.22,-50.73 64.22,-36.1C64.22,-24.13 56.43,-17.48 43.51,-17.48C31.73,-17.48 23.56,-24.89 19.57,-36.1L1.9,-24.89C8.74,-8.93 23.56,1.9 43.51,1.9Z"/>
                <path d="M131.67,0L152.57,0L152.57,-114L193.04,-114L193.04,-133L91.2,-133L91.2,-114L131.67,-114L131.67,0Z"/>
                <path d="M263.91,1.9C296.21,1.9 321.48,-22.99 321.48,-54.53L321.48,-133L300.58,-133L300.58,-54.53C300.58,-33.63 284.43,-17.48 263.91,-17.48C243.39,-17.48 227.24,-33.63 227.24,-54.53L227.24,-133L206.34,-133L206.34,-54.53C206.34,-22.99 231.61,1.9 263.91,1.9Z"/>
            </g>
            <g transform="matrix(1,0,0,1,1170.085,490.029)">
                <path d="M56.05,0L70.49,0L124.26,-133L103.74,-133L64.03,-31.92L23.18,-133L2.28,-133L56.05,0Z"/>
                <path d="M172.71,0L191.71,0L221.16,-96.52L250.61,0L269.61,0L313.5,-133L293.55,-133L260.87,-31.54L231.61,-128.82L211.66,-128.82L182.59,-31.54L149.53,-133L128.82,-133L172.71,0Z"/>
            </g>
        </g>
        <g transform="matrix(190,0,0,190,1485.865135,490.029065)">
            <path d="M0.299,-0L0.393,-0L0.495,-0.252L0.597,-0L0.691,-0L0.974,-0.7L0.867,-0.7L0.644,-0.151L0.549,-0.385L0.676,-0.7L0.569,-0.7L0.495,-0.518L0.421,-0.7L0.314,-0.7L0.441,-0.385L0.346,-0.151L0.123,-0.7L0.016,-0.7L0.299,-0Z" style="fill:rgb(153,153,153);"/>
        </g>
        <g transform="matrix(190,0,0,190,1673.015135,490.029065)">
            <path d="M0.568,-0L0.676,-0L0.644,-0.082L0.882,-0.7L0.775,-0.7L0.594,-0.23L0.415,-0.7L0.308,-0.7L0.392,-0.474L0.298,-0.231L0.119,-0.7L0.012,-0.7L0.273,-0L0.381,-0L0.348,-0.083L0.444,-0.333L0.568,-0Z" style="fill:rgb(153,153,153);"/>
        </g>
        <g transform="matrix(190,0,0,190,1842.685135,490.029065)">
            <path d="M0.243,-0L0.343,-0L0.455,-0.374L0.563,-0L0.663,-0L0.864,-0.7L0.759,-0.7L0.617,-0.166L0.5,-0.548L0.41,-0.548L0.295,-0.166L0.121,-0.7L0.012,-0.7L0.243,-0Z" style="fill:rgb(153,153,153);"/>
        </g>
        <g transform="matrix(190,0,0,190,2009.125135,490.029065)">
            <path d="M0.327,-0.7L0.395,-0.497L0.295,-0.166L0.121,-0.7L0.012,-0.7L0.243,-0L0.343,-0L0.446,-0.343L0.561,-0L0.663,-0L0.864,-0.7L0.759,-0.7L0.617,-0.166L0.435,-0.7L0.327,-0.7Z" style="fill:rgb(153,153,153);"/>
        </g>
        <g transform="matrix(190,0,0,190,2307.615135,490.029065)">
            <path d="M0.017,-0L0.132,-0L0.282,-0.255L0.431,-0L0.546,-0L0.339,-0.353L0.543,-0.7L0.428,-0.7L0.282,-0.451L0.135,-0.7L0.02,-0.7L0.224,-0.353L0.017,-0Z"/>
        </g>
        <g>
            <g transform="matrix(1,0,0,1,2171.765,490.029)">
                <path d="M109.44,0L133.95,0L80.18,-70.49L127.49,-133L103.55,-133L67.83,-86.45L32.3,-133L8.36,-133L55.86,-70.49L2.28,0L26.41,0L68.02,-54.53L109.44,0Z"/>
            </g>
            <g transform="matrix(1,0,0,1,2411.355,490.029)">
                <path d="M46.36,0L67.26,0L67.26,-60.04L111.72,-133L90.25,-133L56.81,-77.14L23.37,-133L1.33,-133L46.36,-60.23L46.36,0Z"/>
                <path d="M119.32,0L235.6,0L235.6,-19L156.18,-19L237.5,-133L123.12,-133L123.12,-114L200.83,-114L119.32,0Z"/>
            </g>
        </g>
        <g>
            <g transform="matrix(1,0,0,1,647.205,696.289)">
                <path d="M37.62,1.9C46.55,1.9 53.96,-0.57 60.23,-4.75L60.23,0L79.23,0L79.23,-57C79.23,-85.5 60.61,-92.15 43.89,-92.15C33.25,-92.15 23.94,-89.3 16.15,-84.36L9.12,-60.8L11.02,-60.8C21.66,-70.49 30.78,-73.91 41.23,-73.91C56.43,-73.91 60.23,-66.12 60.23,-55.1C33.82,-55.1 7.22,-48.07 7.22,-23.56C7.22,-7.41 19.57,1.9 37.62,1.9ZM39.33,-13.49C30.78,-13.49 25.27,-17.1 25.27,-24.32C25.27,-33.06 33.82,-41.04 60.23,-40.47L60.23,-20.9C55.1,-16.91 47.31,-13.49 39.33,-13.49Z"/>
            </g>
            <g transform="matrix(1,0,0,1,733.085,696.289)">
                <path d="M53.01,1.9C79.23,1.9 99.56,-18.81 99.56,-45.98C99.56,-71.44 79.23,-92.15 52.82,-92.15C44.08,-92.15 36.1,-89.87 28.69,-85.31L28.69,-133L9.69,-133L9.69,0L28.69,0L28.69,-4.94C35.91,-0.57 44.27,1.9 53.01,1.9ZM52.06,-16.15C43.51,-16.15 34.2,-19.76 28.69,-26.03L28.69,-65.36C34.39,-70.68 43.32,-74.1 52.06,-74.1C68.59,-74.1 80.56,-61.37 80.56,-45.79C80.56,-28.88 68.59,-16.15 52.06,-16.15Z"/>
                <path d="M158.46,1.9C168.53,1.9 179.17,-0.95 188.1,-6.08L188.1,-28.88C181.64,-21.85 170.43,-16.15 159.22,-16.15C142.31,-16.15 130.34,-28.88 130.34,-44.84C130.34,-61.37 142.31,-74.1 159.03,-74.1C170.62,-74.1 181.83,-68.02 188.1,-61.37L188.1,-84.17C179.74,-88.92 169.48,-92.15 158.84,-92.15C131.67,-92.15 111.34,-71.44 111.34,-45.03C111.34,-18.81 131.67,1.9 158.46,1.9Z"/>
                <path d="M245.29,1.9C254.03,1.9 262.39,-0.57 269.61,-4.94L269.61,0L288.61,0L288.61,-133L269.61,-133L269.61,-85.31C262.2,-89.87 254.22,-92.15 245.48,-92.15C219.07,-92.15 198.74,-71.44 198.74,-45.98C198.74,-18.81 219.07,1.9 245.29,1.9ZM246.24,-16.15C229.71,-16.15 217.74,-28.88 217.74,-45.79C217.74,-61.37 229.71,-74.1 246.24,-74.1C254.98,-74.1 263.91,-70.68 269.61,-65.36L269.61,-26.03C264.1,-19.76 254.79,-16.15 246.24,-16.15Z"/>
            </g>
            <g transform="matrix(1,0,0,1,1030.245,696.289)">
                <path d="M55.86,1.9C68.78,1.9 81.32,-2.28 91.39,-8.74L91.39,-28.5C84.17,-22.23 71.44,-16.15 58.9,-16.15C41.8,-16.15 27.74,-24.7 25.27,-40.28L97.09,-40.28C100.89,-78.66 75.24,-92.15 52.82,-92.15C25.46,-92.15 5.89,-71.44 5.89,-45.6C5.89,-18.81 26.79,1.9 55.86,1.9ZM25.84,-55.86C29.45,-66.31 38.57,-74.1 52.06,-74.1C66.31,-74.1 75.43,-66.31 77.9,-55.86L25.84,-55.86Z"/>
                <path d="M117.8,0L136.8,0L136.8,-73.15L167.58,-73.15L167.58,-90.25L136.8,-90.25L136.8,-99.75C136.8,-111.34 142.88,-116.85 151.81,-116.85C156.37,-116.85 160.55,-116.09 167.58,-112.48L167.58,-131.1C162.07,-133.38 155.99,-134.9 149.15,-134.9C129.39,-134.9 117.8,-121.98 117.8,-102.6L117.8,-90.06L102.6,-90.06L102.6,-73.34L117.8,-73.34L117.8,0Z"/>
                <path d="M210.14,44.65C237.88,44.65 254.79,34.77 254.79,16.34C254.79,2.28 247.95,-5.89 231.04,-10.07L211.47,-14.82C202.35,-17.1 196.65,-18.43 196.65,-22.8C196.65,-24.13 197.03,-25.27 198.36,-26.41C202.16,-25.27 205.96,-24.7 210.14,-24.7C230.47,-24.7 245.86,-39.14 245.86,-58.52C245.86,-64.6 244.34,-70.11 241.49,-75.05L253.65,-75.05L253.65,-90.25L222.49,-90.25C218.5,-91.58 214.51,-92.15 210.14,-92.15C189.81,-92.15 174.42,-77.71 174.42,-58.52C174.42,-48.26 178.79,-39.52 185.82,-33.44C181.45,-30.21 177.65,-26.22 177.65,-19.38C177.65,-13.68 180.5,-8.93 185.06,-5.7C173.85,-0.76 165.87,6.08 165.87,17.29C165.87,36.86 186.2,44.65 210.14,44.65ZM210.14,-41.42C200.07,-41.42 192.47,-48.83 192.47,-58.52C192.47,-68.21 200.07,-75.43 210.14,-75.43C220.21,-75.43 227.81,-68.21 227.81,-58.52C227.81,-48.83 220.21,-41.42 210.14,-41.42ZM185.06,15.01C185.06,9.31 190.95,4.18 202.35,0.57L220.97,5.13C231.42,7.79 235.79,11.59 235.79,15.96C235.79,23.75 222.3,26.6 210.14,26.6C197.98,26.6 185.06,23.56 185.06,15.01Z"/>
                <path d="M266.38,0L285.38,0L285.38,-65.74C289.37,-70.49 296.59,-74.1 307.04,-74.1C321.48,-74.1 329.46,-65.55 329.46,-51.11L329.46,0L348.46,0L348.46,-52.06C348.46,-77.14 334.21,-92.15 311.22,-92.15C300.58,-92.15 291.84,-89.3 285.38,-84.55L285.38,-133L266.38,-133L266.38,0Z"/>
                <path d="M367.46,0L386.46,0L386.46,-90.25L367.46,-90.25L367.46,0ZM376.96,-102.22L390.26,-115.52L376.96,-129.01L363.66,-115.52L376.96,-102.22ZM396.53,44.65C418,44.65 426.74,29.45 426.74,0L426.74,-90.25L407.74,-90.25L407.74,0C407.74,18.05 402.61,25.46 392.54,25.46C391.4,25.46 390.26,25.46 389.12,25.27L389.12,44.08C391.78,44.46 394.25,44.65 396.53,44.65ZM417.24,-102.22L430.54,-115.52L417.24,-129.01L403.94,-115.52L417.24,-102.22Z"/>
            </g>
            <g transform="matrix(1,0,0,1,1464.965,696.289)">
                <path d="M9.69,0L28.69,0L28.69,-42.94L69.35,0L95.57,0L46.17,-51.11L91.2,-90.25L64.22,-90.25L28.69,-58.33L28.69,-133L9.69,-133L9.69,0Z"/>
                <path d="M134.71,1.9C141.74,1.9 147.44,0.19 152.38,-2.66L152.38,-21.28C148.01,-18.24 142.5,-16.34 135.85,-16.34C126.92,-16.34 121.6,-23.37 121.6,-33.25L121.6,-133L102.6,-133L102.6,-28.12C102.6,-10.83 116.47,1.9 134.71,1.9Z"/>
                <path d="M287.66,-51.11L287.66,0L306.66,0L306.66,-52.06C306.66,-76.57 294.69,-92.15 271.32,-92.15C259.16,-92.15 248.33,-89.3 238.07,-79.04C231.99,-87.4 222.3,-92.15 210.14,-92.15C199.5,-92.15 190.76,-89.3 184.3,-84.55L184.3,-90.25L165.3,-90.25L165.3,0L184.3,0L184.3,-65.74C188.29,-70.49 195.51,-74.1 205.96,-74.1C219.26,-74.1 226.48,-65.55 226.48,-51.11L226.48,0L245.48,0L245.48,-52.06C245.48,-55.67 245.29,-59.09 244.72,-62.32C250.23,-70.3 257.64,-74.1 267.14,-74.1C280.44,-74.1 287.66,-67.83 287.66,-51.11Z"/>
                <path d="M323.95,0L342.95,0L342.95,-65.74C346.94,-70.49 354.16,-74.1 364.61,-74.1C379.05,-74.1 387.03,-65.55 387.03,-51.11L387.03,0L406.03,0L406.03,-52.06C406.03,-77.14 391.78,-92.15 368.79,-92.15C358.15,-92.15 349.41,-89.3 342.95,-84.55L342.95,-90.25L323.95,-90.25L323.95,0Z"/>
                <path d="M465.88,1.9C491.91,1.9 512.24,-18.81 512.24,-45.03C512.24,-71.44 491.91,-92.15 465.88,-92.15C439.85,-92.15 419.52,-71.44 419.52,-45.03C419.52,-18.81 439.85,1.9 465.88,1.9ZM465.88,-16.15C450.49,-16.15 438.52,-28.88 438.52,-45.03C438.52,-61.37 450.49,-74.1 465.88,-74.1C481.27,-74.1 493.24,-61.37 493.24,-45.03C493.24,-28.88 481.27,-16.15 465.88,-16.15Z"/>
            </g>
            <g transform="matrix(1,0,0,1,1981.955,696.289)">
                <path d="M9.69,42.75L28.69,42.75L28.69,-4.94C35.91,-0.57 44.27,1.9 53.01,1.9C79.23,1.9 99.56,-18.81 99.56,-45.98C99.56,-71.44 79.23,-92.15 52.82,-92.15C44.08,-92.15 36.1,-89.87 28.69,-85.31L28.69,-90.25L9.69,-90.25L9.69,42.75ZM52.06,-16.15C43.51,-16.15 34.2,-19.76 28.69,-26.03L28.69,-65.36C34.39,-70.68 43.32,-74.1 52.06,-74.1C68.59,-74.1 80.56,-61.37 80.56,-45.79C80.56,-28.88 68.59,-16.15 52.06,-16.15Z"/>
                <path d="M201.21,42.75L201.21,-90.25L182.21,-90.25L182.21,-85.31C174.8,-89.87 166.82,-92.15 158.08,-92.15C131.67,-92.15 111.34,-71.44 111.34,-45.98C111.34,-18.81 131.67,1.9 157.89,1.9C166.63,1.9 174.99,-0.57 182.21,-4.94L182.21,42.75L201.21,42.75ZM158.84,-16.15C142.31,-16.15 130.34,-28.88 130.34,-45.79C130.34,-61.37 142.31,-74.1 158.84,-74.1C167.58,-74.1 176.51,-70.68 182.21,-65.36L182.21,-26.03C176.7,-19.76 167.39,-16.15 158.84,-16.15Z"/>
            </g>
        </g>
        <g transform="matrix(190,0,0,190,2191.715135,696.288818)">
            <path d="M0.814,0.24C0.869,0.24 0.93,0.228 0.986,0.194L0.986,0.107C0.948,0.132 0.907,0.145 0.861,0.147C0.773,0.152 0.68,0.122 0.567,0.059C0.522,0.034 0.469,0.001 0.416,-0.034C0.478,-0.078 0.519,-0.152 0.519,-0.237C0.519,-0.376 0.412,-0.485 0.275,-0.485C0.138,-0.485 0.031,-0.376 0.031,-0.237C0.031,-0.133 0.091,-0.046 0.179,-0.009C0.249,0.021 0.277,0.009 0.411,0.089C0.49,0.136 0.65,0.24 0.814,0.24ZM0.275,-0.085C0.194,-0.085 0.131,-0.152 0.131,-0.237C0.131,-0.323 0.194,-0.39 0.275,-0.39C0.356,-0.39 0.419,-0.323 0.419,-0.237C0.419,-0.152 0.356,-0.085 0.275,-0.085Z" style="fill:rgb(153,153,153);"/>
        </g>
        <g transform="matrix(1,0,0,1,2296.215,696.289)">
            <path d="M9.69,0L28.69,0L28.69,-60.99C33.06,-69.73 40.85,-73.53 50.35,-73.53C55.48,-73.53 60.8,-72.39 67.83,-68.4L67.83,-87.78C62.7,-90.44 57.57,-92.15 51.11,-92.15C42.37,-92.15 34.39,-89.11 28.69,-82.65L28.69,-90.25L9.69,-90.25L9.69,0Z"/>
            <path d="M110.96,1.9C130.72,1.9 148.2,-5.7 148.2,-26.41C148.2,-42.37 137.56,-50.54 116.47,-55.48C102.41,-58.71 96.33,-61.18 96.33,-66.69C96.33,-72.58 103.17,-74.67 111.34,-74.67C123.5,-74.67 133,-70.3 140.41,-64.79L140.41,-84.36C132.05,-89.3 120.08,-92.15 110.2,-92.15C90.25,-92.15 77.14,-82.27 77.14,-66.69C77.14,-50.73 88.92,-43.32 108.87,-38.76C123.88,-35.34 129.2,-30.97 129.2,-25.65C129.2,-20.33 123.88,-16.15 110.58,-16.15C95,-16.15 86.64,-20.52 77.14,-29.45L77.14,-7.79C86.64,-1.71 96.9,1.9 110.96,1.9Z"/>
        </g>
        <g>
            <g transform="matrix(1,0,0,1,1186.71,890.549)">
                <path d="M54.53,1.9C62.13,1.9 70.11,-0.57 75.81,-4.56L75.81,-22.8C69.92,-18.43 62.13,-15.96 55.86,-15.96C45.79,-15.96 41.8,-22.99 41.8,-32.87L41.8,-73.15L75.81,-73.15L75.81,-90.25L41.8,-90.25L41.8,-108.3L22.8,-108.3L22.8,-90.25L3.99,-90.25L3.99,-73.15L22.8,-73.15L22.8,-28.12C22.8,-8.93 34.96,1.9 54.53,1.9Z"/>
                <path d="M126.54,1.9C137.18,1.9 145.92,-0.95 152.38,-5.7L152.38,0L171.38,0L171.38,-90.25L152.38,-90.25L152.38,-24.51C148.39,-19.76 141.17,-16.15 130.72,-16.15C116.28,-16.15 108.3,-24.7 108.3,-39.14L108.3,-90.25L89.3,-90.25L89.3,-38.19C89.3,-13.11 103.55,1.9 126.54,1.9Z"/>
                <path d="M224.01,0L243.77,0L284.43,-90.25L261.82,-90.25L234.27,-24.13L206.72,-90.25L183.35,-90.25L224.01,0Z"/>
                <path d="M321.48,0L340.1,0L359.86,-52.82L380.76,0L399.38,0L432.25,-90.25L411.54,-90.25L388.93,-27.74L367.46,-82.46L352.26,-82.46L331.93,-27.74L309.32,-90.25L288.61,-90.25L321.48,0Z"/>
                <path d="M503.31,0L527.06,0L493.62,-44.65L527.44,-90.25L503.88,-90.25L482.22,-59.66L459.42,-90.25L435.86,-90.25L469.49,-45.22L435.29,0L459.04,0L480.7,-30.21L503.31,0Z"/>
                <path d="M550.62,43.7C565.82,43.7 576.84,33.63 582.35,21.28L632.32,-90.25L609.71,-90.25L582.16,-24.32L553.09,-90.25L529.72,-90.25L571.52,-0.57L565.82,12.16C562.59,19.19 556.51,23.75 548.91,23.75C546.82,23.75 544.73,23.37 542.64,22.8L542.64,42.75C545.49,43.32 548.15,43.7 550.62,43.7Z"/>
            </g>
            <g transform="matrix(1,0,0,1,1819.22,890.549)">
                <path d="M3.04,0L84.74,0L84.74,-19L38.57,-19L87.78,-90.25L7.22,-90.25L7.22,-71.25L52.63,-71.25L3.04,0Z"/>
            </g>
        </g>
        <g transform="matrix(190,0,0,190,592.485135,1096.808324)">
            <path d="M1.518,0.004C1.696,0.004 1.849,-0.116 1.878,-0.297L2.512,-0.297L2.386,-0.161L3.021,-0.348L2.388,-0.536L2.512,-0.397L1.878,-0.397C1.848,-0.567 1.697,-0.706 1.518,-0.706C1.328,-0.706 1.177,-0.565 1.148,-0.397L0.681,-0.397L0.554,-0.533L0.415,-0.533L0.542,-0.397L0.475,-0.397L0.348,-0.533L0.208,-0.533L0.336,-0.397L0.268,-0.397L0.142,-0.533L0.002,-0.533L0.13,-0.397L0.002,-0.397L0.002,-0.297L0.13,-0.297L0.002,-0.161L0.142,-0.161L0.268,-0.297L0.336,-0.297L0.208,-0.161L0.348,-0.161L0.475,-0.297L0.542,-0.297L0.415,-0.161L0.554,-0.161L0.681,-0.297L1.148,-0.297C1.177,-0.117 1.327,0.004 1.518,0.004ZM1.518,-0.086C1.388,-0.086 1.278,-0.175 1.248,-0.297L1.519,-0.297L1.519,-0.397L1.248,-0.397C1.277,-0.516 1.39,-0.606 1.518,-0.606C1.658,-0.606 1.778,-0.486 1.778,-0.346C1.778,-0.205 1.657,-0.086 1.518,-0.086Z"/>
        </g>
        <g transform="matrix(190,0,0,190,1927.995135,1096.808324)">
            <path d="M1.515,0.004C1.706,0.004 1.856,-0.117 1.885,-0.297L2.352,-0.297L2.479,-0.161L2.618,-0.161L2.491,-0.297L2.558,-0.297L2.685,-0.161L2.825,-0.161L2.697,-0.297L2.765,-0.297L2.891,-0.161L3.031,-0.161L2.903,-0.297L3.031,-0.297L3.031,-0.397L2.903,-0.397L3.031,-0.533L2.891,-0.533L2.765,-0.397L2.697,-0.397L2.825,-0.533L2.685,-0.533L2.558,-0.397L2.491,-0.397L2.618,-0.533L2.479,-0.533L2.352,-0.397L1.885,-0.397C1.856,-0.565 1.705,-0.706 1.515,-0.706C1.336,-0.706 1.185,-0.567 1.155,-0.397L0.521,-0.397L0.645,-0.536L0.012,-0.348L0.647,-0.161L0.521,-0.297L1.155,-0.297C1.184,-0.116 1.337,0.004 1.515,0.004ZM1.515,-0.086C1.376,-0.086 1.255,-0.205 1.255,-0.346C1.255,-0.486 1.375,-0.606 1.515,-0.606C1.643,-0.606 1.756,-0.516 1.785,-0.397L1.514,-0.397L1.514,-0.297L1.785,-0.297C1.755,-0.175 1.645,-0.086 1.515,-0.086Z"/>
        </g>
        <g>
            <g transform="matrix(1,0,0,1,1168.755,1096.808)">
                <path d="M0,-30.59L26.6,-30.59L50.54,-56.43L63.46,-56.43L39.14,-30.59L65.74,-30.59L89.87,-56.43L102.6,-56.43L78.47,-30.59L104.88,-30.59L129.01,-56.43L282.72,-56.43L258.78,-30.59L379.43,-66.12L259.16,-101.84L282.72,-75.43L129.01,-75.43L104.88,-101.27L78.47,-101.27L102.6,-75.43L89.87,-75.43L65.74,-101.27L39.14,-101.27L63.46,-75.43L50.54,-75.43L26.6,-101.27L0,-101.27L24.32,-75.43L0,-75.43L0,-56.43L24.32,-56.43L0,-30.59Z"/>
                <path d="M500.08,-30.59L476.14,-56.43L630.42,-56.43L654.36,-30.59L680.96,-30.59L656.64,-56.43L669.56,-56.43L693.5,-30.59L720.1,-30.59L695.78,-56.43L708.7,-56.43L732.83,-30.59L759.24,-30.59L735.11,-56.43L759.24,-56.43L759.24,-75.43L735.11,-75.43L759.24,-101.27L732.83,-101.27L708.7,-75.43L695.78,-75.43L720.1,-101.27L693.5,-101.27L669.56,-75.43L656.64,-75.43L680.96,-101.27L654.36,-101.27L630.42,-75.43L476.14,-75.43L499.7,-101.84L379.43,-66.12L500.08,-30.59Z"/>
            </g>
        </g>
    </g>
</svg>
