<?xml version="1.0" encoding="UTF-8" standalone="no"?><!DOCTYPE svg PUBLIC "-//W3C//DTD SVG 1.1//EN" "http://www.w3.org/Graphics/SVG/1.1/DTD/svg11.dtd"><svg width="100%" height="100%" viewBox="0 0 10667 6000" version="1.1" xmlns="http://www.w3.org/2000/svg" xmlns:xlink="http://www.w3.org/1999/xlink" xml:space="preserve" xmlns:serif="http://www.serif.com/" style="fill-rule:evenodd;clip-rule:evenodd;stroke-linejoin:round;stroke-miterlimit:2;"><rect x="-446.8" y="-375.4" width="11560.2" height="6750.7" style="fill:#222;"/><g><path d="M353.9,1588.7l87.1,0l56.2,-138.5l228.8,0l57.8,138.5l87.1,0l-227.2,-554.2l-62.5,0l-227.2,554.2Zm174.2,-213.8l82.3,-202.7l84.7,202.7l-167,0Z" style="fill:#fff;fill-rule:nonzero;stroke:#fff;stroke-width:4.2px;"/><path d="M919.9,1588.7l184.5,0c114.8,0 192.4,-72.8 192.4,-165.5c0,-75.2 -30.1,-123.5 -102.9,-150.4c32.5,-29.3 45.1,-54.6 45.1,-94.2c0,-80.8 -68.1,-144.1 -168.6,-144.1l-150.4,0l0,554.2Zm185.2,-79.2l-98.2,0l0,-183.7l96.6,0c67.3,0 104.5,41.2 104.5,96.6c0,49.9 -36.4,87.1 -102.9,87.1Zm-32.5,-262.8l-65.7,0l0,-133l63.3,0c50.7,0 80,27.7 80,64.9c0,38.8 -28.5,68.1 -77.6,68.1Z" style="fill:#fff;fill-rule:nonzero;stroke:#fff;stroke-width:4.2px;"/><path d="M1624.5,1596.6c83.1,0 142.5,-26.1 194,-61.8l0,-106.9c-40.4,51.5 -114,89.5 -190.8,89.5c-118.8,0 -207.4,-91.8 -207.4,-213.8c0,-114 87.9,-199.5 205,-199.5c76,0 151.2,34.8 194.8,81.5l0,-103.7c-51.5,-32.5 -106.1,-57 -196.3,-57c-167,0 -292.1,119.5 -292.1,278.7c0,167 125.9,292.9 292.9,292.9Z" style="fill:#fff;fill-rule:nonzero;stroke:#fff;stroke-width:4.2px;"/><path d="M1873.9,1588.7l194,0c163.1,0 285,-122.7 285,-285.8c0,-153.6 -122.7,-268.4 -286.6,-268.4l-192.4,0l0,554.2Zm194,-79.2l-106.9,0l0,-395.8l106.9,0c112.4,0 196.3,81.5 196.3,190.8c0,117.2 -83.9,205 -196.3,205Z" style="fill:#fff;fill-rule:nonzero;stroke:#fff;stroke-width:4.2px;"/><path d="M2413.8,1588.7l348.3,0l0,-79.2l-261.2,0l0,-178.1l184.5,0l0,-79.2l-184.5,0l0,-138.5l245.4,0l0,-79.2l-332.5,0l0,554.2Z" style="fill:#fff;fill-rule:nonzero;stroke:#fff;stroke-width:4.2px;"/><path d="M2813.6,1588.7l87.1,0l0,-257.3l184.5,0l0,-79.2l-184.5,0l0,-138.5l245.4,0l0,-79.2l-332.5,0l0,554.2Z" style="fill:#fff;fill-rule:nonzero;stroke:#fff;stroke-width:4.2px;"/><path d="M3440.6,1596.6c82.3,0 159.1,-22.2 223.3,-61.8l0,-261.2l-177.3,0l0,79.2l90.3,0l0,138.5c-42,17.4 -87.9,24.5 -136.2,24.5c-118,0 -200.3,-94.2 -200.3,-216.1c0,-107.7 85.5,-194 202.7,-194c85.5,0 163.1,28.5 211.4,75.2l0,-99c-59.4,-34.8 -134.6,-57 -208.2,-57c-178.9,0 -294.5,134.6 -294.5,274.7c0,165.5 130.6,296.9 289,296.9Z" style="fill:#fff;fill-rule:nonzero;stroke:#fff;stroke-width:4.2px;"/><path d="M3993.9,1596.6c82.3,0 159.1,-22.2 223.3,-61.8l0,-209l-87.1,0l0,165.5c-42,17.4 -87.9,24.5 -136.2,24.5c-118,0 -200.3,-94.2 -200.3,-216.1c0,-107.7 85.5,-194 202.7,-194c85.5,0 163.1,28.5 211.4,75.2l0,-99c-59.4,-34.8 -134.6,-57 -208.2,-57c-178.9,0 -294.5,134.6 -294.5,274.7c0,165.5 130.6,296.9 289,296.9Z" style="fill:#999;fill-rule:nonzero;"/><path d="M4300.3,1588.7l0,-554.2l87.1,0l0,228.8l282.6,0l0,-228.8l87.1,0l0,554.2l-87.1,0l0,-246.2l-282.6,0l0,246.2l-87.1,0Z" style="fill:#fff;fill-rule:nonzero;"/><path d="M4844.2,1588.7l87.1,0l0,-246.2l314.3,0l0,246.2l87.1,0l0,-554.2l-87.1,0l0,228.8l-314.3,0l0,-228.8l-87.1,0l0,554.2Z" style="fill:#999;fill-rule:nonzero;"/><rect x="5414.2" y="1034.6" width="87.1" height="554.2" style="fill:#fff;fill-rule:nonzero;"/><path d="M5701.6,1596.6c92.6,0 156,-66.5 156,-163.9l0,-398.2l-87.1,0l0,399.8c0,48.3 -28.5,81.5 -69.7,81.5c-29.3,0 -56.2,-24.5 -69.7,-63.3l-74.4,40.4c25.3,61.8 83.9,103.7 144.9,103.7Z" style="fill:#fff;fill-rule:nonzero;"/><path d="M5950.9,1382.9l87.1,0l0,-348.3l-87.1,0l0,348.3Zm138.5,213.8c92.6,0 156,-66.5 156,-163.9l0,-398.2l-87.1,0l0,399.8c0,48.3 -28.5,81.5 -69.7,81.5c-29.3,0 -56.2,-24.5 -69.7,-63.3l-74.4,40.4c25.3,61.8 83.9,103.7 144.9,103.7Z" style="fill:#999;fill-rule:nonzero;"/><path d="M6332.5,1588.7l87.1,0l0,-262.8l250.2,262.8l114,0l-285,-302.4l285,-251.8l-115.6,0l-248.6,219.3l0,-219.3l-87.1,0l0,554.2Z" style="fill:#fff;fill-rule:nonzero;"/><path d="M6832.9,1588.7l330.9,0l0,-79.2l-243.8,0l0,-475l-87.1,0l0,554.2Z" style="fill:#fff;fill-rule:nonzero;"/><path d="M7219.2,1588.7l87.1,0l0,-427.5l195.5,237.5l195.5,-237.5l0,427.5l87.1,0l0,-554.2l-88.7,0l-194,237.5l-194,-237.5l-88.7,0l0,554.2Z" style="fill:#fff;fill-rule:nonzero;"/><path d="M7871.5,1588.7l87.1,0l0,-422l344.4,422l88.7,0l0,-554.2l-87.1,0l0,420.4l-343.6,-420.4l-89.5,0l0,554.2Z" style="fill:#fff;fill-rule:nonzero;"/><path d="M8743.9,1596.6c167,0 298.5,-125.9 298.5,-285.8c0,-159.9 -131.4,-285.8 -298.5,-285.8c-167,0 -298.5,125.9 -298.5,285.8c0,159.9 131.4,285.8 298.5,285.8Zm0,-80.8c-117.2,0 -209.8,-90.2 -209.8,-205c0,-114.8 92.6,-205 209.8,-205c117.2,0 209.8,90.2 209.8,205c0,114.8 -92.6,205 -209.8,205Z" style="fill:#fff;fill-rule:nonzero;"/><path d="M9103.4,1588.7l87.1,0l0,-212.2l78.4,0c106.1,0 190,-75.2 190,-171c0,-95.8 -83.9,-171 -190.8,-171l-164.7,0l0,554.2Zm165.5,-291.3l-78.4,0l0,-183.7l78.4,0c59.4,0 101.3,38 101.3,91.8c0,53.8 -42,91.8 -101.3,91.8Z" style="fill:#fff;fill-rule:nonzero;"/><path d="M10030.4,1600.6l52.2,-58.6l-61,-53c40.4,-48.3 64.1,-110 64.1,-178.1c0,-159.9 -131.4,-285.8 -298.5,-285.8c-167,0 -298.5,125.9 -298.5,285.8c0,159.9 131.4,285.8 298.5,285.8c66.5,0 127.5,-19.8 176.5,-53.8l66.5,57.8Zm-243,-84.7c-117.2,0 -209.8,-90.2 -209.8,-205c0,-114.8 92.6,-205 209.8,-205c117.2,0 209.8,90.2 209.8,205c0,45.9 -15,87.9 -40.4,121.9l-53,-46.7l-51.5,58.6l46.7,40.4c-32.5,19.8 -70.5,30.9 -111.6,30.9Z" style="fill:#fff;fill-rule:nonzero;"/><path d="M1185.5,2406.1l119.5,0l-123.5,-107.7c40.4,-48.3 64.1,-110 64.1,-178.1c0,-159.9 -131.4,-285.8 -298.5,-285.8c-167,0 -298.5,125.9 -298.5,285.8c0,159.9 131.4,285.8 298.5,285.8c66.5,0 127.5,-19.8 176.5,-53.8l61.8,53.8Zm-238.3,-80.8c-117.2,0 -209.8,-90.3 -209.8,-205c0,-114.8 92.6,-205 209.8,-205c117.2,0 209.8,90.2 209.8,205c0,45.9 -15,87.9 -40.4,121.9l-53,-46.7l-51.5,58.6l46.7,40.4c-32.5,19.8 -70.5,30.9 -111.6,30.9Zm592.2,80.8c134.6,0 239.9,-103.7 239.9,-235.1l0,-327l-87.1,0l0,327c0,87.1 -67.3,154.4 -152.8,154.4c-85.5,0 -152.8,-67.3 -152.8,-154.4l0,-327l-87.1,0l0,327c0,131.4 105.3,235.1 239.9,235.1Z" style="fill:#999;fill-rule:nonzero;"/><path d="M1858.4,2398.1l87.1,0l0,-233.5l64.9,0l162.3,233.5l96.6,0l-172.6,-251c52.2,-26.1 90.2,-80.8 90.2,-144.1c0,-89.5 -79.2,-159.1 -171.8,-159.1l-156.8,0l0,554.2Zm171.8,-314.3l-84.7,0l0,-160.7l60.2,0c52.2,0 92.6,35.6 92.6,80.8c0,43.5 -30.1,80 -68.1,80Z" style="fill:#fff;fill-rule:nonzero;"/><path d="M2449.8,2406.1c96.6,0 175,-65.7 175,-167c0,-101.3 -61.8,-133.8 -146.5,-177.3c-64.1,-33.3 -98.2,-50.7 -98.2,-92.6c0,-34 28.5,-53.8 61.8,-53.8c42,0 63.3,23 78.4,53l68.1,-50.7c-25.3,-48.3 -72.8,-83.1 -143.3,-83.1c-85.5,0 -157.5,54.6 -157.5,138.5c0,82.3 57,121.9 128.2,154.4c76,34.8 120.3,59.4 120.3,120.3c0,49.9 -32.5,77.6 -86.3,77.6c-49.1,0 -83.1,-30.9 -99.7,-77.6l-73.6,46.7c28.5,66.5 90.2,111.6 173.4,111.6Z" style="fill:#fff;fill-rule:nonzero;"/><path d="M2817.1,2398.1l87.1,0l0,-475l168.6,0l0,-79.2l-424.3,0l0,79.2l168.6,0l0,475Z" style="fill:#fff;fill-rule:nonzero;"/><path d="M3368.1,2406.1c134.6,0 239.9,-103.7 239.9,-235.1l0,-327l-87.1,0l0,327c0,87.1 -67.3,154.4 -152.8,154.4c-85.5,0 -152.8,-67.3 -152.8,-154.4l0,-327l-87.1,0l0,327c0,131.4 105.3,235.1 239.9,235.1Z" style="fill:#fff;fill-rule:nonzero;"/><path d="M3889,2398.1l60.2,0l224,-554.2l-85.5,0l-165.5,421.2l-170.2,-421.2l-87.1,0l224,554.2Z" style="fill:#fff;fill-rule:nonzero;"/><path d="M4375.1,2398.1l79.2,0l122.7,-402.2l122.7,402.2l79.2,0l182.9,-554.2l-83.1,0l-136.2,422.8l-121.9,-405.3l-83.1,0l-121.1,405.3l-137.8,-422.8l-86.3,0l182.9,554.2Z" style="fill:#fff;fill-rule:nonzero;"/><path d="M5208,2398.1l74.4,0l80.8,-199.5l80.7,199.5l74.4,0l224,-554.2l-84.7,0l-176.5,434.6l-75.2,-185.2l100.5,-249.4l-84.7,0l-58.6,144.1l-58.6,-144.1l-84.7,0l100.5,249.4l-75.2,185.2l-176.5,-434.6l-84.7,0l224,554.2Z" style="fill:#999;fill-rule:nonzero;"/><path d="M6200.7,2398.1l85.5,0l-25.3,-64.9l188.4,-489.2l-84.7,0l-143.3,372.1l-141.7,-372.1l-84.7,0l66.5,178.9l-74.4,192.4l-141.7,-371.3l-84.7,0l206.6,554.2l85.5,0l-26.1,-65.7l76,-197.9l98.2,263.6Z" style="fill:#999;fill-rule:nonzero;"/><path d="M6650.4,2398.1l79.2,0l88.7,-296.1l85.5,296.1l79.2,0l159.1,-554.2l-83.1,0l-112.4,422.8l-92.6,-302.4l-71.2,0l-91,302.4l-137.7,-422.8l-86.3,0l182.9,554.2Z" style="fill:#999;fill-rule:nonzero;"/><path d="M7410.4,1844l53.8,160.7l-79.2,262l-137.7,-422.8l-86.3,0l182.9,554.2l79.2,0l81.5,-271.5l91,271.5l80.8,0l159.1,-554.2l-83.1,0l-112.4,422.8l-144.1,-422.8l-85.5,0Z" style="fill:#999;fill-rule:nonzero;"/><path d="M8285.2,2398.1l102.1,0l-224,-293.7l197.1,-260.5l-99.8,0l-148.8,194l-148,-194l-99.8,0l197.9,260.5l-223.2,293.7l100.5,0l173.4,-227.2l172.6,227.2Z" style="fill:#fff;fill-rule:nonzero;"/><path d="M8408.7,2398.1l91,0l118.8,-201.9l118,201.9l91,0l-163.9,-279.5l161.5,-274.7l-91,0l-115.6,197.1l-116.4,-197.1l-91,0l161.5,274.7l-163.9,279.5Z" style="fill:#fff;fill-rule:nonzero;"/><path d="M9020.6,2398.1l87.1,0l0,-250.2l185.2,-304l-89.5,0l-139.3,232.8l-139.3,-232.8l-91.8,0l187.6,303.2l0,251Z" style="fill:#fff;fill-rule:nonzero;"/><path d="M9324.6,2398.1l484.5,0l0,-79.2l-330.9,0l338.8,-475l-476.6,0l0,79.2l323.8,0l-339.6,475Z" style="fill:#fff;fill-rule:nonzero;"/><path d="M1633.6,3265.5c37.2,0 68.1,-10.3 94.2,-27.7l0,19.8l79.2,0l0,-237.5c0,-118.8 -77.6,-146.5 -147.2,-146.5c-44.3,0 -83.1,11.9 -115.6,32.5l-29.3,98.2l7.9,0c44.3,-40.4 82.3,-54.6 125.9,-54.6c63.3,0 79.2,32.5 79.2,78.4c-110,0 -220.9,29.3 -220.9,131.4c0,67.3 51.5,106.1 126.7,106.1Zm7.1,-64.1c-35.6,0 -58.6,-15 -58.6,-45.1c0,-36.4 35.6,-69.7 145.7,-67.3l0,81.5c-21.4,16.6 -53.8,30.9 -87.1,30.9Z" style="fill:#fff;fill-rule:nonzero;"/><path d="M2055.5,3265.5c109.2,0 194,-86.3 194,-199.5c0,-106.1 -84.7,-192.4 -194.8,-192.4c-36.4,0 -69.7,9.5 -100.5,28.5l0,-198.7l-79.2,0l0,554.2l79.2,0l0,-20.6c30.1,18.2 64.9,28.5 101.3,28.5Zm-4,-75.2c-35.6,0 -74.4,-15 -97.4,-41.2l0,-163.9c23.8,-22.2 61,-36.4 97.4,-36.4c68.9,0 118.8,53 118.8,118c0,70.5 -49.9,123.5 -118.8,123.5Z" style="fill:#fff;fill-rule:nonzero;"/><path d="M2494.9,3265.5c42,0 86.3,-11.9 123.5,-33.2l0,-95c-26.9,29.3 -73.6,53 -120.3,53c-70.5,0 -120.3,-53 -120.3,-119.5c0,-68.9 49.9,-121.9 119.5,-121.9c48.3,0 95,25.3 121.1,53l0,-95c-34.8,-19.8 -77.6,-33.2 -121.9,-33.2c-113.2,0 -197.9,86.3 -197.9,196.3c0,109.2 84.7,195.5 196.3,195.5Z" style="fill:#fff;fill-rule:nonzero;"/><path d="M2856.7,3265.5c36.4,0 71.2,-10.3 101.3,-28.5l0,20.6l79.2,0l0,-554.2l-79.2,0l0,198.7c-30.9,-19 -64.1,-28.5 -100.5,-28.5c-110,0 -194.8,86.3 -194.8,192.4c0,113.2 84.7,199.5 194,199.5Zm4,-75.2c-68.9,0 -118.8,-53 -118.8,-123.5c0,-64.9 49.9,-118 118.8,-118c36.4,0 73.6,14.2 97.4,36.4l0,163.9c-23,26.1 -61.8,41.2 -97.4,41.2Z" style="fill:#fff;fill-rule:nonzero;"/><path d="M3305.6,3265.5c53.8,0 106.1,-17.4 148,-44.3l0,-82.3c-30.1,26.1 -83.1,51.5 -135.4,51.5c-71.3,0 -129.8,-35.6 -140.1,-100.5l299.2,0c15.8,-159.9 -91,-216.1 -184.5,-216.1c-114,0 -195.5,86.3 -195.5,194c0,111.6 87.1,197.9 208.2,197.9Zm-125.1,-240.7c15,-43.5 53,-76 109.2,-76c59.4,0 97.4,32.5 107.7,76l-216.9,0Z" style="fill:#fff;fill-rule:nonzero;"/><path d="M3563.7,3257.6l79.2,0l0,-304.8l128.2,0l0,-71.3l-128.2,0l0,-39.6c0,-48.3 25.3,-71.3 62.5,-71.3c19,0 36.4,3.2 65.7,18.2l0,-77.6c-23,-9.5 -48.3,-15.8 -76.8,-15.8c-82.3,0 -130.6,53.8 -130.6,134.6l0,52.3l-63.3,0l0,69.7l63.3,0l0,305.6Z" style="fill:#fff;fill-rule:nonzero;"/><path d="M3948.4,3443.6c115.6,0 186,-41.2 186,-118c0,-58.6 -28.5,-92.6 -99,-110l-81.5,-19.8c-38,-9.5 -61.8,-15 -61.8,-33.2c0,-5.5 1.6,-10.3 7.1,-15c15.8,4.8 31.7,7.1 49.1,7.1c84.7,0 148.8,-60.2 148.8,-140.9c0,-25.3 -6.3,-48.3 -18.2,-68.9l50.7,0l0,-63.3l-129.8,0c-16.6,-5.5 -33.2,-7.9 -51.5,-7.9c-84.7,0 -148.8,60.2 -148.8,140.1c0,42.7 18.2,79.2 47.5,104.5c-18.2,13.5 -34,30.1 -34,58.6c0,23.8 11.9,43.5 30.9,57c-46.7,20.6 -80,49.1 -80,95.8c0,81.5 84.7,114 184.5,114Zm0,-358.6c-42,0 -73.6,-30.9 -73.6,-71.2c0,-40.4 31.7,-70.5 73.6,-70.5c42,0 73.6,30.1 73.6,70.5c0,40.4 -31.7,71.2 -73.6,71.2Zm-104.5,235.1c0,-23.8 24.5,-45.1 72,-60.2l77.6,19c43.5,11.1 61.8,26.9 61.8,45.1c0,32.5 -56.2,44.3 -106.9,44.3c-50.7,0 -104.5,-12.7 -104.5,-48.3Z" style="fill:#fff;fill-rule:nonzero;"/><path d="M4182.7,3257.6l79.2,0l0,-273.9c16.6,-19.8 46.7,-34.8 90.2,-34.8c60.2,0 93.4,35.6 93.4,95.8l0,213l79.2,0l0,-216.9c0,-104.5 -59.4,-167 -155.2,-167c-44.3,0 -80.8,11.9 -107.7,31.7l0,-201.9l-79.2,0l0,554.2Z" style="fill:#fff;fill-rule:nonzero;"/><path d="M4603.9,3257.6l79.2,0l0,-376l-79.2,0l0,376Zm39.6,-425.9l55.4,-55.4l-55.4,-56.2l-55.4,56.2l55.4,55.4Zm81.5,612c89.5,0 125.9,-63.3 125.9,-186l0,-376l-79.2,0l0,376c0,75.2 -21.4,106.1 -63.3,106.1c-4.7,0 -9.5,0 -14.2,-0.8l0,78.4c11.1,1.6 21.4,2.4 30.9,2.4Zm86.3,-612l55.4,-55.4l-55.4,-56.2l-55.4,56.2l55.4,55.4Z" style="fill:#fff;fill-rule:nonzero;"/><path d="M4924.5,3257.6l79.2,0l0,-178.9l169.4,178.9l109.2,0l-205.8,-213l187.6,-163.1l-112.4,0l-148,133l0,-311.1l-79.2,0l0,554.2Z" style="fill:#fff;fill-rule:nonzero;"/><path d="M5445.5,3265.5c29.3,0 53,-7.1 73.6,-19l0,-77.6c-18.2,12.7 -41.2,20.6 -68.9,20.6c-37.2,0 -59.4,-29.3 -59.4,-70.5l0,-415.6l-79.2,0l0,437c0,72 57.8,125.1 133.8,125.1Z" style="fill:#fff;fill-rule:nonzero;"/><path d="M6082.7,3044.6l0,213l79.2,0l0,-216.9c0,-102.1 -49.9,-167 -147.2,-167c-50.7,0 -95.8,11.9 -138.5,54.6c-25.3,-34.8 -65.7,-54.6 -116.4,-54.6c-44.3,0 -80.8,11.9 -107.7,31.7l0,-23.8l-79.2,0l0,376l79.2,0l0,-273.9c16.6,-19.8 46.7,-34.8 90.2,-34.8c55.4,0 85.5,35.6 85.5,95.8l0,213l79.2,0l0,-216.9c0,-15 -0.8,-29.3 -3.2,-42.7c23,-33.2 53.8,-49.1 93.4,-49.1c55.4,0 85.5,26.1 85.5,95.8Z" style="fill:#fff;fill-rule:nonzero;"/><path d="M6234,3257.6l79.2,0l0,-273.9c16.6,-19.8 46.7,-34.8 90.2,-34.8c60.2,0 93.4,35.6 93.4,95.8l0,213l79.2,0l0,-216.9c0,-104.5 -59.4,-167 -155.2,-167c-44.3,0 -80.8,11.9 -107.7,31.7l0,-23.8l-79.2,0l0,376Z" style="fill:#fff;fill-rule:nonzero;"/><path d="M6825.3,3265.5c108.5,0 193.2,-86.3 193.2,-195.5c0,-110 -84.7,-196.3 -193.2,-196.3c-108.5,0 -193.2,86.3 -193.2,196.3c0,109.2 84.7,195.5 193.2,195.5Zm0,-75.2c-64.1,0 -114,-53 -114,-120.3c0,-68.1 49.9,-121.1 114,-121.1c64.1,0 114,53 114,121.1c0,67.3 -49.9,120.3 -114,120.3Z" style="fill:#fff;fill-rule:nonzero;"/><path d="M7078.7,3435.7l79.2,0l0,-198.7c30.1,18.2 64.9,28.5 101.3,28.5c109.2,0 194,-86.3 194,-199.5c0,-106.1 -84.7,-192.4 -194.8,-192.4c-36.4,0 -69.7,9.5 -100.5,28.5l0,-20.6l-79.2,0l0,554.2Zm176.5,-245.4c-35.6,0 -74.4,-15 -97.4,-41.2l0,-163.9c23.8,-22.2 61,-36.4 97.4,-36.4c68.9,0 118.8,53 118.8,118c0,70.5 -49.9,123.5 -118.8,123.5Z" style="fill:#fff;fill-rule:nonzero;"/><path d="M7876.7,3435.7l0,-554.2l-79.2,0l0,20.6c-30.9,-19 -64.1,-28.5 -100.5,-28.5c-110,0 -194.8,86.3 -194.8,192.4c0,113.2 84.7,199.5 194,199.5c36.4,0 71.2,-10.3 101.3,-28.5l0,198.7l79.2,0Zm-176.5,-245.4c-68.9,0 -118.8,-53 -118.8,-123.5c0,-64.9 49.9,-118 118.8,-118c36.4,0 73.6,14.2 97.4,36.4l0,163.9c-23,26.1 -61.8,41.2 -97.4,41.2Z" style="fill:#fff;fill-rule:nonzero;"/><path d="M8556.7,3447.6c43.5,0 91.8,-9.5 136.2,-36.4l0,-68.9c-30.1,19.8 -62.5,30.1 -99,31.7c-69.7,4 -143.3,-19.8 -232.8,-69.7c-35.6,-19.8 -77.6,-45.9 -119.5,-73.6c49.1,-34.8 81.5,-93.4 81.5,-160.7c0,-110 -84.7,-196.3 -193.2,-196.3c-108.5,0 -193.2,86.3 -193.2,196.3c0,82.3 47.5,151.2 117.2,180.5c55.4,23.7 77.6,14.2 183.7,77.6c62.5,37.2 189.2,119.5 319,119.5Zm-426.7,-257.3c-64.1,0 -114,-53 -114,-120.3c0,-68.1 49.9,-121.1 114,-121.1c64.1,0 114,53 114,121.1c0,67.3 -49.9,120.3 -114,120.3Z" style="fill:#999;fill-rule:nonzero;"/><path d="M8388.1,3257.6l79.2,0l0,-254.1c18.2,-36.4 50.7,-52.2 90.2,-52.2c21.4,0 43.5,4.7 72.8,21.4l0,-80.8c-21.4,-11.1 -42.8,-18.2 -69.7,-18.2c-36.4,0 -69.7,12.7 -93.4,39.6l0,-31.7l-79.2,0l0,376Z" style="fill:#fff;fill-rule:nonzero;"/><path d="M8810,3265.5c82.3,0 155.2,-31.7 155.2,-118c0,-66.5 -44.3,-100.5 -132.2,-121.1c-58.6,-13.5 -83.9,-23.8 -83.9,-46.7c0,-24.5 28.5,-33.2 62.5,-33.2c50.7,0 90.2,18.2 121.1,41.2l0,-81.5c-34.8,-20.6 -84.7,-32.5 -125.9,-32.5c-83.1,0 -137.7,41.2 -137.7,106.1c0,66.5 49.1,97.4 132.2,116.4c62.5,14.3 84.7,32.5 84.7,54.6c0,22.2 -22.2,39.6 -77.6,39.6c-64.9,0 -99.8,-18.2 -139.3,-55.4l0,90.2c39.6,25.3 82.3,40.4 140.9,40.4Z" style="fill:#fff;fill-rule:nonzero;"/><path d="M3952,4074.9c31.7,0 64.9,-10.3 88.7,-26.9l0,-76c-24.5,18.2 -57,28.5 -83.1,28.5c-42,0 -58.6,-29.3 -58.6,-70.5l0,-167.8l141.7,0l0,-71.2l-141.7,0l0,-75.2l-79.2,0l0,75.2l-78.4,0l0,71.2l78.4,0l0,187.6c0,80 50.7,125.1 132.2,125.1Z" style="fill:#fff;fill-rule:nonzero;"/><path d="M4252,4074.9c44.3,0 80.8,-11.9 107.7,-31.7l0,23.8l79.2,0l0,-376l-79.2,0l0,273.9c-16.6,19.8 -46.7,34.8 -90.2,34.8c-60.2,0 -93.4,-35.6 -93.4,-95.8l0,-213l-79.2,0l0,216.9c0,104.5 59.4,167 155.2,167Z" style="fill:#fff;fill-rule:nonzero;"/><path d="M4658.1,4067l82.3,0l169.4,-376l-94.2,0l-114.8,275.5l-114.8,-275.5l-97.4,0l169.4,376Z" style="fill:#fff;fill-rule:nonzero;"/><path d="M5064.3,4067l77.6,0l82.3,-220.1l87.1,220.1l77.6,0l137,-376l-86.3,0l-94.2,260.5l-89.5,-228l-63.3,0l-84.7,228l-94.2,-260.5l-86.3,0l137,376Z" style="fill:#fff;fill-rule:nonzero;"/><path d="M5821.9,4067l99,0l-139.3,-186l140.9,-190l-98.2,0l-90.2,127.5l-95,-127.5l-98.2,0l140.1,187.6l-142.5,188.4l99,0l90.2,-125.9l94.2,125.9Z" style="fill:#fff;fill-rule:nonzero;"/><path d="M6019,4249.1c63.3,0 109.3,-42 132.2,-93.4l208.2,-464.7l-94.2,0l-114.8,274.7l-121.1,-274.7l-97.4,0l174.2,373.7l-23.7,53c-13.5,29.3 -38.8,48.3 -70.5,48.3c-8.7,0 -17.4,-1.6 -26.1,-4l0,83.1c11.9,2.4 23,4 33.2,4Z" style="fill:#fff;fill-rule:nonzero;"/><path d="M6372.9,4067l340.4,0l0,-79.2l-192.4,0l205,-296.9l-335.7,0l0,79.2l189.2,0l-206.6,296.9Z" style="fill:#fff;fill-rule:nonzero;"/><path d="M2450.6,4929.6c140.9,0 262,-95 285,-238.3l501.9,0l-99.7,107.7l502.7,-148l-501.1,-148.8l98.2,110l-501.9,0c-23.8,-134.6 -143.3,-244.6 -285,-244.6c-150.4,0 -270,111.6 -292.9,244.6l-369.7,0l-100.5,-107.7l-110,0l100.5,107.7l-53,0l-100.5,-107.7l-110.8,0l101.3,107.7l-53.8,0l-99.7,-107.7l-110.8,0l101.3,107.7l-101.3,0l0,79.2l101.3,0l-101.3,107.7l110.8,0l99.7,-107.7l53.8,0l-101.3,107.7l110.8,0l100.5,-107.7l53,0l-100.5,107.7l110,0l100.5,-107.7l369.7,0c23,142.5 141.7,238.3 292.9,238.3Zm0,-71.2c-102.9,0 -190,-70.5 -213.8,-167l214.5,0l0,-79.2l-214.5,0c23,-94.2 112.4,-165.5 213.8,-165.5c110.8,0 205.8,95 205.8,205.8c0,111.6 -95.8,205.8 -205.8,205.8Z" style="fill:#fff;fill-rule:nonzero;"/><path d="M3650,4798.9l110.8,0l99.8,-107.7l53.8,0l-101.3,107.7l110.8,0l100.5,-107.7l53,0l-100.5,107.7l110,0l100.5,-107.7l640.5,0l-99.7,107.7l502.7,-148l-501.1,-148.8l98.2,110l-640.5,0l-100.5,-107.7l-110,0l100.5,107.7l-53,0l-100.5,-107.7l-110.8,0l101.3,107.7l-53.8,0l-99.8,-107.7l-110.8,0l101.3,107.7l-101.3,0l0,79.2l101.3,0l-101.3,107.7Z" style="fill:#fff;fill-rule:nonzero;"/><path d="M5733.6,4798.9l-99.8,-107.7l642.8,0l99.8,107.7l110.8,0l-101.3,-107.7l53.8,0l99.8,107.7l110.8,0l-101.3,-107.7l53.8,0l100.5,107.7l110,0l-100.5,-107.7l100.5,0l0,-79.2l-100.5,0l100.5,-107.7l-110,0l-100.5,107.7l-53.8,0l101.3,-107.7l-110.8,0l-99.8,107.7l-53.8,0l101.3,-107.7l-110.8,0l-99.8,107.7l-642.8,0l98.2,-110l-501.1,148.8l502.7,148Z" style="fill:#fff;fill-rule:nonzero;"/><path d="M8012.8,4929.6c151.2,0 270,-95.8 292.9,-238.3l369.7,0l100.5,107.7l110,0l-100.5,-107.7l53,0l100.5,107.7l110.8,0l-101.3,-107.7l53.8,0l99.8,107.7l110.8,0l-101.3,-107.7l101.3,0l0,-79.2l-101.3,0l101.3,-107.7l-110.8,0l-99.8,107.7l-53.8,0l101.3,-107.7l-110.8,0l-100.5,107.7l-53,0l100.5,-107.7l-110,0l-100.5,107.7l-369.7,0c-23,-133 -142.5,-244.6 -292.9,-244.6c-141.7,0 -261.2,110 -285,244.6l-501.9,0l98.2,-110l-501.1,148.8l502.7,148l-99.8,-107.7l501.9,0c23,143.3 144.1,238.3 285,238.3Zm0,-71.2c-110,0 -205.8,-94.2 -205.8,-205.8c0,-110.8 95,-205.8 205.8,-205.8c101.3,0 190.8,71.2 213.8,165.5l-214.5,0l0,79.2l214.5,0c-23.8,96.6 -110.8,167 -213.8,167Z" style="fill:#fff;fill-rule:nonzero;"/></g></svg>